<svg width="600" height="600" xmlns="http://www.w3.org/2000/svg">
 <g>
  <title>Layer 1</title>
  <ellipse fill="#fff" cx="301.33327" cy="300.83331" id="svg_1" rx="299.33331" ry="299.49997" stroke="#000"/>
  <path fill="none" stroke="#000" stroke-width="5" d="m280.08809,643.92269l0.56913,0l0.17587,-0.54067l0.17587,0.54067l0.56913,0l-0.46044,0.33415l0.17588,0.54067l-0.46044,-0.33416l-0.46044,0.33416l0.17588,-0.54067l-0.46044,-0.33415z" id="svg_30"/>
  <path id="svg_8" d="m-84.78291,407.2831l-0.12517,0l0.06259,0.03554l0.06259,-0.03554zm-0.05888,0.05068c-0.00115,0.00066 -0.00243,0.00099 -0.0037,0.00099s-0.00255,-0.00033 -0.00371,-0.00099l-0.0638,-0.03622l0,0.07387l0.135,0l0,-0.07387l-0.0638,0.03622z" stroke="#000" fill="#444444"/>
  <path id="svg_9" d="m-90.15729,127.08337l0.745,-1.30375l0.745,1.30375l-1.49,0z" stroke="#000" fill="#444444"/>
  <rect id="svg_14" height="61.84171" width="27.6314" y="336.13628" x="110.69912" stroke="#000" fill="#444444"/>
  <rect id="svg_17" height="61.84171" width="27.6314" y="336.13628" x="479.11783" stroke="#000" fill="#444444"/>
  <rect id="svg_16" height="57.89437" width="506.5757" y="294.03129" x="39.64695" stroke="#000" fill="#444444"/>
  <ellipse ry="25.65773" rx="73.02585" id="svg_18" cy="271.00512" cx="474.51258" stroke="#000" fill="#2b2b2b"/>
  <rect id="svg_19" height="46.05234" width="365.78713" y="276.92614" x="34.38382" stroke="#000" fill="#2b2b2b"/>
 </g>

</svg>