<svg width="600" height="600" xmlns="http://www.w3.org/2000/svg">

 <g>
  <title>Layer 1</title>
  <path fill="#bfbf91" opacity="NaN" d="m66.56752,446.04791c0,0 230.98261,-182.80287 232.01977,-184.07982c0.37127,1.27695 232.76231,305.30699 232.39105,304.03006c0.37126,1.27693 -292.58229,28.2163 -292.95357,26.93937c0.37128,1.27693 -147.51393,-48.75333 -147.88522,-50.03026c0.37128,1.27693 -23.57204,-96.85935 -23.57204,-96.85935l0.00001,0z" id="svg_47" stroke="#ffffff"/>
  <path fill="#ffd4aa" stroke-width="2" opacity="NaN" d="m456.25611,173.71695l-204.68185,38.10877l108.43949,41.93513l-63.78794,125.80542l121.19708,167.74053l38.83322,-373.58985z" id="svg_49" stroke="#ffffff" transform="rotate(-40 353.915 360.512)"/>
  <path transform="rotate(50 395.618 37.29)" fill="#c5c5f9" opacity="NaN" d="m134.77548,233.50185l351.21495,-392.844l170.47082,337.37937l-332.69306,55.88493l-188.99271,-0.4203z" id="svg_48" stroke-width="2" stroke="#ffffff"/>
  <path fill="#f9cae1" stroke="#ffffff" stroke-width="2" opacity="NaN" d="m480.64611,579.79963l-108.82042,-306.56408l192.955,-184.50441l35.21077,173.23697l-4.22529,195.77186l-115.12005,122.05967l-0.00001,-0.00001z" id="svg_46"/>
  <path fill="#f9cae1" stroke="#ffffff" stroke-width="2" opacity="NaN" d="m69.38439,106.56696l84.13455,242.72384l-84.50584,209.85616l-66.19624,-139.43463l-1.40843,-250.70065l67.97596,-62.44472z" id="svg_45"/>
  <path fill="none" stroke="#000" stroke-width="5" d="m280.08809,643.92269l0.56913,0l0.17587,-0.54067l0.17587,0.54067l0.56913,0l-0.46044,0.33415l0.17588,0.54067l-0.46044,-0.33416l-0.46044,0.33416l0.17588,-0.54067l-0.46044,-0.33415z" id="svg_30"/>
  <path id="svg_6" d="m-97.57258,98.16746c-0.0841,-0.01521 -0.1131,-0.12145 -0.06296,-0.1851c0.06654,-0.09844 0.20888,-0.1648 0.3204,-0.10269c0.00222,-0.34665 0.00094,-0.69332 0.00128,-1.03999c0.27807,-0.0561 0.55675,-0.10931 0.83493,-0.16492c-0.0006,0.38852 -0.0012,0.77704 -0.00181,1.16556c-0.04358,0.11751 -0.1844,0.199 -0.30701,0.16256c-0.073,-0.02185 -0.0905,-0.11608 -0.04985,-0.17381c0.05566,-0.08612 0.15927,-0.14525 0.26343,-0.12912c0.02972,-0.00301 0.07349,0.04512 0.06093,-0.00932c0,-0.23356 0,-0.46711 0,-0.70067c-0.25526,0.05139 -0.51102,0.10033 -0.7664,0.15116c-0.00114,0.28176 0.00283,0.56362 -0.00294,0.8453c-0.0176,0.09456 -0.11057,0.16004 -0.20029,0.17913c-0.02964,0.00353 -0.06005,0.00659 -0.08971,0.00191l0,0zm0.66587,-1.17572c0.13115,-0.02581 0.26237,-0.05131 0.39346,-0.07741c0.01668,-0.06647 -0.05798,-0.0233 -0.0945,-0.02168c-0.22394,0.04421 -0.448,0.08776 -0.67191,0.13213c-0.01668,0.06647 0.05798,0.0233 0.0945,0.02168c0.0928,-0.01829 0.18562,-0.03652 0.27844,-0.05473l0.00001,0.00001zm0,-0.11633c0.13115,-0.02581 0.26237,-0.05131 0.39346,-0.07741c0.01668,-0.06647 -0.05798,-0.0233 -0.0945,-0.02168c-0.22394,0.04421 -0.448,0.08776 -0.67191,0.13213c-0.01668,0.06647 0.05798,0.0233 0.0945,0.02168c0.0928,-0.01829 0.18562,-0.03652 0.27844,-0.05473l0.00001,0.00001z" stroke="#000" fill="#fff"/>
  <path fill="#000000" stroke="null" opacity="NaN" id="svg_2"/>
  <path fill="#c5f7dd" stroke-width="2" opacity="NaN" d="m-43.29006,86.56725l193.99214,250.04767l254.92594,-225.3489l-243.6585,-90.13956" id="svg_39" stroke="#ffffff"/>
  <path fill="#ffffaa" stroke="#ffffff" stroke-width="2" opacity="NaN" d="m53.89165,478.58041l192.58371,-185.62684l-246.47536,4.22529l53.89165,181.40155z" id="svg_40"/>
  <path fill="#ffd4aa" stroke="#ffffff" stroke-width="2" opacity="NaN" d="m573.60252,152.76347l-135.5806,34.5578l71.82996,38.02763l-42.25292,114.08288l80.28055,152.11051l25.72301,-338.77881l0,-0.00001z" id="svg_41"/>
  <path fill="#c5f7dd" stroke="#ffffff" stroke-width="2" opacity="NaN" d="m79.2434,676.32408l72.86711,-165.06377l232.39105,8.45058l47.88664,111.26602l-66.19624,142.25149l-286.94856,-96.90433l0,0.00001z" id="svg_42"/>
  <path fill="#ffffaa" stroke="#ffffff" stroke-width="2" opacity="NaN" d="m170.79139,36.61491l127.79591,123.94618l135.20934,16.90117l59.15409,-87.3227l26.76018,-66.19624l-348.91952,12.67159z" id="svg_44"/>
  <path fill="#c5c5f9" opacity="NaN" d="m90.51084,405.34203l179.90784,-267.31582l87.3227,229.57419l-170.42011,38.02763l-96.81043,-0.286z" id="svg_37" stroke="#ffffff" stroke-width="2"/>
  <ellipse fill="none" stroke="#ffffff" stroke-width="99" cx="591.20791" cy="10.93452" id="svg_52" rx="55.63301" ry="34.50655"/>
  <ellipse fill="none" cx="299.66277" cy="298.11351" id="svg_51" rx="335.91067" ry="338.02331" stroke-width="99" stroke="#ffffff"/>
 </g><g><title>Layer 2</title>
  
  <path id="svg_30" d="m280.08809,643.92269l0.56913,0l0.17587,-0.54067l0.17587,0.54067l0.56913,0l-0.46044,0.33415l0.17588,0.54067l-0.46044,-0.33416l-0.46044,0.33416l0.17588,-0.54067l-0.46044,-0.33415z" stroke-width="5" stroke="#000" fill="none"/>
  <g stroke="null" id="svg_52">
   <path stroke="#2b2b2b" d="m416.49307,444.33366c0.49366,0 1.00639,-0.24411 2.46815,0c1.54081,0.25732 1.97449,0.50799 2.46811,0.50799c0,0 0.49362,0 0.49362,0c0.98725,0.50799 1.97449,0.50799 3.45536,0.50799c1.4809,0 2.11912,-0.35919 2.46815,0c0.34903,0.35919 0.49362,0.50799 2.46811,0.50799c2.46811,0 3.94898,0 6.91075,0c0.98725,0 1.97449,0 2.46811,0c1.97449,0 2.96174,0 3.94902,0c1.48087,0 2.46811,0 2.46811,0c0.49362,0 0.49362,0 0.98725,0c0,0 0.49362,0 0.98725,0c0.98725,0 1.39385,-0.24702 2.46811,-0.50799c0.48043,-0.1167 0.98725,0 0.98725,0c0,-0.50799 0,-0.50799 0,-0.50799l0,-0.50799l0,0" id="svg_50" stroke-width="10" fill="none"/>
   <path stroke="#2b2b2b" id="svg_37" d="m152.7648,444.85657c18.42459,-0.23366 -17.54685,-1.08438 -23.92744,-1.55328c-53.3155,-1.30498 -97.5627,-54.80955 -91.80412,-107.90718c1.16608,-53.13309 51.86675,-99.80795 104.63733,-94.46121c13.73619,-5.88971 33.23536,13.54738 41.76385,4.26351c21.90575,-39.0047 43.13011,-78.41685 65.91853,-116.90268c19.41108,-2.79656 42.53657,-4.9582 61.41954,0.34249c8.72987,13.88033 -7.14229,17.65918 -17.04661,15.51636c-11.05449,0 -22.10899,0 -33.16349,0c-8.00269,14.73711 -16.21465,29.35678 -24.39181,43.99556c46.44619,0 92.89244,0 139.33864,0c1.03428,-4.98697 12.76638,-15.73191 2.3653,-14.56395c-18.89656,-2.40397 -7.07602,-24.44805 6.91755,-18.17695c19.64268,0.72855 39.9797,-1.95446 59.03289,2.0203c10.17794,20.61804 -19.25097,16.19481 -31.86609,16.41334c-9.3376,-3.07624 -11.27268,6.34577 -14.96975,12.79286c-14.98965,15.49823 -5.67264,31.83251 4.40186,46.94078c3.69533,6.87306 6.32787,16.41209 15.32012,9.99002c18.33735,-4.06721 38.32849,-4.21472 56.57517,0.54099c38.12823,11.43385 68.69923,47.11625 71.25868,87.53665c2.30953,24.82776 -2.94884,50.41932 -18.25938,70.44831c-17.75798,25.67346 -46.57692,39.73132 -76.8949,42.58303m-23.76988,0.25061c-27.63998,-7.1594 -53.12338,-23.81547 -67.89757,-48.96146c-9.6685,-12.56896 -10.92543,-32.02944 -16.06442,-44.6376c-13.55381,-0.179 -27.10764,-0.35802 -40.66149,-0.537c-27.45168,-44.57533 -51.64798,-91.19382 -78.1284,-136.39057c-5.16176,15.47294 -34.50624,36.52398 -18.30357,50.76709c40.66328,34.43926 46.07842,101.70856 11.29846,142.25859c-15.93883,18.03481 -38.04942,30.46297 -60.77829,37.48828m1.74578,-24.52313c43.86075,-9.64083 71.88867,-60.68738 56.71774,-103.25994c-4.68845,-13.86558 -17.58873,-36.01456 -28.98266,-36.24154c-12.14556,21.1664 -23.07191,43.09067 -36.38315,63.54782c-29.23024,5.18972 -2.45013,-30.7345 3.73481,-42.94175c6.6311,-14.89398 30.7113,-38.98744 0.37656,-38.63071c-21.29601,-2.13907 -43.92784,-0.07049 -61.15547,14.19698c-36.97149,24.69519 -43.96903,81.17841 -15.97075,115.22737c18.95405,24.80519 51.68565,35.35106 81.6629,28.10178l0.00002,-0.00002zm306.87698,-0.00613c37.43667,-8.87833 64.3766,-47.71572 59.53086,-86.26117c-2.56284,-42.83666 -44.88663,-77.48062 -86.96384,-71.72302c-31.53033,-3.01206 -1.34371,26.20546 3.16318,40.40959c4.28763,15.0822 27.90722,33.60664 14.72047,48.31494c-29.57644,1.25065 -59.87805,-0.87824 -89.37328,2.13196c5.29756,39.47759 42.31111,72.13403 82.25137,69.11311c5.60508,-0.04614 11.23716,-0.52477 16.67125,-1.98541l-0.00001,0zm-120.82605,-88.22541c3.56238,-30.88834 20.90847,-58.98539 46.20616,-76.56598c1.49462,-7.57689 -13.82336,-42.47503 -19.43221,-18.14488c-17.31254,31.7629 -34.71661,63.48323 -51.49866,95.53409c8.03958,0.19627 17.05188,1.61322 24.72472,-0.82323zm90.36918,-1.53196c-9.97982,-18.9371 -20.18125,-37.76057 -30.61235,-56.4482c-20.92511,11.13805 -34.69119,34.70912 -37.94529,58.23594c22.84758,-0.4916 46.07842,1.20501 68.61711,-1.22858l-0.05939,-0.55919l0,0l-0.00008,0.00002zm-97.87651,-68.30588c9.84263,-18.33626 19.87207,-36.57591 29.41069,-55.075c-41.47684,-0.93854 -83.0478,-1.14412 -124.51063,0.19835c21.29713,36.9454 40.53794,75.3219 63.82428,110.96877c11.25976,-17.48172 20.82276,-37.60837 31.27566,-56.09211l0,-0.00001z" stroke-width="10" fill="none"/>
  </g>
 </g>
</svg>