<svg width="600" height="600" xmlns="http://www.w3.org/2000/svg">
 <g>
  <title>Layer 1</title>
  <ellipse fill="#fff" cx="301.33327" cy="300.83331" id="svg_1" rx="299.33331" ry="299.49997" stroke="#000"/>
  <path fill="none" stroke="#000" stroke-width="5" d="m280.08809,643.92269l0.56913,0l0.17587,-0.54067l0.17587,0.54067l0.56913,0l-0.46044,0.33415l0.17588,0.54067l-0.46044,-0.33416l-0.46044,0.33416l0.17588,-0.54067l-0.46044,-0.33415z" id="svg_30"/>
  <path id="svg_5" d="m728.16733,418.83864c0.02561,-0.04638 0.07247,-0.10679 -0.00804,-0.12137c-0.02243,-0.01151 -0.04486,-0.03188 -0.06726,-0.00919c-0.04983,0.01969 -0.09303,0.04722 -0.04062,0.09874c0.02324,0.03327 0.04438,0.10587 0.07071,0.11387c0.01571,-0.02698 0.03043,-0.05453 0.0452,-0.08204l0,0l0.00001,-0.00001zm-0.11009,0.12806c-0.04575,-0.08165 -0.08256,-0.16924 -0.13855,-0.24457c-0.0681,-0.07271 -0.20228,-0.0403 -0.23278,0.05349c-0.04051,0.09272 0.04689,0.20343 0.14583,0.19183c0.07508,0.00126 0.15059,0.00464 0.22549,-0.00075l0.00001,0zm0.38014,0.00276c0.0973,-0.01304 0.15325,-0.13553 0.09785,-0.21686c-0.04909,-0.08679 -0.19033,-0.08982 -0.23963,-0.00162c-0.04269,0.07131 -0.07975,0.14582 -0.11893,0.21908c0.08661,0.00495 0.17404,0.0038 0.26071,-0.0006l0,0zm0.16114,0.10443c0.03317,-0.02919 0.16162,-0.06359 0.06434,-0.09131c-0.0241,-0.00684 -0.05219,-0.03821 -0.07385,-0.02962c-0.04703,0.05847 -0.11934,0.09278 -0.19484,0.08918c-0.01478,0.00486 -0.09017,-0.00739 -0.0698,0.00652c0.05326,0.03037 0.10518,0.06335 0.16028,0.09031c0.03859,-0.02055 0.07604,-0.04319 0.11388,-0.06508l0,0l-0.00001,0zm-0.75781,0.01652c0.02837,-0.01652 0.05673,-0.03305 0.0851,-0.04957c-0.0867,-0.00431 -0.18593,0.00819 -0.25145,-0.06155c-0.01847,-0.02069 -0.03619,-0.04437 -0.06179,-0.01833c-0.03067,0.02113 -0.125,0.04278 -0.05237,0.06857c0.06325,0.03736 0.12605,0.07563 0.19086,0.11023c0.03088,-0.01448 0.05999,-0.03258 0.08967,-0.04936l0,0l-0.00002,0.00001zm0.4157,0.18437c0.03676,-0.02953 0.12579,-0.05767 0.12877,-0.08937c-0.08311,-0.04782 -0.16379,-0.10107 -0.25074,-0.14149c-0.02992,-0.01135 -0.05418,0.00612 -0.07827,0.02129c-0.07122,0.04236 -0.14415,0.0821 -0.21305,0.12816c0.09011,0.05572 0.18131,0.1098 0.27339,0.1622c0.04697,-0.02634 0.09333,-0.05376 0.13991,-0.08078l0,0l-0.00001,-0.00001zm0.36877,0.09219c0.03813,-0.02406 0.07627,-0.04812 0.1144,-0.07218c-0.00031,-0.08059 0.00097,-0.16121 -0.00123,-0.24177c-0.07697,0.04295 -0.15284,0.08804 -0.22743,0.13499c-0.00816,0.08312 -0.00402,0.16761 -0.00225,0.25115c0.03936,-0.02319 0.07776,-0.04799 0.1165,-0.07218l0.00001,-0.00001zm-0.89437,-0.05077c0.00387,-0.0687 0.01222,-0.147 -0.07062,-0.16735c-0.05232,-0.0244 -0.12483,-0.08692 -0.16514,-0.08629c-0.00126,0.0774 -0.00059,0.15482 -0.00073,0.23223c0.07728,0.04823 0.15319,0.09878 0.23214,0.14424c0.00766,-0.0399 0.00265,-0.0822 0.00435,-0.12283zm0.5534,0.26598c0.04571,-0.02886 0.09142,-0.05772 0.13713,-0.08657c-0.00021,-0.0832 0.00323,-0.16652 -0.00053,-0.24963c-0.05024,0.01441 -0.10769,0.05893 -0.16062,0.08659c-0.03963,0.02321 -0.07926,0.04643 -0.11889,0.06964c0.00078,0.08884 -0.00214,0.17783 0.00289,0.26654c0.04738,-0.02768 0.09349,-0.05749 0.14002,-0.08657l0,0zm-0.19161,-0.0467c0,-0.04442 0,-0.08885 0,-0.13327c-0.09176,-0.05363 -0.18323,-0.10776 -0.27535,-0.16077c-0.00509,0.08495 -0.00218,0.17022 -0.00295,0.25532c0.09174,0.05744 0.18253,0.11645 0.27543,0.17199c0.00362,-0.04427 0.0023,-0.08888 0.00287,-0.13327zm0.53486,0.17858c0.0374,-0.0249 0.07479,-0.0498 0.11219,-0.07471c-0.00156,-0.07895 0.00385,-0.15897 -0.00402,-0.23705c-0.07777,0.04437 -0.15283,0.09489 -0.22921,0.14225c0.00184,0.08169 -0.00377,0.16431 0.00467,0.2453c0.03945,-0.02422 0.07771,-0.05035 0.11637,-0.0758l0,0.00001zm-0.89747,-0.04426c-0.0003,-0.0414 -0.00061,-0.08279 -0.00091,-0.12419c-0.07726,-0.04834 -0.15355,-0.09829 -0.23197,-0.14473c-0.00491,0.07931 -0.00211,0.15892 -0.00285,0.23837c0.07794,0.05159 0.155,0.10455 0.23399,0.15453c0.00303,-0.04121 0.00152,-0.0827 0.00174,-0.12399l0,0.00001zm0.5562,0.27203c0.0454,-0.03015 0.09079,-0.0603 0.13619,-0.09045c-0.00011,-0.08407 0.0016,-0.16817 -0.00066,-0.25221c-0.09241,0.05698 -0.1842,0.11501 -0.27531,0.17403c-0.0103,0.08118 -0.00362,0.16487 -0.00364,0.24693c0.02828,0.01722 0.10058,-0.05911 0.14342,-0.07831l0,0l0,0.00001zm-0.19359,-0.03599c-0.00549,-0.05797 0.02361,-0.13956 -0.05006,-0.16203c-0.0743,-0.04706 -0.1483,-0.09463 -0.22357,-0.14011c-0.01097,0.07958 0.0005,0.16249 -0.00792,0.24305c0.09027,0.06526 0.1829,0.12764 0.27721,0.18688c0.00756,-0.04152 0.00286,-0.0855 0.00435,-0.12779l0,0l-0.00001,0zm-0.3157,-0.01532c-0.10987,-0.07334 -0.21974,-0.14669 -0.32961,-0.22003c0.00012,-0.22635 -0.003,-0.45275 0.00101,-0.67906c0.05502,-0.03395 0.11357,-0.06178 0.17019,-0.09292c-0.03657,-0.10469 0.01619,-0.23191 0.12224,-0.2711c0.08889,-0.03647 0.19605,-0.00356 0.25273,0.07323c0.04117,-0.02111 0.08233,-0.04222 0.1235,-0.06334c0.04139,0.0213 0.08277,0.04261 0.12416,0.06391c0.0593,-0.07034 0.1609,-0.11049 0.24895,-0.07107c0.10569,0.03715 0.16329,0.16409 0.12539,0.26861c0.05704,0.0322 0.11905,0.05737 0.17135,0.09666c0.00232,0.22501 0.00002,0.45005 -0.00019,0.67507c-0.21861,0.14468 -0.43369,0.29488 -0.65585,0.43405c-0.0646,-0.00002 -0.12036,-0.07016 -0.18031,-0.0986c-0.05795,-0.03832 -0.11576,-0.07685 -0.17355,-0.11542l0,0l-0.00001,0.00001z" stroke="#000" fill="#fff"/>
  <path stroke-width="15" stroke="#AF84A3" id="svg_7" d="m90.03891,358.90796c-13.30428,-14.87891 -38.25142,1.24529 -41.25973,-25.91404c-5.79061,-24.1344 11.89924,-42.98968 23.67061,-57.60345c20.59377,-13.6265 44.33967,-15.27424 66.61071,-21.51839c26.68789,-5.14403 54.47449,-9.54062 77.48069,-29.95906c26.2036,-21.77243 55.38797,-39.89206 86.95616,-39.57104c43.49569,-2.00208 88.49782,-0.0624 128.71225,24.60288c25.27827,15.15129 52.4373,22.85175 79.41506,30.26355c22.95402,4.00672 17.61595,36.88575 25.25062,57.15555c5.82803,23.27603 -6.77065,46.44444 -25.21191,47.18452c-19.49829,5.88614 -42.31806,6.46548 -55.9296,29.06864c-13.94326,20.50011 -38.98031,19.79246 -53.17922,0.20859c-5.87039,-4.84097 -9.78963,-16.56147 -17.60684,-14.53835c-72.89226,0.52454 -145.8221,-1.38228 -218.68253,1.72373c-19.03894,-2.01312 -26.94699,29.36631 -47.19871,27.1852c-10.36919,0.42723 -20.18864,-21.81193 -29.02756,-28.28834l0,0.00002l0,-0.00001z" fill="none"/>
  <path id="svg_9" d="m732.80762,385.12004c-0.04044,-0.03405 -0.11627,0.00285 -0.12541,-0.0593c-0.0176,-0.05523 0.03617,-0.09838 0.07195,-0.13182c0.0626,-0.03118 0.13477,-0.03495 0.20247,-0.04924c0.08112,-0.01177 0.16558,-0.02183 0.23551,-0.06856c0.07965,-0.04983 0.16835,-0.09129 0.26431,-0.09056c0.13221,-0.00458 0.26899,-0.00014 0.39123,0.0563c0.07683,0.03467 0.15939,0.0523 0.24139,0.06926c0.06977,0.00917 0.05354,0.08441 0.07675,0.1308c0.01771,0.05327 -0.02058,0.10629 -0.07663,0.10798c-0.05927,0.01347 -0.12863,0.0148 -0.17,0.06652c-0.04238,0.04691 -0.11848,0.04529 -0.16164,0.00048c-0.01784,-0.01108 -0.02976,-0.0379 -0.05352,-0.03327c-0.22156,0.0012 -0.44323,-0.00316 -0.6647,0.00394c-0.05787,-0.00461 -0.08191,0.0672 -0.14346,0.06221c-0.03152,0.00098 -0.06136,-0.04992 -0.08823,-0.06474l0,0l-0.00002,0z" stroke="#000" fill="#fff"/>
  <path stroke="#000" id="svg_10" d="m83.99209,356.32096l0,0c0,-20.98681 17.01318,-37.99999 38,-37.99999l0,0c10.07822,0 19.74367,4.00356 26.87005,11.12994c7.12638,7.12638 11.12995,16.79183 11.12995,26.87005l0,0c0,20.98681 -17.01318,37.99999 -38,37.99999l0,0c-20.98681,0 -38,-17.01318 -38,-37.99999zm19,0l0,0c0,10.4934 8.5066,18.99999 19,18.99999c10.49341,0 19,-8.50659 19,-18.99999c0,-10.4934 -8.50659,-18.99999 -19,-18.99999l0,0c-10.4934,0 -19,8.50659 -19,18.99999z" fill="#4a5e7c"/>
  <path stroke="#000" id="svg_12" d="m386.65874,359.65429l0,0c0,-21.355 18.20709,-38.66665 40.66666,-38.66665l0,0c10.78547,0 21.1292,4.07379 28.75567,11.3252c7.62648,7.2514 11.911,17.08642 11.911,27.34145l0,0c0,21.355 -18.20709,38.66665 -40.66667,38.66665l0,0c-22.45957,0 -40.66666,-17.31165 -40.66666,-38.66665zm20.33333,0l0,0c0,10.67749 9.10355,19.33333 20.33333,19.33333c11.22979,0 20.33333,-8.65583 20.33333,-19.33333c0,-10.67749 -9.10355,-19.33333 -20.33333,-19.33333l0,0c-11.22978,0 -20.33333,8.65583 -20.33333,19.33333z" fill="#4a5e7c"/>
  <path id="svg_13" d="m-117.71456,288.10599l0,0c0,-0.41145 0.33355,-0.745 0.745,-0.745l0,0c0.19759,0 0.38708,0.07849 0.52679,0.21821c0.13971,0.13971 0.21821,0.32921 0.21821,0.52679l0,0c0,0.41145 -0.33355,0.745 -0.745,0.745l0,0c-0.41145,0 -0.745,-0.33355 -0.745,-0.745zm0.3725,0l0,0c0,0.20573 0.16677,0.3725 0.3725,0.3725c0.20573,0 0.3725,-0.16677 0.3725,-0.3725c0,-0.20573 -0.16677,-0.3725 -0.3725,-0.3725l0,0c-0.20573,0 -0.3725,0.16677 -0.3725,0.3725z" stroke="#000" fill="#AF84A3"/>
 </g>

</svg>