<svg width="600" height="600" xmlns="http://www.w3.org/2000/svg">
 <g>
  <title>Layer 1</title>
  <path fill="#bfbf91" opacity="NaN" d="m66.56752,446.04791c0,0 230.98261,-182.80287 232.01977,-184.07982c0.37127,1.27695 232.76231,305.30699 232.39105,304.03006c0.37126,1.27693 -292.58229,28.2163 -292.95357,26.93937c0.37128,1.27693 -147.51393,-48.75333 -147.88522,-50.03026c0.37128,1.27693 -23.57204,-96.85935 -23.57204,-96.85935l0.00001,0z" id="svg_47" stroke="#ffffff"/>
  <path fill="#ffd4aa" stroke-width="2" opacity="NaN" d="m456.25611,173.71695l-204.68185,38.10877l108.43949,41.93513l-63.78794,125.80542l121.19708,167.74053l38.83322,-373.58985z" id="svg_49" stroke="#ffffff" transform="rotate(-40 353.915 360.512)"/>
  <path transform="rotate(50 395.618 37.29)" fill="#c5c5f9" opacity="NaN" d="m134.77548,233.50185l351.21495,-392.844l170.47082,337.37937l-332.69306,55.88493l-188.99271,-0.4203z" id="svg_48" stroke-width="2" stroke="#ffffff"/>
  <path fill="#f9cae1" stroke="#ffffff" stroke-width="2" opacity="NaN" d="m480.64611,579.79963l-108.82042,-306.56408l192.955,-184.50441l35.21077,173.23697l-4.22529,195.77186l-115.12005,122.05967l-0.00001,-0.00001z" id="svg_46"/>
  <path fill="#f9cae1" stroke="#ffffff" stroke-width="2" opacity="NaN" d="m69.38439,106.56696l84.13455,242.72384l-84.50584,209.85616l-66.19624,-139.43463l-1.40843,-250.70065l67.97596,-62.44472z" id="svg_45"/>
  <path fill="none" stroke="#000" stroke-width="5" d="m280.08809,643.92269l0.56913,0l0.17587,-0.54067l0.17587,0.54067l0.56913,0l-0.46044,0.33415l0.17588,0.54067l-0.46044,-0.33416l-0.46044,0.33416l0.17588,-0.54067l-0.46044,-0.33415z" id="svg_30"/>
  <path id="svg_6" d="m-97.57258,98.16746c-0.0841,-0.01521 -0.1131,-0.12145 -0.06296,-0.1851c0.06654,-0.09844 0.20888,-0.1648 0.3204,-0.10269c0.00222,-0.34665 0.00094,-0.69332 0.00128,-1.03999c0.27807,-0.0561 0.55675,-0.10931 0.83493,-0.16492c-0.0006,0.38852 -0.0012,0.77704 -0.00181,1.16556c-0.04358,0.11751 -0.1844,0.199 -0.30701,0.16256c-0.073,-0.02185 -0.0905,-0.11608 -0.04985,-0.17381c0.05566,-0.08612 0.15927,-0.14525 0.26343,-0.12912c0.02972,-0.00301 0.07349,0.04512 0.06093,-0.00932c0,-0.23356 0,-0.46711 0,-0.70067c-0.25526,0.05139 -0.51102,0.10033 -0.7664,0.15116c-0.00114,0.28176 0.00283,0.56362 -0.00294,0.8453c-0.0176,0.09456 -0.11057,0.16004 -0.20029,0.17913c-0.02964,0.00353 -0.06005,0.00659 -0.08971,0.00191l0,0zm0.66587,-1.17572c0.13115,-0.02581 0.26237,-0.05131 0.39346,-0.07741c0.01668,-0.06647 -0.05798,-0.0233 -0.0945,-0.02168c-0.22394,0.04421 -0.448,0.08776 -0.67191,0.13213c-0.01668,0.06647 0.05798,0.0233 0.0945,0.02168c0.0928,-0.01829 0.18562,-0.03652 0.27844,-0.05473l0.00001,0.00001zm0,-0.11633c0.13115,-0.02581 0.26237,-0.05131 0.39346,-0.07741c0.01668,-0.06647 -0.05798,-0.0233 -0.0945,-0.02168c-0.22394,0.04421 -0.448,0.08776 -0.67191,0.13213c-0.01668,0.06647 0.05798,0.0233 0.0945,0.02168c0.0928,-0.01829 0.18562,-0.03652 0.27844,-0.05473l0.00001,0.00001z" stroke="#000" fill="#fff"/>
  <path fill="#000000" stroke="null" opacity="NaN" id="svg_2"/>
  <path fill="#c5f7dd" stroke-width="2" opacity="NaN" d="m-43.29006,86.56725l193.99214,250.04767l254.92594,-225.3489l-243.6585,-90.13956" id="svg_39" stroke="#ffffff"/>
  <path fill="#ffffaa" stroke="#ffffff" stroke-width="2" opacity="NaN" d="m53.89165,478.58041l192.58371,-185.62684l-246.47536,4.22529l53.89165,181.40155z" id="svg_40"/>
  <path fill="#ffd4aa" stroke="#ffffff" stroke-width="2" opacity="NaN" d="m573.60252,152.76347l-135.5806,34.5578l71.82996,38.02763l-42.25292,114.08288l80.28055,152.11051l25.72301,-338.77881l0,-0.00001z" id="svg_41"/>
  <path fill="#c5f7dd" stroke="#ffffff" stroke-width="2" opacity="NaN" d="m79.2434,676.32408l72.86711,-165.06377l232.39105,8.45058l47.88664,111.26602l-66.19624,142.25149l-286.94856,-96.90433l0,0.00001z" id="svg_42"/>
  <path fill="#ffffaa" stroke="#ffffff" stroke-width="2" opacity="NaN" d="m170.79139,36.61491l127.79591,123.94618l135.20934,16.90117l59.15409,-87.3227l26.76018,-66.19624l-348.91952,12.67159z" id="svg_44"/>
  <path fill="#c5c5f9" opacity="NaN" d="m90.51084,405.34203l179.90784,-267.31582l87.3227,229.57419l-170.42011,38.02763l-96.81043,-0.286z" id="svg_37" stroke="#ffffff" stroke-width="2"/>
  <ellipse fill="none" stroke="#ffffff" stroke-width="99" cx="591.20791" cy="10.93452" id="svg_52" rx="55.63301" ry="34.50655"/>
  <ellipse fill="none" cx="299.66277" cy="298.11351" id="svg_51" rx="335.91067" ry="338.02331" stroke-width="99" stroke="#ffffff"/>
 </g><g><title>Layer 2</title>
  
  <path fill="none" stroke="#000" stroke-width="5" d="m280.08809,643.92269l0.56913,0l0.17587,-0.54067l0.17587,0.54067l0.56913,0l-0.46044,0.33415l0.17588,0.54067l-0.46044,-0.33416l-0.46044,0.33416l0.17588,-0.54067l-0.46044,-0.33415z" id="svg_30"/>
  <path stroke="null" id="svg_2" d="m121.11453,182.70522c2.56287,-0.53221 21.17748,21.17667 21.52857,25.55117c0.51257,6.38771 12.30209,6.38771 15.37753,6.38771c3.0756,0 25.11675,13.84018 39.9817,28.74511c14.86512,14.90476 58.43484,1.06459 61.51028,0c3.0756,-1.06476 143.52414,-29.27732 181.45539,-9.58165c18.21732,9.45918 54.12541,-23.96018 58.81931,-93.42135c-1.92219,-46.31126 -42.02558,-48.04931 -50.3616,-33.93501c-6.15104,6.25466 -16.65904,4.39158 -14.09601,-7.05314c2.33051,-7.66392 17.94039,-31.27345 46.77342,-20.89331c24.44351,8.7999 38.58162,29.96547 43.82609,61.08298c3.45991,67.0717 -44.9795,116.5769 -44.9795,116.5769c0,0 3.84438,17.56649 9.22665,28.74511c5.3821,11.17862 6.91982,49.5052 6.15088,54.29594c-0.76878,4.79091 23.06646,31.14056 30.75522,31.93888c6.66362,3.19394 25.37312,62.28096 26.1419,75.05637c6.91999,3.5931 -0.76878,21.55875 -9.22648,23.9542c-8.45771,2.39545 -10.76437,-14.37256 -10.76437,-22.35723c0,-7.98468 -8.45771,-45.51295 -32.29294,-49.5052c-23.83523,-3.99242 -44.59486,-17.56649 -44.59486,-17.56649c0,0 -1.53788,7.98485 -4.61332,11.17879c0,0 7.68876,13.5739 7.68876,33.53568c-0.76878,8.78316 -13.07087,35.9313 -21.52857,38.32676c0,0 -13.83981,22.35723 -19.99085,22.35723c-6.15104,0 -16.91541,7.98468 -33.83066,-1.59697c0,0 3.07544,-19.96178 18.45313,-14.37256c0,0 36.13732,-28.74494 18.45297,-41.52053c0,0 -10.7642,-15.96935 -16.91525,-22.35723c-6.15104,-6.38771 -12.30209,-16.76784 -13.83981,-28.74494c0,0 -51.51485,-3.19394 -64.58588,-6.38788c-13.07087,-3.19377 -36.9061,4.79091 -36.9061,9.58165c0,4.79091 3.84438,50.30386 10.7642,59.08702c0,0 2.30666,11.17862 0,14.37256c-2.30666,3.19377 8.45771,29.54342 -12.30209,27.14797c-19.60638,3.5931 -29.21734,-12.37626 -6.15088,-17.56632c1.15325,-17.16717 -29.2175,-89.82809 -49.20835,-79.84728c-26.1419,3.99242 -17.29972,-19.56245 -43.05714,17.56649c-26.91084,32.73719 -73.04359,55.89291 -75.35008,70.26546c0,0 -13.83981,-3.19394 -16.91541,7.98468c0,0 -36.13732,4.79091 -33.83066,-1.59697c2.30666,-6.38771 4.22885,-19.56245 18.45313,-14.37238c0,0 32.29294,-13.17491 63.048,-81.44425c0,0 -3.84438,-17.56632 1.53772,-31.93888c5.38227,-14.37238 -3.07544,-73.4594 -41.51942,-70.26546c0,0 -14.35238,5.32312 -23.06629,-19.16329c0,0 -3.58818,-4.79091 0,-9.58165c3.58801,-4.79091 12.30209,-12.24321 13.83981,-17.56632c1.53772,-5.32329 5.1259,-13.30797 24.60401,-20.76043c9.22665,-9.9808 -1.02498,-29.80953 1.53788,-30.34191z" fill="#2b2b2b"/>
 </g>

</svg>