<svg width="600" height="600" xmlns="http://www.w3.org/2000/svg">
 <g>
  <title>Layer 1</title>
  <path fill="#bfbf91" opacity="NaN" d="m66.56752,446.04791c0,0 230.98261,-182.80287 232.01977,-184.07982c0.37127,1.27695 232.76231,305.30699 232.39105,304.03006c0.37126,1.27693 -292.58229,28.2163 -292.95357,26.93937c0.37128,1.27693 -147.51393,-48.75333 -147.88522,-50.03026c0.37128,1.27693 -23.57204,-96.85935 -23.57204,-96.85935l0.00001,0z" id="svg_47" stroke="#ffffff"/>
  <path fill="#ffd4aa" stroke-width="2" opacity="NaN" d="m456.25611,173.71695l-204.68185,38.10877l108.43949,41.93513l-63.78794,125.80542l121.19708,167.74053l38.83322,-373.58985z" id="svg_49" stroke="#ffffff" transform="rotate(-40 353.915 360.512)"/>
  <path transform="rotate(50 395.618 37.29)" fill="#c5c5f9" opacity="NaN" d="m134.77548,233.50185l351.21495,-392.844l170.47082,337.37937l-332.69306,55.88493l-188.99271,-0.4203z" id="svg_48" stroke-width="2" stroke="#ffffff"/>
  <path fill="#f9cae1" stroke="#ffffff" stroke-width="2" opacity="NaN" d="m480.64611,579.79963l-108.82042,-306.56408l192.955,-184.50441l35.21077,173.23697l-4.22529,195.77186l-115.12005,122.05967l-0.00001,-0.00001z" id="svg_46"/>
  <path fill="#f9cae1" stroke="#ffffff" stroke-width="2" opacity="NaN" d="m69.38439,106.56696l84.13455,242.72384l-84.50584,209.85616l-66.19624,-139.43463l-1.40843,-250.70065l67.97596,-62.44472z" id="svg_45"/>
  <path fill="none" stroke="#000" stroke-width="5" d="m280.08809,643.92269l0.56913,0l0.17587,-0.54067l0.17587,0.54067l0.56913,0l-0.46044,0.33415l0.17588,0.54067l-0.46044,-0.33416l-0.46044,0.33416l0.17588,-0.54067l-0.46044,-0.33415z" id="svg_30"/>
  <path id="svg_6" d="m-97.57258,98.16746c-0.0841,-0.01521 -0.1131,-0.12145 -0.06296,-0.1851c0.06654,-0.09844 0.20888,-0.1648 0.3204,-0.10269c0.00222,-0.34665 0.00094,-0.69332 0.00128,-1.03999c0.27807,-0.0561 0.55675,-0.10931 0.83493,-0.16492c-0.0006,0.38852 -0.0012,0.77704 -0.00181,1.16556c-0.04358,0.11751 -0.1844,0.199 -0.30701,0.16256c-0.073,-0.02185 -0.0905,-0.11608 -0.04985,-0.17381c0.05566,-0.08612 0.15927,-0.14525 0.26343,-0.12912c0.02972,-0.00301 0.07349,0.04512 0.06093,-0.00932c0,-0.23356 0,-0.46711 0,-0.70067c-0.25526,0.05139 -0.51102,0.10033 -0.7664,0.15116c-0.00114,0.28176 0.00283,0.56362 -0.00294,0.8453c-0.0176,0.09456 -0.11057,0.16004 -0.20029,0.17913c-0.02964,0.00353 -0.06005,0.00659 -0.08971,0.00191l0,0zm0.66587,-1.17572c0.13115,-0.02581 0.26237,-0.05131 0.39346,-0.07741c0.01668,-0.06647 -0.05798,-0.0233 -0.0945,-0.02168c-0.22394,0.04421 -0.448,0.08776 -0.67191,0.13213c-0.01668,0.06647 0.05798,0.0233 0.0945,0.02168c0.0928,-0.01829 0.18562,-0.03652 0.27844,-0.05473l0.00001,0.00001zm0,-0.11633c0.13115,-0.02581 0.26237,-0.05131 0.39346,-0.07741c0.01668,-0.06647 -0.05798,-0.0233 -0.0945,-0.02168c-0.22394,0.04421 -0.448,0.08776 -0.67191,0.13213c-0.01668,0.06647 0.05798,0.0233 0.0945,0.02168c0.0928,-0.01829 0.18562,-0.03652 0.27844,-0.05473l0.00001,0.00001z" stroke="#000" fill="#fff"/>
  <path fill="#000000" stroke="null" opacity="NaN" id="svg_2"/>
  <path fill="#c5f7dd" stroke-width="2" opacity="NaN" d="m-43.29006,86.56725l193.99214,250.04767l254.92594,-225.3489l-243.6585,-90.13956" id="svg_39" stroke="#ffffff"/>
  <path fill="#ffffaa" stroke="#ffffff" stroke-width="2" opacity="NaN" d="m53.89165,478.58041l192.58371,-185.62684l-246.47536,4.22529l53.89165,181.40155z" id="svg_40"/>
  <path fill="#ffd4aa" stroke="#ffffff" stroke-width="2" opacity="NaN" d="m573.60252,152.76347l-135.5806,34.5578l71.82996,38.02763l-42.25292,114.08288l80.28055,152.11051l25.72301,-338.77881l0,-0.00001z" id="svg_41"/>
  <path fill="#c5f7dd" stroke="#ffffff" stroke-width="2" opacity="NaN" d="m79.2434,676.32408l72.86711,-165.06377l232.39105,8.45058l47.88664,111.26602l-66.19624,142.25149l-286.94856,-96.90433l0,0.00001z" id="svg_42"/>
  <path fill="#ffffaa" stroke="#ffffff" stroke-width="2" opacity="NaN" d="m170.79139,36.61491l127.79591,123.94618l135.20934,16.90117l59.15409,-87.3227l26.76018,-66.19624l-348.91952,12.67159z" id="svg_44"/>
  <path fill="#c5c5f9" opacity="NaN" d="m90.51084,405.34203l179.90784,-267.31582l87.3227,229.57419l-170.42011,38.02763l-96.81043,-0.286z" id="svg_37" stroke="#ffffff" stroke-width="2"/>
  <ellipse fill="none" stroke="#ffffff" stroke-width="99" cx="591.20791" cy="10.93452" id="svg_52" rx="55.63301" ry="34.50655"/>
  <ellipse fill="none" cx="299.66277" cy="298.11351" id="svg_51" rx="335.91067" ry="338.02331" stroke-width="99" stroke="#ffffff"/>
 </g><g><title>Layer 2</title>
  
  <path id="svg_5" d="m388.85652,420.33812c-9.38173,1.47325 -22.86049,-7.72332 -10.98327,-16.0811c10.05112,-5.43515 0.40616,-19.58832 11.0349,-26.46299c10.80764,-15.22695 22.31374,-30.79228 27.69963,-49.06164c-0.75151,-8.75248 -17.54954,-23.24065 -0.53142,-26.07945c14.03251,1.68352 8.90019,-19.99765 13.75018,-29.39187c2.91636,-14.25909 5.03627,-28.75591 4.51298,-43.36055c-9.77244,-0.28162 -19.74491,0.89261 -29.32553,-1.50524c-6.11122,-8.27833 13.80711,-12.40016 17.0938,-19.87245c6.89614,-10.73972 -10.09528,-22.60578 -2.8218,-35.30144c4.64584,-19.21854 26.13847,-31.67845 44.32433,-24.63849c18.83189,5.03993 32.75259,27.99775 23.80189,47.09437c-0.71459,3.68417 -6.30737,8.46109 -4.43951,11.39504c8.15427,5.84008 17.59568,10.92958 22.76198,19.94719c-7.31472,5.47346 -19.55423,1.30507 -28.68076,3.90512c-8.30305,7.6005 -0.1014,23.14099 0.32391,33.56874c2.59019,11.91435 4.87689,23.93375 7.84519,35.73956c6.24,2.51194 19.05679,5.42064 12.02607,15.85563c-10.02299,8.39724 -5.11672,21.77248 0.53795,31.19556c7.03792,14.55218 19.11921,25.66885 26.52047,39.8849c2.74852,6.56323 -7.07703,18.18717 5.16869,15.46898c13.2757,2.9103 5.3315,21.90727 -6.59809,17.41891c-43.95516,1.59724 -88.0006,2.24562 -131.95681,0.47887l-2.06481,-0.19769l0,0l0.00002,0.00002z" stroke="#000" fill="#444444"/>
  <path stroke="#000" id="svg_4" d="m118.21884,465.35072c-11.56202,0.41634 -28.48391,-5.90941 -16.66207,-20.02027c12.87075,-5.37206 -2.28757,-23.17766 10.61115,-31.56512c10.35342,-15.61049 24.42417,-29.866 28.67041,-48.92928c-0.65943,-12.92872 -15.23383,-20.5801 -8.28056,-34.8903c-6.82172,-22.8999 -5.24518,-49.25785 7.20738,-69.84296c10.57391,-19.11939 23.41193,-39.37784 22.05798,-62.51495c-13.26173,5.86395 -27.29941,11.00165 -41.89457,8.3386c-13.72154,-1.34938 -26.02775,10.41571 -40.02429,4.01856c-14.18798,-3.12125 -22.62716,-23.20874 -12.04854,-34.95113c11.56039,-10.45606 28.54556,-10.79256 39.57072,-22.46179c14.54648,-12.75943 28.00124,-30.0172 48.04991,-32.27288c8.86107,-2.14812 12.66169,-11.57654 17.56668,-18.64229c4.07616,11.20641 11.16566,21.11583 21.83587,26.08389c21.69792,13.30819 27.09914,41.4433 35.10073,64.57179c5.91628,18.11346 10.84528,37.02522 20.7524,53.19604c0.10533,7.76093 -11.01518,11.04127 -3.50407,20.13951c3.90637,24.67585 4.07452,49.94407 3.72822,74.90829c-6.58836,12.21677 -12.58952,25.85243 -3.80087,39.87279c5.87061,17.13675 20.49113,28.37609 27.68429,44.5472c4.06614,8.37338 -7.927,20.53 7.01552,18.42415c13.64603,7.64466 2.62727,26.3049 -10.94479,20.8763c-50.86166,1.36949 -101.83535,2.73702 -152.69151,1.11387l0.00001,-0.00002z" fill="#444444"/>
  <path fill="none" stroke="#000" stroke-width="5" d="m280.08809,643.92269l0.56913,0l0.17587,-0.54067l0.17587,0.54067l0.56913,0l-0.46044,0.33415l0.17588,0.54067l-0.46044,-0.33416l-0.46044,0.33416l0.17588,-0.54067l-0.46044,-0.33415z" id="svg_30"/>
  <path stroke="#000" id="svg_2" d="m161.67857,541.31459c0.77229,-17.27468 35.8081,-8.75849 16.52011,-25.58823c6.4338,-20.76028 26.41133,-34.58618 38.4863,-52.39477c9.2567,-15.16087 30.10832,-33.43148 20.02562,-52.17691c-18.51685,-9.82433 -13.26213,-31.66833 9.38638,-26.87084c14.56393,-13.34387 15.56678,-35.63347 20.49498,-53.80215c4.47323,-21.74573 7.21057,-43.88548 6.49666,-66.10306c-26.54792,0.06438 -53.59482,-1.19926 -79.19914,-8.35183c4.95997,-19.70369 36.92936,-15.46921 50.02784,-27.57369c-12.17081,-10.8736 24.60526,-9.78624 14.98232,-26.98441c-0.66033,-19.6963 -16.28043,-25.39579 -28.79409,-39.75661c-16.71742,-22.44138 9.49143,-44.86441 24.04775,-60.03615c16.22521,-16.4894 34.78207,-34.05805 39.74827,-57.38034c-6.6817,-5.45422 -21.94486,-13.26364 -6.37041,-20.71969c21.27086,-3.58221 43.96334,-4.01865 64.80975,1.85797c13.8368,13.39283 -21.11949,14.12322 -6.07923,31.0096c17.83269,21.22875 -6.20983,32.18446 -20.40537,44.45551c-8.26272,10.36876 -32.92454,24.04266 -28.68149,34.79014c24.1452,-0.83626 38.21386,-24.0565 55.4364,-37.80355c18.89001,-24.06937 37.16476,14.82617 49.2443,28.04379c14.88119,20.0315 4.6145,46.95471 -17.80053,55.55754c-11.11698,11.37303 -18.49828,43.76871 8.10183,38.94578c15.44756,5.57804 -15.09958,6.17902 2.43596,11.33559c11.65331,4.44538 57.10405,14.60568 32.06607,28.23294c-21.25095,4.77213 -43.20257,4.57521 -64.79032,2.64809c-1.33127,32.57667 3.35428,65.02479 13.01899,96.18512c2.39887,8.86524 4.79777,17.73044 7.19666,26.59557c11.5441,-0.22685 35.37909,-2.73426 24.36388,16.14893c-23.17204,12.69544 -8.99076,39.4126 3.85444,54.61073c15.92215,19.99805 39.66762,38.71947 40.6847,66.09883c6.36807,3.77039 27.56133,14.12843 21.43105,22.23761c-101.4469,-0.51649 -202.95208,1.49295 -304.34731,-2.19899l-3.52098,-0.32086l-2.87138,-0.69176l0,0l-0.00002,0.00011z" fill="#2b2b2b"/>
 </g>

</svg>