<svg width="600" height="600" xmlns="http://www.w3.org/2000/svg">
 <g>
  <title>Layer 1</title>
  <ellipse fill="#fff" cx="299.99994" cy="299.49998" id="svg_1" rx="299.33331" ry="299.49997" stroke="#000"/>
  <path fill="none" stroke="#000" stroke-width="5" d="m280.08809,643.92269l0.56913,0l0.17587,-0.54067l0.17587,0.54067l0.56913,0l-0.46044,0.33415l0.17588,0.54067l-0.46044,-0.33416l-0.46044,0.33416l0.17588,-0.54067l-0.46044,-0.33415z" id="svg_30"/>
  <path id="svg_6" d="m-97.57258,98.16746c-0.0841,-0.01521 -0.1131,-0.12145 -0.06296,-0.1851c0.06654,-0.09844 0.20888,-0.1648 0.3204,-0.10269c0.00222,-0.34665 0.00094,-0.69332 0.00128,-1.03999c0.27807,-0.0561 0.55675,-0.10931 0.83493,-0.16492c-0.0006,0.38852 -0.0012,0.77704 -0.00181,1.16556c-0.04358,0.11751 -0.1844,0.199 -0.30701,0.16256c-0.073,-0.02185 -0.0905,-0.11608 -0.04985,-0.17381c0.05566,-0.08612 0.15927,-0.14525 0.26343,-0.12912c0.02972,-0.00301 0.07349,0.04512 0.06093,-0.00932c0,-0.23356 0,-0.46711 0,-0.70067c-0.25526,0.05139 -0.51102,0.10033 -0.7664,0.15116c-0.00114,0.28176 0.00283,0.56362 -0.00294,0.8453c-0.0176,0.09456 -0.11057,0.16004 -0.20029,0.17913c-0.02964,0.00353 -0.06005,0.00659 -0.08971,0.00191l0,0zm0.66587,-1.17572c0.13115,-0.02581 0.26237,-0.05131 0.39346,-0.07741c0.01668,-0.06647 -0.05798,-0.0233 -0.0945,-0.02168c-0.22394,0.04421 -0.448,0.08776 -0.67191,0.13213c-0.01668,0.06647 0.05798,0.0233 0.0945,0.02168c0.0928,-0.01829 0.18562,-0.03652 0.27844,-0.05473zm0,-0.11633c0.13115,-0.02581 0.26237,-0.05131 0.39346,-0.07741c0.01668,-0.06647 -0.05798,-0.0233 -0.0945,-0.02168c-0.22394,0.04421 -0.448,0.08776 -0.67191,0.13213c-0.01668,0.06647 0.05798,0.0233 0.0945,0.02168c0.0928,-0.01829 0.18562,-0.03652 0.27844,-0.05473z" stroke="#000" fill="#fff"/>
  <path stroke="#619E73" id="svg_17" d="m299.14773,5.03394c-164.58275,0 -297.99995,132.5218 -297.99995,295.99999c0,163.47818 133.41721,295.99999 297.99995,295.99999c164.58275,0 297.99995,-132.5218 297.99995,-295.99999c0,-163.47818 -133.41721,-295.99999 -297.99995,-295.99999zm0,530.88149c-130.42368,0 -236.48902,-105.37388 -236.48902,-234.88151c0,-129.528 106.06535,-234.90187 236.48902,-234.90187c130.42368,0 236.46852,105.35351 236.46852,234.90187c0,129.54836 -106.08585,234.88151 -236.46852,234.88151zm-0.0205,-456.36216c-11.33851,0 -20.48314,9.12398 -20.48314,20.36604l0,187.79523l-123.96503,53.8478c-10.37484,4.52126 -15.09068,16.53722 -10.53887,26.84244c3.3626,7.63726 10.86693,12.19926 18.76083,12.19926c2.74749,0 5.55649,-0.54988 8.22196,-1.73111l135.85714,-59.02078c0.10252,-0.04073 0.18453,-0.08146 0.26655,-0.1222l0.08201,-0.04073c0.30755,-0.1222 0.47158,-0.40732 0.75863,-0.50915c2.13238,-1.05903 4.12123,-2.30136 5.72052,-3.97138c0.69712,-0.69245 1.08669,-1.58855 1.61979,-2.38283c0.98417,-1.30343 2.07087,-2.58649 2.66547,-4.15467c0.49209,-1.22196 0.53309,-2.54575 0.77914,-3.84918c0.26655,-1.32379 0.77914,-2.48466 0.77914,-3.80845l0,-201.11462c0,-11.22169 -9.18563,-20.34567 -20.52415,-20.34567z" fill="#619E73"/>
 </g>

</svg>