<svg width="600" height="600" xmlns="http://www.w3.org/2000/svg">
 <g>
  <title>Layer 1</title>
  <path fill="#bfbf91" opacity="NaN" d="m66.56752,446.04791c0,0 230.98261,-182.80287 232.01977,-184.07982c0.37127,1.27695 232.76231,305.30699 232.39105,304.03006c0.37126,1.27693 -292.58229,28.2163 -292.95357,26.93937c0.37128,1.27693 -147.51393,-48.75333 -147.88522,-50.03026c0.37128,1.27693 -23.57204,-96.85935 -23.57204,-96.85935l0.00001,0z" id="svg_47" stroke="#ffffff"/>
  <path fill="#ffd4aa" stroke-width="2" opacity="NaN" d="m456.25611,173.71695l-204.68185,38.10877l108.43949,41.93513l-63.78794,125.80542l121.19708,167.74053l38.83322,-373.58985z" id="svg_49" stroke="#ffffff" transform="rotate(-40 353.915 360.512)"/>
  <path transform="rotate(50 395.618 37.29)" fill="#c5c5f9" opacity="NaN" d="m134.77548,233.50185l351.21495,-392.844l170.47082,337.37937l-332.69306,55.88493l-188.99271,-0.4203z" id="svg_48" stroke-width="2" stroke="#ffffff"/>
  <path fill="#f9cae1" stroke="#ffffff" stroke-width="2" opacity="NaN" d="m480.64611,579.79963l-108.82042,-306.56408l192.955,-184.50441l35.21077,173.23697l-4.22529,195.77186l-115.12005,122.05967l-0.00001,-0.00001z" id="svg_46"/>
  <path fill="#f9cae1" stroke="#ffffff" stroke-width="2" opacity="NaN" d="m69.38439,106.56696l84.13455,242.72384l-84.50584,209.85616l-66.19624,-139.43463l-1.40843,-250.70065l67.97596,-62.44472z" id="svg_45"/>
  <path fill="none" stroke="#000" stroke-width="5" d="m280.08809,643.92269l0.56913,0l0.17587,-0.54067l0.17587,0.54067l0.56913,0l-0.46044,0.33415l0.17588,0.54067l-0.46044,-0.33416l-0.46044,0.33416l0.17588,-0.54067l-0.46044,-0.33415z" id="svg_30"/>
  <path id="svg_6" d="m-97.57258,98.16746c-0.0841,-0.01521 -0.1131,-0.12145 -0.06296,-0.1851c0.06654,-0.09844 0.20888,-0.1648 0.3204,-0.10269c0.00222,-0.34665 0.00094,-0.69332 0.00128,-1.03999c0.27807,-0.0561 0.55675,-0.10931 0.83493,-0.16492c-0.0006,0.38852 -0.0012,0.77704 -0.00181,1.16556c-0.04358,0.11751 -0.1844,0.199 -0.30701,0.16256c-0.073,-0.02185 -0.0905,-0.11608 -0.04985,-0.17381c0.05566,-0.08612 0.15927,-0.14525 0.26343,-0.12912c0.02972,-0.00301 0.07349,0.04512 0.06093,-0.00932c0,-0.23356 0,-0.46711 0,-0.70067c-0.25526,0.05139 -0.51102,0.10033 -0.7664,0.15116c-0.00114,0.28176 0.00283,0.56362 -0.00294,0.8453c-0.0176,0.09456 -0.11057,0.16004 -0.20029,0.17913c-0.02964,0.00353 -0.06005,0.00659 -0.08971,0.00191l0,0zm0.66587,-1.17572c0.13115,-0.02581 0.26237,-0.05131 0.39346,-0.07741c0.01668,-0.06647 -0.05798,-0.0233 -0.0945,-0.02168c-0.22394,0.04421 -0.448,0.08776 -0.67191,0.13213c-0.01668,0.06647 0.05798,0.0233 0.0945,0.02168c0.0928,-0.01829 0.18562,-0.03652 0.27844,-0.05473l0.00001,0.00001zm0,-0.11633c0.13115,-0.02581 0.26237,-0.05131 0.39346,-0.07741c0.01668,-0.06647 -0.05798,-0.0233 -0.0945,-0.02168c-0.22394,0.04421 -0.448,0.08776 -0.67191,0.13213c-0.01668,0.06647 0.05798,0.0233 0.0945,0.02168c0.0928,-0.01829 0.18562,-0.03652 0.27844,-0.05473l0.00001,0.00001z" stroke="#000" fill="#fff"/>
  <path fill="#000000" stroke="null" opacity="NaN" id="svg_2"/>
  <path fill="#c5f7dd" stroke-width="2" opacity="NaN" d="m-43.29006,86.56725l193.99214,250.04767l254.92594,-225.3489l-243.6585,-90.13956" id="svg_39" stroke="#ffffff"/>
  <path fill="#ffffaa" stroke="#ffffff" stroke-width="2" opacity="NaN" d="m53.89165,478.58041l192.58371,-185.62684l-246.47536,4.22529l53.89165,181.40155z" id="svg_40"/>
  <path fill="#ffd4aa" stroke="#ffffff" stroke-width="2" opacity="NaN" d="m573.60252,152.76347l-135.5806,34.5578l71.82996,38.02763l-42.25292,114.08288l80.28055,152.11051l25.72301,-338.77881l0,-0.00001z" id="svg_41"/>
  <path fill="#c5f7dd" stroke="#ffffff" stroke-width="2" opacity="NaN" d="m79.2434,676.32408l72.86711,-165.06377l232.39105,8.45058l47.88664,111.26602l-66.19624,142.25149l-286.94856,-96.90433l0,0.00001z" id="svg_42"/>
  <path fill="#ffffaa" stroke="#ffffff" stroke-width="2" opacity="NaN" d="m170.79139,36.61491l127.79591,123.94618l135.20934,16.90117l59.15409,-87.3227l26.76018,-66.19624l-348.91952,12.67159z" id="svg_44"/>
  <path fill="#c5c5f9" opacity="NaN" d="m90.51084,405.34203l179.90784,-267.31582l87.3227,229.57419l-170.42011,38.02763l-96.81043,-0.286z" id="svg_37" stroke="#ffffff" stroke-width="2"/>
  <ellipse fill="none" stroke="#ffffff" stroke-width="99" cx="591.20791" cy="10.93452" id="svg_52" rx="55.63301" ry="34.50655"/>
  <ellipse fill="none" cx="299.66277" cy="298.11351" id="svg_51" rx="335.91067" ry="338.02331" stroke-width="99" stroke="#ffffff"/>
 </g><g><title>Layer 2</title>
  
  <path fill="none" stroke="#000" stroke-width="5" d="m280.08809,643.92269l0.56913,0l0.17587,-0.54067l0.17587,0.54067l0.56913,0l-0.46044,0.33415l0.17588,0.54067l-0.46044,-0.33416l-0.46044,0.33416l0.17588,-0.54067l-0.46044,-0.33415z" id="svg_30"/>
  <path stroke="null" id="svg_3" d="m161.35735,83.64568l-22.03582,0c0,0 -17.13901,-1.27638 -22.03582,15.31628c-8.72259,11.96565 -25.01983,6.70077 -29.38104,11.48713c-4.82039,0 -15.9148,2.23359 -14.6906,7.65797c1.2242,5.42455 4.89697,6.38176 3.67261,7.65814c-1.2242,1.27638 -4.5908,27.4416 27.54482,26.80341c0,0 3.3666,7.65797 18.36321,0c0,0 3.36644,-2.87178 9.18144,1.91441c5.81517,4.78636 17.44502,8.29633 20.1996,7.65814c2.75442,-0.63819 20.19944,30.31322 20.19944,74.66634c0,44.35329 23.5662,74.98552 31.21743,76.58108c0,0 18.59264,61.74332 19.28124,116.78586c0,0 4.5908,23.29344 -15.60863,22.97426c-10.90312,9.45301 -15.72351,15.91452 -9.18161,15.31628c0,0 2.52499,4.30751 7.34522,3.82899c2.08737,-0.77721 -16.87113,14.11965 -9.18161,13.40171c0,0 3.36676,10.21074 16.52683,3.82899c0,0 20.1996,1.91458 22.03582,-11.48713c1.83639,-13.40171 2.75458,-35.17933 11.01799,-32.54698c0,0 1.22404,-106.89413 11.01783,-114.87129c0,0 48.64941,4.18695 104.67011,-30.6324c15.9148,-9.89173 32.13546,-24.56982 34.88987,9.57255c2.75458,34.14237 52.02904,62.54118 58.76224,82.32448c6.7332,19.78346 10.40581,12.76351 9.18144,59.35022c0,0 -11.62985,-2.87178 -20.19944,7.65814c-5.509,5.74356 1.83639,5.74356 1.83639,5.74356c0,0 -4.28479,4.46718 9.18161,3.82915c0,0 1.83622,2.15367 11.01783,0c0,0 15.30262,0.9572 12.85422,-11.48713c0,0 0.91819,-70.83752 5.509,-67.00836c4.5908,3.82899 28.15684,26.16505 27.54465,74.66634c0,0 -10.40581,1.5954 -11.01783,13.40171c0,0 -5.20282,6.06258 1.83622,7.65814c0,0 9.87021,2.63236 12.85422,0c0,0 12.54837,4.46718 12.85422,-11.4873c0.30601,-15.95431 -10.09964,-71.31587 -5.50883,-84.23889c0,0 -39.48084,-23.93163 -45.90803,-97.64076c0,0 18.36321,62.54118 77.12545,51.69208c0,0 4.28479,-1.91441 -1.83639,-3.82899c-6.12118,-1.91458 -54.47745,4.78636 -66.10746,-57.43564c-8.493,-44.51279 -2.06581,-49.29898 -29.38104,-67.00836c-36.72626,-36.61522 -128.23614,0.31901 -156.08681,-11.48713c-25.70843,-13.40171 -26.62662,-13.64097 -55.08947,-22.97426c-29.15161,-16.03423 -24.17806,-34.46139 -45.90787,-59.35022c-16.6417,-23.33323 -16.83284,-20.74067 -18.36321,-22.97426c-1.53037,-2.23376 -0.30601,-12.76351 -20.19944,-15.31628z" fill="#2b2b2b"/>
 </g>

</svg>