<svg width="600" height="600" xmlns="http://www.w3.org/2000/svg">
 <g>
  <title>Layer 1</title>
  <ellipse fill="#fff" cx="299.99994" cy="299.49998" id="svg_1" rx="299.33331" ry="299.49997" stroke="#000"/>
  <path fill="none" stroke="#000" stroke-width="5" d="m280.08809,643.92269l0.56913,0l0.17587,-0.54067l0.17587,0.54067l0.56913,0l-0.46044,0.33415l0.17588,0.54067l-0.46044,-0.33416l-0.46044,0.33416l0.17588,-0.54067l-0.46044,-0.33415z" id="svg_30"/>
  <path id="svg_6" d="m-97.57258,98.16746c-0.0841,-0.01521 -0.1131,-0.12145 -0.06296,-0.1851c0.06654,-0.09844 0.20888,-0.1648 0.3204,-0.10269c0.00222,-0.34665 0.00094,-0.69332 0.00128,-1.03999c0.27807,-0.0561 0.55675,-0.10931 0.83493,-0.16492c-0.0006,0.38852 -0.0012,0.77704 -0.00181,1.16556c-0.04358,0.11751 -0.1844,0.199 -0.30701,0.16256c-0.073,-0.02185 -0.0905,-0.11608 -0.04985,-0.17381c0.05566,-0.08612 0.15927,-0.14525 0.26343,-0.12912c0.02972,-0.00301 0.07349,0.04512 0.06093,-0.00932c0,-0.23356 0,-0.46711 0,-0.70067c-0.25526,0.05139 -0.51102,0.10033 -0.7664,0.15116c-0.00114,0.28176 0.00283,0.56362 -0.00294,0.8453c-0.0176,0.09456 -0.11057,0.16004 -0.20029,0.17913c-0.02964,0.00353 -0.06005,0.00659 -0.08971,0.00191l0,0zm0.66587,-1.17572c0.13115,-0.02581 0.26237,-0.05131 0.39346,-0.07741c0.01668,-0.06647 -0.05798,-0.0233 -0.0945,-0.02168c-0.22394,0.04421 -0.448,0.08776 -0.67191,0.13213c-0.01668,0.06647 0.05798,0.0233 0.0945,0.02168c0.0928,-0.01829 0.18562,-0.03652 0.27844,-0.05473zm0,-0.11633c0.13115,-0.02581 0.26237,-0.05131 0.39346,-0.07741c0.01668,-0.06647 -0.05798,-0.0233 -0.0945,-0.02168c-0.22394,0.04421 -0.448,0.08776 -0.67191,0.13213c-0.01668,0.06647 0.05798,0.0233 0.0945,0.02168c0.0928,-0.01829 0.18562,-0.03652 0.27844,-0.05473z" stroke="#000" fill="#fff"/>
  <path stroke="#AF84A3" id="svg_14" d="m298.64835,1.51375c-164.95096,0 -298.66665,133.71568 -298.66665,298.66662c0,164.95094 133.7157,298.66662 298.66665,298.66662c164.95096,0 298.66665,-133.71568 298.66665,-298.66662c0,-164.95094 -133.7157,-298.66662 -298.66665,-298.66662zm64.89537,448.04103c-1.62341,1.31517 -3.76056,2.67144 -2.1577,4.25375c1.60286,1.60286 -1.84946,2.69199 -1.84946,3.49342s2.13715,5.05518 1.06857,6.90464c-1.06857,1.89056 -1.87001,4.58254 -2.67144,6.1854c-0.80143,1.58231 -2.69199,3.18517 -2.13715,5.58947c0.51374,2.38374 -2.13715,1.58231 -2.13715,3.98661c0,2.38374 2.38374,1.33572 1.84946,4.2743c-0.51374,2.95913 -1.84946,3.76056 -1.84946,5.85661c0,2.13715 1.31517,5.07573 1.31517,5.87716s-1.31517,3.49342 -3.18517,5.58947c-1.89056,2.13715 -3.18517,3.49342 -2.95913,4.78804c0.28769,1.33572 2.13715,2.95913 1.87001,3.78111c-0.26714,0.76033 -2.65089,3.45232 -2.38374,5.32232c0.28769,1.84946 2.65089,1.08912 3.18517,2.38374c0.53429,1.33572 -3.18517,2.42484 -1.60286,3.76056c1.60286,1.31517 3.76056,1.04803 3.20572,4.2743c-0.39044,2.30155 1.31517,3.34957 2.58924,4.0688c-18.30962,4.54144 -37.35902,7.23343 -57.066,7.23343c-130.69492,0 -236.99756,-106.30263 -236.99756,-236.99753c0,-42.59914 11.44608,-82.50629 31.19416,-117.07057c1.62341,-0.86308 2.81528,-1.41792 3.51397,-1.27407c1.33572,0.26714 1.62341,2.13715 3.76056,2.67144c2.13715,0.53429 4.00716,-1.60286 5.34287,-2.40429c1.31517,-0.80143 2.38374,-4.00716 1.04803,-3.74001c-1.33572,0.26714 -4.80859,0 -4.80859,0s3.76056,-2.13715 3.76056,-3.47287s0.51374,-3.47287 2.65089,-4.2743c2.1166,-0.82198 2.1166,-0.28769 0.78088,2.91803c-1.33572,3.20572 2.69199,1.87001 4.2743,0.53429s2.67144,-0.26714 5.58947,-2.13715c2.93858,-1.87001 2.93858,-2.93858 4.54144,-2.93858c1.60286,0 4.54144,2.93858 6.14431,1.87001c1.58231,-1.06857 6.14431,1.33572 8.81574,1.33572c2.65089,0 11.19949,3.47287 12.8229,3.47287c1.60286,0 6.41145,1.84946 6.67859,5.32232c0.26714,3.47287 1.84946,3.20572 3.45232,3.20572s5.34287,1.33572 5.34287,2.67144c0,1.33572 -1.06857,6.67859 1.60286,8.01431c2.65089,1.31517 5.07573,3.47287 6.14431,2.93858c1.06857,-0.53429 0,-4.78804 -1.31517,-5.34287c-1.33572,-0.53429 -0.55484,-2.40429 -1.06857,-3.47287c-0.53429,-1.04803 1.60286,-1.04803 2.40429,0.80143c0.80143,1.87001 2.93858,5.34287 4.2743,5.34287c1.31517,0 4.2743,3.20572 3.45232,5.07573c-0.80143,1.87001 0.80143,4.54144 3.20572,4.54144c2.38374,0 5.34287,3.74001 6.41145,4.00716c1.06857,0.26714 2.40429,1.60286 2.40429,2.40429c0,0.82198 1.33572,5.34287 1.33572,7.21288c0,1.84946 -0.82198,9.32948 -1.08912,12.26806s2.13715,8.01431 4.80859,10.68575c2.65089,2.67144 5.05518,7.74717 6.65804,8.81574c1.62341,1.06857 2.67144,4.00716 5.07573,3.74001c2.40429,-0.26714 4.00716,1.60286 6.14431,5.34287c2.13715,3.74001 4.2743,9.86377 5.87716,10.39805c1.60286,0.53429 4.2743,2.40429 2.91803,3.74001c-1.31517,1.31517 -3.45232,4.2743 -1.04803,4.2743c2.40429,0 3.20572,-1.33572 5.07573,1.08912c1.84946,2.38374 4.2743,3.71946 3.98661,5.34287c-0.26714,1.58231 2.13715,2.1166 3.20572,2.38374c1.06857,0.26714 3.47287,5.07573 5.87716,2.93858c2.40429,-2.13715 -3.18517,-5.32232 -4.80859,-6.69914c-1.60286,-1.31517 0,-4.25375 -3.74001,-7.19233c-3.74001,-2.93858 -3.20572,-5.07573 -5.87716,-7.21288c-2.67144,-2.13715 -4.78804,-4.00716 -2.13715,-5.87716c2.67144,-1.87001 2.93858,1.87001 4.00716,4.2743c1.06857,2.38374 6.65804,7.21288 9.06234,9.32948c2.40429,2.13715 6.69914,9.61717 8.01431,9.61717s5.07573,4.2743 5.07573,4.2743s2.1166,3.45232 1.31517,4.52089c-0.80143,1.06857 1.08912,5.07573 2.95913,6.1443c1.84946,1.06857 9.35003,4.52089 10.4186,5.07573c1.06857,0.55484 3.18517,4.54144 6.14431,4.54144c2.91803,0 5.07573,0.28769 5.87716,1.08912c0.80143,0.78088 3.18517,3.98661 4.80859,2.13715c1.60286,-1.89056 1.84946,-2.69199 4.2743,-2.69199c2.40429,0 3.45232,1.87001 4.78804,3.20572c1.33572,1.33572 5.07573,4.82914 6.94574,4.56199c1.87001,-0.26714 4.2743,2.13715 5.61002,1.31517s3.47287,0.51374 4.52089,1.06857c1.10967,0.53429 4.80859,2.42484 4.56199,5.58947c-0.26714,3.22627 2.1166,4.00716 3.74001,4.80859c1.60286,0.80143 3.74001,2.67144 5.09628,4.00716c1.31517,1.29462 4.2332,1.58231 5.05518,2.38374c0.80143,0.80143 1.33572,2.40429 3.74001,1.06857c2.38374,-1.31517 1.89056,-3.71946 1.89056,-3.71946s2.65089,-0.53429 3.98661,0.53429c1.31517,1.02748 2.13715,4.52089 2.95913,5.05518c0.78088,0.53429 2.36319,4.54144 1.29462,7.43892c-1.04803,2.97968 -0.78088,5.87716 -1.87001,5.87716c-1.06857,0 -2.38374,3.49342 -4.00716,4.29485c-1.56176,0.80143 -5.85661,4.54144 -5.58947,5.87716c0.26714,1.29462 2.69199,5.30177 2.13715,7.19233c-0.51374,1.87001 -3.98661,4.00716 -3.16463,6.94574c0.78088,2.95913 6.41145,3.76056 6.63749,6.41145c0.28769,2.69199 4.29485,8.56915 4.82914,11.22003c0.51374,2.67144 5.05518,5.58947 5.05518,9.30893c0,3.78111 6.41145,6.16485 7.74717,6.41145c1.29462,0.26714 3.74001,2.69199 5.58947,3.49342s3.47287,2.38374 4.78804,4.54144s1.08912,5.36342 1.08912,6.1443c0,0.80143 -0.80143,9.04179 -1.60286,13.85037c-0.82198,4.82914 1.02748,8.56915 -0.55484,9.92541zm-172.45153,-248.25866c0.80143,0.26714 2.40429,1.87001 3.20572,1.87001c0.82198,0 4.80859,3.20572 5.87716,4.2743c1.08912,1.06857 1.08912,4.00716 -0.26714,4.2743s-2.13715,-2.93858 -2.40429,-4.2743c-0.26714,-1.33572 -2.93858,-1.33572 -4.2743,-2.13715c-1.33572,-0.80143 -4.3154,-4.74694 -2.13715,-4.00716zm344.08108,107.30956c-2.95913,3.74001 -2.67144,5.58947 -4.00716,5.87716c-1.31517,0.26714 1.33572,1.33572 1.84946,3.98661c0.45209,2.30155 -1.33572,4.60309 1.29462,6.71969c-9.98706,94.9182 -76.2387,173.31459 -164.72491,201.11808c-0.14385,-0.22604 -0.39044,-0.51374 -0.43154,-0.69868c-0.55484,-1.60286 -0.55484,-4.78804 1.31517,-5.85661c1.87001,-1.08912 6.41145,-4.78804 7.45947,-5.58947c1.06857,-0.82198 2.67144,-4.54144 1.87001,-5.07573c-0.78088,-0.53429 -4.76749,0 -5.34287,-0.80143c-0.53429,-0.80143 -0.53429,-1.89056 2.13715,-3.74001c2.67144,-1.87001 4.00716,-4.56199 5.07573,-5.34287c1.06857,-0.80143 3.18517,-2.40429 4.00716,-4.29485c0.78088,-1.84946 -0.84253,-0.80143 -2.42484,-0.80143s-2.40429,-2.91803 -2.40429,-4.25375s4.00716,0.53429 6.96629,1.06857c2.93858,0.49319 1.58231,-1.33572 1.31517,-2.91803c-0.26714,-1.60286 0.53429,-4.29485 2.1577,-3.49342c1.56176,0.80143 9.84322,-0.26714 10.91179,-0.53429c1.06857,-0.26714 3.98661,-5.05518 5.05518,-6.41145c1.08912,-1.33572 1.31517,-2.65089 0,-3.45232c-1.33572,-0.82198 -2.93858,-3.78111 -3.45232,-4.54144c-0.53429,-0.84253 -0.80143,-5.63057 -0.26714,-6.98683c0.51374,-1.29462 0,7.74717 3.71946,8.83629c3.76056,1.06857 5.87716,1.60286 9.35003,-1.60286c3.47287,-3.18517 6.12376,-5.34287 6.41145,-7.45947c0.26714,-2.13715 1.06857,-4.29485 2.40429,-5.05518c1.33572,-0.80143 2.13715,2.1166 3.74001,-1.33572c1.60286,-3.49342 3.20572,-3.22627 4.80859,-6.1443c1.58231,-2.95913 -2.67144,-6.67859 0.49319,-8.83629c3.22627,-2.1166 8.83629,-4.78804 8.83629,-4.78804s1.60286,-0.80143 4.80859,-1.60286c3.18517,-0.78088 6.65804,-0.28769 7.72662,-1.84946c1.06857,-1.62341 2.13715,-5.07573 3.74001,-6.94574c1.62341,-1.89056 3.47287,-4.80859 2.67144,-6.1443c-0.80143,-1.33572 2.13715,-7.23343 1.87001,-8.81574c-0.26714,-1.60286 -2.67144,-5.36342 1.33572,-8.5486s8.26091,-8.03486 8.5486,-9.32948c0.24659,-1.33572 3.47287,-6.94574 3.16463,-9.63772c-0.24659,-2.65089 -3.16463,-5.85661 -5.03463,-6.67859c-1.89056,-0.76033 -5.87716,-1.02748 -7.48002,-3.16462s-6.14431,-4.2743 -7.74717,-3.74001c-1.58231,0.53429 -4.2743,1.04803 -6.41145,-0.30824c-2.13715,-1.29462 -5.58947,-2.93858 -6.92519,-3.98661c-1.35627,-1.04803 -4.80859,-1.84946 -6.41145,-1.84946s-1.33572,-1.08912 -3.74001,2.1166c-2.40429,3.22627 0,4.29485 -4.2743,3.74001c-4.29485,-0.49319 0.51374,-0.78088 2.95913,-3.98661c2.36319,-3.18517 -0.28769,-5.07573 -2.95913,-4.25375c-2.67144,0.80143 -0.80143,2.40429 -5.07573,3.20572c-4.25375,0.78088 -4.25375,-1.89056 -1.58231,-2.40429c2.67144,-0.53429 7.45947,-2.93858 7.45947,-3.98661c0,-1.08912 -0.53429,-4.0277 -2.67144,-4.0277s-1.60286,-2.65089 -4.78804,-6.10321c-3.20572,-3.49342 -7.21288,-5.63057 -10.43915,-5.11683c-3.16463,0.53429 -5.58947,1.33572 -7.19233,-1.56176c-1.60286,-2.95913 -3.47287,-3.49342 -4.56199,-5.07573c-1.04803,-1.60286 -3.74001,0 -4.54144,-0.80143s-0.80143,-0.80143 -0.80143,-0.80143s-3.47287,0.80143 -1.58231,-1.60286c1.84946,-2.40429 2.65089,-6.94574 1.84946,-6.67859c-0.78088,0.26714 -2.13715,4.0277 -3.45232,3.76056c-1.31517,-0.26714 -0.28769,-0.82198 -2.95913,-2.40429c-2.67144,-1.60286 -6.92519,-0.26714 -6.92519,1.06857c0,1.33572 -1.33572,2.40429 -1.33572,2.40429s-0.80143,-0.78088 -1.60286,-2.40429c-0.80143,-1.60286 -4.54144,-1.87001 -6.41145,-0.26714c-1.84946,1.60286 -2.91803,-4.0277 -4.25375,-4.0277s-3.98661,1.33572 -5.34287,3.78111c-1.31517,2.38374 -0.78088,5.85661 -1.89056,5.58947c-1.02748,-0.26714 -1.29462,-4.78804 -1.02748,-6.41145c0.24659,-1.62341 3.18517,-4.2743 1.02748,-4.80859c-2.1166,-0.53429 -5.32232,2.67144 -6.63749,2.93858c-1.33572,0.26714 -4.00716,2.13715 -5.61002,4.29485c-1.58231,2.1166 -2.38374,3.45232 -4.00716,4.25375c-1.58231,0.80143 -3.96606,0 -3.43177,-0.80143c0.51374,-0.80143 -4.56199,-3.71946 -5.36342,-2.67144c-0.82198,1.06857 -3.18517,1.87001 -5.58947,2.95913c-2.40429,1.06857 -4.56199,-1.33572 -5.07573,-2.40429s-1.62341,-1.31517 -1.87001,-4.80859c-0.26714,-3.45232 0.55484,-7.21288 1.33572,-9.32948c0.78088,-2.13715 -4.00716,-6.41145 -5.87716,-6.16485c-1.87001,0.30824 -3.74001,2.1577 -5.58947,1.87001c-1.89056,-0.24659 -1.06857,-0.78088 -4.00716,-0.78088c-2.93858,0 -0.53429,-0.51374 0,-2.93858c0.51374,-2.38374 -1.06857,-5.61002 1.89056,-7.74717c2.91803,-2.13715 1.87001,-7.21288 0,-7.45947c-1.89056,-0.28769 -5.36342,0.80143 -7.74717,0.53429c-2.38374,-0.28769 -4.2743,1.87001 -3.47287,4.25375c0.80143,2.40429 -1.33572,4.00716 -2.13715,3.76056c-0.80143,-0.26714 -1.84946,-1.60286 -4.80859,0.53429c-2.91803,2.1166 -3.98661,1.31517 -6.92519,-1.06857c-2.93858,-2.42484 -6.14431,-4.80859 -6.67859,-8.5486c-0.53429,-3.74001 -0.82198,-7.48002 0.26714,-9.61717c1.04803,-2.13715 1.04803,-5.85661 -0.53429,-6.41145c-1.60286,-0.51374 1.84946,-3.18517 3.71946,-3.71946c1.89056,-0.53429 4.80859,-2.93858 5.34287,-4.00716c0.53429,-1.06857 3.20572,-0.82198 6.12376,-0.82198c2.93858,0 3.47287,0 6.41145,1.60286c2.93858,1.60286 3.47287,-0.80143 3.47287,-1.60286c0,-0.80143 1.06857,-2.40429 4.2743,-2.13715c3.20572,0.26714 7.72662,-1.06857 8.5486,-0.26714s2.38374,4.00716 3.98661,2.93858c1.62341,-1.04803 2.13715,-2.93858 2.69199,0.28769c0.51374,3.18517 1.84946,8.01431 4.2743,8.81574c2.38374,0.80143 1.06857,3.98661 3.45232,4.25375c2.36319,0.26714 3.49342,-5.05518 2.69199,-6.92519c-0.82198,-1.84946 -2.42484,-7.45947 -3.76056,-8.79519c-1.31517,-1.33572 -1.31517,-4.80859 1.31517,-5.87716c2.67144,-1.06857 9.08289,-6.41145 10.93234,-7.99376c1.89056,-1.62341 6.94574,-2.95913 5.36342,-5.09628c-1.60286,-2.13715 -2.13715,-3.45232 -2.13715,-5.07573s1.60286,-1.06857 2.40429,0s3.98661,-1.60286 3.18517,-2.93858c-0.78088,-1.31517 -0.53429,-3.18517 1.33572,-2.93858c1.87001,0.26714 2.38374,-1.33572 1.60286,-2.40429c-0.80143,-1.06857 1.87001,-2.40429 3.74001,-1.87001c1.89056,0.53429 6.67859,-0.26714 7.48002,-1.33572c0.78088,-1.06857 -1.60286,-2.13715 -1.60286,-4.2743c0,-2.13715 3.18517,-4.00716 5.07573,-4.2743c1.87001,-0.26714 4.25375,0 4.54144,-0.80143c0.24659,-0.80143 2.93858,-2.93858 3.18517,-1.06857c0.28769,1.87001 0,5.07573 2.13715,5.07573c2.13715,0 4.76749,-2.40429 5.58947,-2.65089c0.78088,-0.26714 5.87716,-1.33572 6.94574,-1.60286c1.06857,-0.26714 7.45947,-0.80143 6.67859,-2.67144c-0.80143,-1.84946 -1.60286,-3.71946 -2.42484,-4.52089c-0.80143,-0.80143 -1.58231,0.26714 -2.67144,1.60286c-1.04803,1.33572 -2.93858,1.33572 -3.45232,0.26714c-0.53429,-1.04803 0.24659,-4.25375 -1.60286,-3.20572c-1.89056,1.06857 -2.13715,2.13715 -3.22627,1.60286c-1.06857,-0.53429 -2.1166,-2.40429 -2.1166,-2.40429s2.65089,-1.31517 0.78088,-3.74001c-1.84946,-2.40429 -4.54144,-1.87001 -7.19233,-0.51374c-2.67144,1.31517 -2.42484,1.04803 -5.61002,1.84946s-4.80859,1.60286 -4.80859,1.60286s4.29485,-2.65089 6.14431,-4.2743c1.87001,-1.60286 4.29485,-2.40429 5.87716,-4.00716c1.60286,-1.60286 5.85661,0.80143 5.85661,0.80143s2.1577,-2.13715 2.1577,-0.80143s-0.55484,4.80859 1.04803,4.80859c1.62341,0 6.14431,-2.13715 4.3154,-2.69199c-1.9111,-0.53429 2.65089,0 4.50034,-1.33572c1.89056,-1.33572 3.98661,-1.33572 5.07573,-1.84946c1.06857,-0.53429 1.89056,-2.93858 3.74001,-2.93858c1.89056,0 2.67144,2.40429 0,4.00716s-2.93858,5.61002 -4.2743,6.67859c-1.31517,1.06857 -0.53429,2.40429 1.60286,2.13715c2.13715,-0.26714 3.98661,0.26714 5.87716,-0.26714s2.93858,0.53429 3.45232,1.33572c0.53429,0.80143 2.13715,-0.80143 2.13715,-0.80143s3.47287,-0.80143 4.54144,0.53429c1.08912,1.31517 1.89056,-0.80143 1.08912,-2.13715c-0.80143,-1.31517 -1.89056,-2.65089 -2.67144,-4.2743c-0.80143,-1.60286 -1.87001,-2.13715 -3.98661,-1.60286c-2.13715,0.53429 -2.67144,-0.53429 -4.00716,-1.31517c-1.33572,-0.82198 -2.42484,1.06857 -1.33572,-0.82198c1.08912,-1.84946 1.60286,-2.40429 2.40429,-4.00716c0.80143,-1.60286 4.29485,-4.54144 0.80143,-5.32232c-3.47287,-0.82198 -4.56199,-1.33572 -5.07573,-2.93858c-0.53429,-1.60286 -4.54144,-4.54144 -5.58947,-4.54144c-1.08912,0 -4.78804,0 -5.07573,-1.33572c-0.26714,-1.33572 -2.93858,-4.2743 -4.2743,-5.61002c-1.31517,-1.33572 -6.41145,-7.21288 -7.21288,-7.74717c-0.80143,-0.53429 -1.87001,-0.26714 -4.2743,2.93858c-2.38374,3.22627 -4.52089,3.76056 -6.41145,2.95913c-1.87001,-0.80143 -2.13715,-0.53429 -3.96606,-2.67144c-1.9111,-2.13715 1.84946,-2.40429 1.04803,-3.74001c-0.82198,-1.31517 -5.07573,-1.87001 -7.74717,-2.13715c-2.67144,-0.26714 -4.54144,-3.20572 -8.5486,-3.47287c-3.98661,-0.26714 -8.79519,0.53429 -10.13091,0.53429c-1.31517,0 -1.31517,1.87001 -1.84946,4.80859c-0.55484,2.93858 1.84946,3.74001 -0.55484,4.2743c-2.38374,0.53429 -3.47287,0.80143 -1.06857,1.87001c2.40429,1.06857 5.61002,5.34287 5.61002,5.34287s0,2.40429 -1.89056,3.74001c-1.84946,1.33572 -3.74001,2.67144 -4.78804,1.08912c-1.08912,-1.62341 -4.00716,-1.33572 -3.18517,0.26714c0.78088,1.60286 2.38374,2.40429 2.38374,4.00716c0,1.58231 2.40429,5.58947 0.80143,6.92519c-1.60286,1.33572 -3.45232,0.28769 -4.78804,0.53429s-2.69199,-2.13715 -1.60286,-2.67144c1.04803,-0.53429 -0.28769,-4.54144 -0.28769,-4.54144s-3.18517,4.54144 -2.93858,2.13715c0.28769,-2.40429 -1.31517,-2.67144 -1.31517,-4.54144c0,-1.87001 -1.62341,-2.67144 -3.98661,-2.13715c-2.42484,0.53429 -5.34287,-0.82198 -9.90487,-1.62341c-4.52089,-0.80143 -6.3909,-1.31517 -10.13091,-3.20572c-3.74001,-1.87001 -5.07573,-0.53429 -6.94574,-0.26714c-1.87001,0.26714 -1.06857,-3.74001 -3.47287,-4.25375c-2.38374,-0.55484 -3.71946,0.51374 -4.25375,-2.95913c-0.53429,-3.45232 0.80143,-4.2743 6.65804,-8.01431c5.87716,-3.74001 5.07573,-5.34287 9.61717,-5.87716c4.52089,-0.53429 6.67859,0.53429 6.67859,-0.80143s1.06857,-6.67859 1.06857,-4.00716s5.38397,2.83583 2.95913,4.70584c-2.38374,1.87001 -1.06857,2.13715 0.82198,2.13715c1.87001,0 5.32232,-1.87001 5.32232,-1.87001s4.2743,-1.87001 5.34287,-0.26714c1.08912,1.60286 1.08912,3.20572 2.95913,3.20572s5.85661,-2.13715 2.38374,-4.00716c-3.45232,-1.87001 -5.58947,-1.60286 -7.72662,-3.74001s-1.60286,-1.33572 -4.00716,-0.80143c-2.38374,0.53429 -2.38374,-0.80143 -3.20572,-0.80143s-2.13715,0.53429 -2.67144,-0.53429c-0.51374,-1.06857 0.28769,-1.33572 2.97968,-1.33572c2.65089,0 5.85661,0.80143 5.85661,0.80143s3.18517,-1.06857 3.98661,-1.33572c0.80143,-0.26714 5.07573,-0.80143 4.2743,-3.18517c-0.82198,-2.40429 -3.47287,-2.40429 -4.2743,-3.20572s1.60286,-1.84946 2.93858,-2.40429c1.33572,-0.53429 5.07573,0 5.07573,0s2.40429,0.26714 2.40429,-0.80143s-0.57539,-2.40429 1.04803,-1.60286s0,3.20572 2.40429,2.67144c2.38374,-0.53429 2.93858,0 4.25375,0.80143c1.33572,0.80143 -0.26714,4.00716 -1.58231,4.54144c-1.33572,0.51374 -3.47287,1.58231 -0.53429,1.84946c2.95913,0.28769 5.05518,0.28769 5.05518,0.28769s1.89056,-1.87001 2.69199,-3.47287c0.78088,-1.60286 2.13715,-0.53429 3.18517,0c1.06857,0.51374 5.07573,1.33572 1.33572,2.40429c-3.76056,1.06857 -4.54144,2.40429 -5.34287,3.74001c-0.78088,1.33572 -1.08912,2.13715 -4.54144,1.33572c-3.49342,-0.80143 -5.34287,-0.53429 -6.14431,0.80143c-0.80143,1.31517 -0.26714,5.61002 1.08912,5.07573c1.29462,-0.53429 2.65089,-0.53429 4.25375,-1.06857c1.60286,-0.53429 8.01431,0.53429 9.59662,0.26714c1.60286,-0.26714 4.29485,2.67144 5.09628,2.13715c0.80143,-0.53429 2.40429,1.06857 3.98661,2.13715c1.60286,1.06857 1.06857,-2.40429 3.98661,-0.26714c2.95913,2.13715 1.33572,2.13715 2.95913,2.13715c1.56176,0 5.05518,0.26714 5.05518,0.26714s0.28769,-2.65089 2.95913,-2.13715c2.67144,0.53429 5.03463,3.47287 4.76749,1.31517c-0.24659,-2.1166 0.26714,-3.71946 -1.84946,-5.32232c-2.13715,-1.60286 -5.58947,-2.67144 -6.14431,-3.47287c-0.53429,-0.80143 -1.06857,-1.87001 -0.26714,-2.40429c0.80143,-0.51374 4.54144,0.26714 6.65804,1.62341c2.13715,1.33572 4.00716,2.67144 5.61002,1.60286c1.58231,-1.06857 3.49342,-1.60286 4.2743,-2.40429c0.78088,-0.82198 2.67144,-3.20572 2.67144,-3.20572s-8.03486,-1.04803 -9.06234,-2.40429c-1.08912,-1.33572 -4.82914,-3.20572 -5.89771,-3.20572s-3.98661,1.87001 -5.05518,-0.80143s-1.06857,-5.87716 -2.1577,-6.1443c-1.02748,-0.26714 -12.26806,-1.87001 -13.85037,-2.67144c-1.60286,-0.80143 -8.01431,-2.67144 -10.4186,-4.00716s-5.87716,-3.20572 -7.99376,-3.20572c-2.13715,0 -10.95289,1.06857 -12.55575,0.80143c-1.60286,-0.26714 -6.41145,0.53429 -8.28145,0.80143c-1.87001,0.26714 2.40429,3.74001 -1.58231,4.54144c-4.00716,0.80143 -3.47287,1.33572 -2.67144,-2.67144c0.78088,-4.00716 -2.69199,-5.07573 -6.14431,-3.47287c-3.47287,1.60286 -9.08289,2.67144 -7.74717,4.54144c1.33572,1.87001 -0.24659,3.22627 2.40429,5.07573c2.67144,1.87001 3.76056,2.40429 7.19233,2.13715c3.49342,-0.26714 6.96629,0.51374 6.96629,0.51374s0,3.22627 -1.31517,3.74001c-1.33572,0.53429 -3.47287,0.53429 -4.0277,2.13715c-0.51374,1.60286 -3.18517,2.40429 -3.18517,1.60286s1.33572,-3.47287 -0.53429,-4.80859c-1.84946,-1.33572 -2.40429,-1.60286 -4.54144,-0.26714c-2.13715,1.33572 -2.38374,1.87001 -3.47287,-0.26714c-1.06857,-2.13715 -4.2743,-4.00716 -4.2743,-4.00716s-2.13715,-2.65089 -3.74001,-3.98661c-1.58231,-1.33572 -4.52089,-1.06857 -4.80859,0.26714c-0.26714,1.31517 0.53429,2.65089 1.60286,5.07573c1.06857,2.40429 2.13715,6.92519 0.26714,7.21288c-1.87001,0.26714 -2.13715,0.53429 -4.00716,1.06857c-1.87001,0.53429 -2.67144,-0.80143 -2.67144,-2.93858s-0.82198,-4.00716 -0.26714,-4.80859c0.53429,-0.80143 -2.13715,0.55484 -4.80859,0c-2.67144,-0.51374 -4.78804,1.06857 -2.13715,1.89056c2.67144,0.80143 3.22627,3.98661 0.80143,4.78804c-2.40429,0.80143 -11.48718,0 -14.42576,0s-7.19233,0.80143 -8.01431,-0.80143c-0.80143,-1.60286 2.42484,-2.65089 4.2743,-2.65089c1.87001,0 7.45947,0.24659 9.59662,-2.67144c2.13715,-2.93858 -2.67144,-3.47287 -4.78804,-3.47287c-2.13715,0 -3.76056,-0.80143 -6.14431,-3.18517c-2.42484,-2.40429 1.60286,-4.00716 1.06857,-5.07573c-0.53429,-1.06857 -3.20572,-0.28769 -5.58947,-0.28769c-2.40429,0 -6.14431,-1.84946 -6.14431,0.28769c0,2.13715 2.93858,8.2609 1.06857,6.92519c-1.87001,-1.31517 -1.60286,-3.20572 -2.93858,-4.80859c-1.33572,-1.60286 -3.45232,-1.33572 -6.14431,-1.06857c-2.65089,0.26714 -7.19233,1.06857 -8.52805,0.80143c-1.31517,-0.26714 -0.26714,-0.26714 -3.20572,-1.60286c-2.91803,-1.33572 -4.2743,-1.06857 -6.41145,-2.40429c-2.1166,-1.37682 -0.24659,-1.89056 -3.98661,-2.1577c-3.71946,-0.26714 -3.45232,1.84946 -7.19233,1.33572c-3.74001,-0.53429 -4.80859,0.26714 -8.5486,0c-3.74001,-0.26714 -5.58947,-0.53429 -6.14431,1.33572c-0.51374,1.87001 -1.60286,5.07573 -3.20572,5.07573c-1.58231,0 -3.47287,1.87001 1.60286,2.13715c5.07573,0.26714 2.1577,2.65089 6.67859,2.40429c4.54144,-0.26714 8.5486,-0.26714 9.61717,-2.40429c1.06857,-2.13715 1.87001,-2.13715 2.40429,-1.33572c0.51374,0.80143 4.52089,5.58947 4.52089,5.58947s2.69199,2.13715 3.76056,2.67144c1.04803,0.53429 -1.06857,2.93858 -3.20572,1.60286c-2.13715,-1.33572 -6.14431,-1.04803 -7.74717,-2.38374c-1.60286,-1.33572 -8.81574,-1.33572 -10.68575,-1.06857c-1.84946,0.26714 -5.07573,-0.80143 -6.14431,-0.80143c-1.04803,0 -4.54144,2.67144 -4.54144,2.67144s-1.33572,-2.1577 -2.1166,-3.22627c-0.80143,-1.06857 -2.13715,1.06857 -3.20572,1.33572c-1.06857,0.26714 -4.2743,-2.13715 -7.48002,-1.06857c-3.20572,1.06857 -2.13715,2.13715 -6.67859,1.87001s-5.58947,-1.06857 -7.19233,-0.80143c-1.62341,0.26714 -1.62341,0.26714 -1.62341,0.26714s0.26714,1.06857 -1.58231,2.13715c-1.87001,1.06857 -3.22627,2.40429 -4.56199,0.80143c-1.31517,-1.60286 -2.1166,-1.60286 -2.91803,-1.87001c-0.82198,-0.26714 -2.42484,-1.60286 -5.87716,-0.82198c-3.47287,0.82198 -8.81574,-1.04803 -9.86377,-1.04803c-0.82198,0 -6.432,-0.30824 -10.08981,-0.67813c43.33893,-47.09948 105.29572,-76.85518 174.21879,-76.85518c43.72937,0 84.60235,12.10366 119.80367,32.83812c-2.40429,1.47956 -6.5553,1.23297 -7.97321,0.47264c-1.60286,-0.88363 -3.24682,-1.60286 -9.76102,-1.25352c-6.5142,0.36989 -13.66543,2.50704 -12.22696,4.64419c1.47957,2.13715 -2.91803,3.39067 -4.04825,2.32209c-1.13022,-1.06857 -6.3498,1.23297 -6.02101,3.39067c0.32879,2.13715 -0.80143,4.62364 -3.59617,4.08935c-2.75364,-0.55484 -4.70584,1.23297 -4.87024,3.00023c-0.14385,1.78781 -6.3498,3.02078 -6.82244,3.02078c-0.49319,0 -8.4664,-0.1644 -5.54837,1.9522c1.9933,1.41792 3.08243,0.55484 5.54837,1.06857c2.44539,0.53429 4.3976,4.45924 5.69222,4.99353c1.27407,0.53429 3.08243,0 3.88386,-1.06857c0.82198,-1.06857 1.9522,-4.80859 1.9522,-4.80859s0,3.55507 1.9933,4.2743c1.9522,0.71923 6.80189,-0.53429 8.11706,-0.34934c1.31517,0.1644 8.98014,1.25352 11.05564,2.30155c2.13715,1.06857 7.31563,1.78781 8.79519,4.08935c1.45902,2.32209 1.64396,10.3364 2.44539,11.22003c0.82198,0.88363 3.57562,-2.85638 4.21265,-3.74001c0.63703,-0.90418 4.0688,-0.36989 5.21958,0.86308c1.15077,1.25352 3.74001,4.2743 3.59617,5.52782c-0.2055,1.27407 -0.67813,3.20572 -1.64396,2.50704c-0.98638,-0.69868 -2.60979,-0.51374 -1.97275,-1.9522c0.65758,-1.41792 0.98638,-4.45924 -0.30824,-4.45924c-1.31517,0 -2.44539,0 -2.44539,0s-2.46594,-0.71923 -4.08935,1.9522s-0.30824,5.34287 0.82198,5.34287s3.78111,0 3.78111,0.69868c0,0.71923 -2.79473,2.85638 -2.63034,4.1099c0.18495,1.25352 2.26045,5.50727 2.95913,6.41145c0.63703,0.88363 4.04825,1.76726 5.01408,1.97275c1.00693,0.1644 -2.281,0.34934 -1.43847,1.58231c0.82198,1.25352 2.09605,4.2743 3.88386,4.99353c1.78781,0.71923 6.84299,3.90441 7.45947,5.34287c0.65758,1.41792 4.56199,-1.06857 5.38397,-1.25352c0.82198,-0.1644 0.65758,3.74001 2.93858,3.92496c2.26045,0.1644 3.08243,-0.36989 5.03463,-1.97275s1.47957,-3.74001 1.62341,-5.34287c0.18495,-1.60286 0,-2.83583 2.13715,-2.32209c2.13715,0.53429 3.24682,-0.36989 3.08243,-2.13715c-0.1644,-1.78781 -1.9522,-3.92496 1.43847,-4.45924c3.43177,-0.53429 5.21958,-2.83583 7.33618,-2.83583c2.1166,0 7.99376,0.88363 8.61025,0c0.65758,-0.88363 3.43177,-4.99353 5.21958,-5.15793c1.37682,-0.14385 4.60309,-0.43154 7.91156,-0.86308c32.50933,38.73583 52.62731,88.03411 54.92885,141.89439c-2.42484,3.26737 -0.24659,6.2676 0.43154,8.3842c0.02055,0.61649 0.10275,1.19187 0.10275,1.80836c0,2.79473 -0.32879,5.52782 -0.43154,8.302c-0.02055,0.0411 -0.02055,0.0822 -0.06165,0.1233zm-199.65909,-88.89719c-1.31517,0.26714 -3.47287,-1.06857 -3.47287,-2.93858s-1.87001,3.47287 -0.82198,5.07573c1.08912,1.60286 -2.13715,3.47287 -3.18517,3.47287s-1.87001,-2.38374 -1.60286,-4.78804c0.28769,-2.40429 -1.58231,-4.54144 -4.54144,-4.2743c-2.93858,0.28769 -4.2743,2.67144 -5.32232,3.47287c-1.08912,0.80143 -1.08912,5.32232 -0.82198,6.41145s0.26714,4.82914 -2.38374,4.54144c-2.42484,-0.26714 -1.89056,-4.78804 -1.62341,-6.41145c0.28769,-1.60286 -0.80143,-5.61002 0.28769,-7.72662c1.08912,-2.13715 4.25375,-2.93858 6.41145,-3.20572s6.65804,1.33572 7.45947,1.06857c0.82198,-0.28769 4.56199,-0.28769 6.41145,0c1.87001,0.22604 4.52089,5.03463 3.20572,5.30177zm4.78804,0.80143c0.82198,0.53429 6.3909,-0.80143 7.48002,0.53429c1.04803,1.33572 -1.10967,1.60286 -3.76056,2.67144c-2.65089,1.06857 -3.47287,0.80143 -4.54144,2.13715s-4.54144,1.84946 -6.14431,3.45232c-1.60286,1.62341 -4.45924,2.56869 -5.05518,1.33572c-0.82198,-1.60286 0.26714,-0.80143 0.51374,-1.60286c0.26714,-0.80143 5.03463,-2.65089 5.03463,-2.65089s5.67167,-6.41145 6.4731,-5.87716zm-21.35095,-9.35003c-0.78088,0.26714 -3.74001,-0.53429 -6.16485,-0.53429c-2.38374,0 -1.87001,-1.60286 -2.93858,-1.31517c-1.04803,0.26714 -3.45232,0.80143 -5.07573,1.60286c-1.60286,0.80143 -4.2743,0.61649 -4.2743,-0.82198c0,-2.13715 1.06857,-1.60286 4.54144,-2.93858c3.47287,-1.33572 7.23343,-5.07573 8.81574,-3.47287c1.60286,1.60286 4.54144,3.47287 6.41145,3.74001c1.89056,0.28769 -0.53429,3.47287 -1.31517,3.74001zm-27.31031,-82.83509c-1.62341,0.53429 -7.13068,2.85638 -6.59639,4.08935c0.2055,0.47264 1.60286,1.41792 3.90441,1.06857c2.3221,-0.36989 5.67167,-0.71923 7.29508,-0.88363c1.60286,-0.18495 1.9522,-2.85638 0.18495,-3.02078c-1.78781,-0.18495 -3.20572,-1.78781 -4.78804,-1.25352zm-19.74808,2.13715c-1.25352,0.53429 -4.99353,-0.88363 -6.94574,0.36989c-1.25352,0.78088 -0.53429,3.37012 1.43847,3.53452c1.9522,0.18495 5.32232,-1.23297 5.67167,-0.1644c0.36989,1.06857 1.60286,5.87716 4.80859,4.2743c3.20572,-1.60286 3.02078,-3.02078 3.90441,-3.20572c0.88363,-0.18495 -0.1644,-4.08935 -1.60286,-4.99353c-1.41792,-0.88363 -6.04156,-0.34934 -7.27453,0.18495zm-6.432,-15.12444c0.34934,0.90418 -0.1644,1.60286 2.3221,1.9522c2.48649,0.36989 3.55507,0.71923 4.99353,0.71923c1.41792,0 0.86308,-2.32209 -0.36989,-3.90441c-1.25352,-1.60286 -0.88363,-1.41792 -4.08935,-2.32209c-3.20572,-0.88363 -6.41145,-0.88363 -8.5486,-0.71923c-2.13715,0.18495 -4.45924,-0.34934 -4.99353,2.13715c-0.26714,1.27407 1.43847,2.30155 3.57562,2.30155s6.76079,-1.04803 7.11013,-0.1644zm4.64419,9.78157c0.88363,1.9522 0.88363,1.04803 3.39067,1.25352c2.46594,0.18495 4.41815,-2.48649 4.60309,-3.37012c0.18495,-0.90418 -1.25352,-2.67144 -4.62364,-2.32209c-3.39067,0.34934 -13.70653,-0.53429 -15.12444,0.69868c-1.35627,1.19187 0,4.78804 -0.53429,5.15793c-0.53429,0.34934 0.18495,1.9522 1.58231,1.60286c1.41792,-0.34934 2.13715,-3.74001 3.22627,-3.74001c1.06857,0.02055 6.59639,-1.23297 7.48002,0.71923zm-33.47516,-7.29508c1.06857,0.88363 3.76056,0.1644 3.55507,-0.71923c-0.1644,-0.88363 1.08912,-4.45924 -1.04803,-4.62364c-2.13715,-0.1644 -5.13738,1.97275 -8.36365,3.04133c-2.0755,0.67813 -1.60286,2.67144 -0.18495,2.67144s4.99353,-1.25352 6.04156,-0.36989zm15.16554,3.20572c-1.78781,0.88363 -2.34264,1.41792 -3.92496,1.06857c-1.60286,-0.34934 -1.60286,-3.20572 -4.45924,-2.67144c-2.83583,0.53429 -3.37012,2.13715 -4.25375,2.85638s-2.85638,1.25352 -3.55507,0.88363c-0.69868,-0.34934 -4.80859,-2.65089 -4.80859,-2.65089s-8.5486,-0.36989 -8.89794,-1.43847c-0.34934,-1.06857 -1.76726,-2.83583 -5.69222,-2.48649s-10.68575,2.67144 -11.75432,2.67144c-1.06857,0 1.27407,2.13715 -0.18495,2.13715c-1.41792,0 -3.18517,-0.1644 -3.71946,1.41792c-0.36989,1.08912 1.60286,1.06857 3.88386,1.06857c2.30155,0 6.06211,0 7.13068,-0.53429c1.06857,-0.53429 6.41145,-1.78781 6.2265,-0.18495c-0.18495,1.62341 2.13715,4.08935 3.37012,3.74001c1.25352,-0.34934 3.76056,-2.67144 4.99353,-1.76726c1.25352,0.88363 1.43847,3.00023 2.67144,3.55507c1.25352,0.51374 4.64419,0.51374 6.24705,0c1.58231,-0.55484 6.04156,-0.55484 7.99376,-0.18495c1.9522,0.36989 7.66497,1.41792 8.19926,0.36989c0.53429,-1.08912 2.13715,-1.25352 2.30155,-2.32209s1.04803,-4.43869 1.04803,-4.43869s-1.04803,-1.97275 -2.81528,-1.08912zm90.10962,184.06199c-2.44539,0.43154 -1.87001,5.17848 1.06857,4.3154c2.93858,-0.86308 1.35627,-4.76749 -1.06857,-4.3154zm23.22095,-6.37035c-2.13715,-0.53429 -4.54144,0 -6.14431,0.26714c-1.60286,0.26714 -6.14431,4.2743 -6.14431,4.2743s2.93858,0.53429 4.78804,0.53429c1.89056,0 2.95913,1.04803 4.54144,1.84946c1.60286,0.82198 4.54144,-1.06857 5.58947,-1.06857c1.08912,0 2.42484,3.20572 2.69199,-0.26714c0.28769,-3.47287 -3.18517,-5.05518 -5.32232,-5.58947zm-74.3687,-173.068c-0.88363,-2.13715 -5.32232,-2.85638 -6.24705,-0.71923c-0.78088,1.87001 7.13068,2.85638 6.24705,0.71923zm50.90115,159.97796c2.93858,-0.53429 1.31517,-2.95913 -1.08912,-2.67144c-2.42484,0.26714 -1.87001,3.20572 1.08912,2.67144zm35.48901,16.50126c-2.44539,0.45209 -1.89056,5.19903 1.04803,4.33595c2.95913,-0.86308 1.35627,-4.76749 -1.04803,-4.33595zm-32.32439,-7.95266c-1.84946,0.26714 -5.85661,-1.84946 -7.99376,-3.74001c-2.13715,-1.87001 -6.14431,-1.87001 -7.74717,-1.87001c-1.58231,0 -8.01431,1.87001 -8.01431,1.87001c-0.26714,2.67144 2.40429,1.87001 5.61002,1.87001s8.81574,-0.53429 9.84322,0.80143c1.08912,1.31517 5.87716,3.45232 7.23343,4.54144c1.31517,1.06857 5.58947,1.33572 5.85661,0.26714s-2.91803,-4.00716 -4.78804,-3.74001zm-31.8312,-170.47876c-2.67144,-0.18495 -6.06211,-0.18495 -8.19926,0c-2.13715,0.1644 -3.74001,-1.41792 -5.34287,-2.32209c-1.58231,-0.88363 -5.15793,-3.74001 -7.27453,-4.08935c-2.13715,-0.34934 -1.76726,-0.34934 -6.2265,-1.41792c-2.26045,-0.55484 -6.04156,-1.25352 -6.04156,-1.76726c0,-0.53429 -1.06857,2.48649 0.88363,3.39067c1.9522,0.88363 5.15793,2.48649 7.45947,3.37012c2.34264,0.88363 6.76079,1.06857 8.19926,2.85638c1.41792,1.76726 6.2265,3.20572 6.2265,3.20572l5.69222,0.53429c0,0 3.92496,-0.88363 8.01431,-0.53429c4.08935,0.34934 10.13091,0.88363 13.54213,0.71923c3.34957,-0.1644 3.88386,-1.25352 4.2743,-1.9522c0.32879,-0.71923 -6.24705,-2.13715 -7.87046,-1.9522c-1.56176,0.1233 -10.68575,0.1233 -13.33664,-0.0411zm9.94597,40.93463c-0.69868,0.80143 3.22627,1.9522 3.92496,0.88363c0.69868,-1.04803 -2.09605,-2.83583 -3.92496,-0.88363zm11.95982,3.71946c1.76726,-0.71923 0.88363,-2.85638 -1.62341,-2.13715c-2.83583,0.82198 -0.18495,2.85638 1.62341,2.13715z" fill="#AF84A3"/>
 </g>

</svg>