<svg width="600" height="600" xmlns="http://www.w3.org/2000/svg">
 <g>
  <title>Layer 1</title>
  <path fill="#bfbf91" opacity="NaN" d="m66.56752,446.04791c0,0 230.98261,-182.80287 232.01977,-184.07982c0.37127,1.27695 232.76231,305.30699 232.39105,304.03006c0.37126,1.27693 -292.58229,28.2163 -292.95357,26.93937c0.37128,1.27693 -147.51393,-48.75333 -147.88522,-50.03026c0.37128,1.27693 -23.57204,-96.85935 -23.57204,-96.85935l0.00001,0z" id="svg_47" stroke="#ffffff"/>
  <path fill="#ffd4aa" stroke-width="2" opacity="NaN" d="m456.25611,173.71695l-204.68185,38.10877l108.43949,41.93513l-63.78794,125.80542l121.19708,167.74053l38.83322,-373.58985z" id="svg_49" stroke="#ffffff" transform="rotate(-40 353.915 360.512)"/>
  <path transform="rotate(50 395.618 37.29)" fill="#c5c5f9" opacity="NaN" d="m134.77548,233.50185l351.21495,-392.844l170.47082,337.37937l-332.69306,55.88493l-188.99271,-0.4203z" id="svg_48" stroke-width="2" stroke="#ffffff"/>
  <path fill="#f9cae1" stroke="#ffffff" stroke-width="2" opacity="NaN" d="m480.64611,579.79963l-108.82042,-306.56408l192.955,-184.50441l35.21077,173.23697l-4.22529,195.77186l-115.12005,122.05967l-0.00001,-0.00001z" id="svg_46"/>
  <path fill="#f9cae1" stroke="#ffffff" stroke-width="2" opacity="NaN" d="m69.38439,106.56696l84.13455,242.72384l-84.50584,209.85616l-66.19624,-139.43463l-1.40843,-250.70065l67.97596,-62.44472z" id="svg_45"/>
  <path fill="none" stroke="#000" stroke-width="5" d="m280.08809,643.92269l0.56913,0l0.17587,-0.54067l0.17587,0.54067l0.56913,0l-0.46044,0.33415l0.17588,0.54067l-0.46044,-0.33416l-0.46044,0.33416l0.17588,-0.54067l-0.46044,-0.33415z" id="svg_30"/>
  <path id="svg_6" d="m-97.57258,98.16746c-0.0841,-0.01521 -0.1131,-0.12145 -0.06296,-0.1851c0.06654,-0.09844 0.20888,-0.1648 0.3204,-0.10269c0.00222,-0.34665 0.00094,-0.69332 0.00128,-1.03999c0.27807,-0.0561 0.55675,-0.10931 0.83493,-0.16492c-0.0006,0.38852 -0.0012,0.77704 -0.00181,1.16556c-0.04358,0.11751 -0.1844,0.199 -0.30701,0.16256c-0.073,-0.02185 -0.0905,-0.11608 -0.04985,-0.17381c0.05566,-0.08612 0.15927,-0.14525 0.26343,-0.12912c0.02972,-0.00301 0.07349,0.04512 0.06093,-0.00932c0,-0.23356 0,-0.46711 0,-0.70067c-0.25526,0.05139 -0.51102,0.10033 -0.7664,0.15116c-0.00114,0.28176 0.00283,0.56362 -0.00294,0.8453c-0.0176,0.09456 -0.11057,0.16004 -0.20029,0.17913c-0.02964,0.00353 -0.06005,0.00659 -0.08971,0.00191l0,0zm0.66587,-1.17572c0.13115,-0.02581 0.26237,-0.05131 0.39346,-0.07741c0.01668,-0.06647 -0.05798,-0.0233 -0.0945,-0.02168c-0.22394,0.04421 -0.448,0.08776 -0.67191,0.13213c-0.01668,0.06647 0.05798,0.0233 0.0945,0.02168c0.0928,-0.01829 0.18562,-0.03652 0.27844,-0.05473l0.00001,0.00001zm0,-0.11633c0.13115,-0.02581 0.26237,-0.05131 0.39346,-0.07741c0.01668,-0.06647 -0.05798,-0.0233 -0.0945,-0.02168c-0.22394,0.04421 -0.448,0.08776 -0.67191,0.13213c-0.01668,0.06647 0.05798,0.0233 0.0945,0.02168c0.0928,-0.01829 0.18562,-0.03652 0.27844,-0.05473l0.00001,0.00001z" stroke="#000" fill="#fff"/>
  <path fill="#000000" stroke="null" opacity="NaN" id="svg_2"/>
  <path fill="#c5f7dd" stroke-width="2" opacity="NaN" d="m-43.29006,86.56725l193.99214,250.04767l254.92594,-225.3489l-243.6585,-90.13956" id="svg_39" stroke="#ffffff"/>
  <path fill="#ffffaa" stroke="#ffffff" stroke-width="2" opacity="NaN" d="m53.89165,478.58041l192.58371,-185.62684l-246.47536,4.22529l53.89165,181.40155z" id="svg_40"/>
  <path fill="#ffd4aa" stroke="#ffffff" stroke-width="2" opacity="NaN" d="m573.60252,152.76347l-135.5806,34.5578l71.82996,38.02763l-42.25292,114.08288l80.28055,152.11051l25.72301,-338.77881l0,-0.00001z" id="svg_41"/>
  <path fill="#c5f7dd" stroke="#ffffff" stroke-width="2" opacity="NaN" d="m79.2434,676.32408l72.86711,-165.06377l232.39105,8.45058l47.88664,111.26602l-66.19624,142.25149l-286.94856,-96.90433l0,0.00001z" id="svg_42"/>
  <path fill="#ffffaa" stroke="#ffffff" stroke-width="2" opacity="NaN" d="m170.79139,36.61491l127.79591,123.94618l135.20934,16.90117l59.15409,-87.3227l26.76018,-66.19624l-348.91952,12.67159z" id="svg_44"/>
  <path fill="#c5c5f9" opacity="NaN" d="m90.51084,405.34203l179.90784,-267.31582l87.3227,229.57419l-170.42011,38.02763l-96.81043,-0.286z" id="svg_37" stroke="#ffffff" stroke-width="2"/>
  <ellipse fill="none" stroke="#ffffff" stroke-width="99" cx="591.20791" cy="10.93452" id="svg_52" rx="55.63301" ry="34.50655"/>
  <ellipse fill="none" cx="299.66277" cy="298.11351" id="svg_51" rx="335.91067" ry="338.02331" stroke-width="99" stroke="#ffffff"/>
 </g><g><title>Layer 2</title>
  
  <path id="svg_30" d="m280.08809,643.92269l0.56913,0l0.17587,-0.54067l0.17587,0.54067l0.56913,0l-0.46044,0.33415l0.17588,0.54067l-0.46044,-0.33416l-0.46044,0.33416l0.17588,-0.54067l-0.46044,-0.33415z" stroke-width="5" stroke="#000" fill="none"/>
  <path stroke-width="0" id="svg_6" d="m-252.90143,447.40754c-0.00306,-0.12168 0.0572,-0.24123 0.15857,-0.30927c0.16528,-0.12562 0.38342,-0.18286 0.58847,-0.14827c0.10154,-0.01567 0.14648,0.08974 0.11076,0.17092c-0.05521,0.054 -0.15125,0.00264 -0.22276,0.03057c-0.23183,0.02985 -0.46067,0.13065 -0.61736,0.30774c-0.00096,-0.01895 -0.02521,-0.03157 -0.01768,-0.05168l0,0zm0.0028,0.10798c0.01234,-0.08584 0.09795,-0.13053 0.15747,-0.1827c0.20039,-0.14183 0.45158,-0.19807 0.69449,-0.18853c0.00602,0.0978 -0.04,0.19115 -0.09538,0.26863c-0.07604,0.04239 -0.17059,-0.00588 -0.2512,0.03271c-0.14137,0.03422 -0.29873,0.07734 -0.38921,0.20059c-0.03288,0.09897 -0.10237,-0.00176 -0.10775,-0.06002c-0.00764,-0.02314 -0.00658,-0.04692 -0.00844,-0.07069l0,0zm0.03881,-0.29352c0.0121,-0.1077 0.08308,-0.19675 0.1482,-0.27881c0.07341,-0.08746 0.17333,-0.15158 0.28563,-0.17506c0.08901,-0.02325 0.18074,-0.03292 0.272,-0.04268c0.06921,0.05316 0.11323,0.14559 0.10163,0.23302c-0.05375,0.01361 -0.14879,-0.03241 -0.22127,-0.02119c-0.20556,0.00194 -0.4157,0.08432 -0.55461,0.23802c-0.01157,0.01483 -0.02197,0.03055 -0.03158,0.04671l0,0zm-0.01102,0.42486c0.07687,0.06164 0.07939,0.16847 0.12662,0.24888c-0.05662,-0.07289 -0.10647,-0.15805 -0.12662,-0.24888zm0.06087,0.05872c0.02411,-0.06644 0.0997,-0.15982 0.16277,-0.15287c0.02521,0.06494 0.03613,0.13531 0.07711,0.19385c0.11003,0.20197 0.31138,0.3767 0.55075,0.3822c0.03915,0.00793 0.14292,-0.01843 0.1387,-0.00752c-0.10005,0.04914 -0.21588,0.05991 -0.32612,0.05596c-0.20473,-0.0136 -0.40865,-0.11193 -0.53173,-0.27829c-0.03483,-0.05975 -0.05463,-0.12668 -0.07149,-0.19331l0,-0.00001zm0.16851,-0.1694c0.05524,-0.02569 0.15874,-0.10384 0.20025,-0.04085c0.10131,0.19953 0.27258,0.36919 0.48343,0.44897c0.10947,0.03652 0.23263,0.03595 0.33938,-0.00963c-0.04452,0.06913 -0.1182,0.11346 -0.18763,0.15419c-0.17745,0.07574 -0.39196,0.03467 -0.54147,-0.08341c-0.14471,-0.11456 -0.25831,-0.27852 -0.29357,-0.46143l-0.00021,-0.00424l-0.00018,-0.00359l0,0l0,0zm0.07403,-0.71847c0.1343,-0.09237 0.30072,-0.1357 0.46305,-0.12419c-0.08309,0.05304 -0.18736,0.03289 -0.27848,0.0616c-0.06357,0.01384 -0.12666,0.03245 -0.18457,0.06259l0,0zm0.11596,0.65086c0.08842,-0.04185 0.18904,-0.04117 0.2846,-0.03545c0.05761,0.08973 0.09869,0.19402 0.18814,0.25871c0.10425,0.09309 0.25594,0.11936 0.38729,0.07562c0.04511,-0.03047 0.09519,-0.011 0.07055,0.04945c-0.02965,0.10037 -0.13495,0.14445 -0.23144,0.14932c-0.19741,0.01972 -0.378,-0.09243 -0.51135,-0.22789c-0.0778,-0.07789 -0.1435,-0.16871 -0.1878,-0.26975l0,0zm0.29986,-0.7463c0.07195,-0.05708 0.16994,-0.00543 0.24356,0.02189c0.07322,0.06265 0.08304,0.16689 0.10239,0.25589c0.03235,0.20891 0.01927,0.43334 -0.07845,0.62404c-0.02335,0.06685 -0.09046,0.10306 -0.13348,0.03079c-0.04999,-0.05513 -0.08821,-0.11928 -0.12428,-0.18386c-0.02133,-0.0618 0.0485,-0.10536 0.06312,-0.16187c0.02849,-0.05634 0.03574,-0.1197 0.03894,-0.18136c0.01343,-0.09224 0.00022,-0.18793 -0.02404,-0.27724c-0.01701,-0.04942 -0.04464,-0.09728 -0.08776,-0.12828l0,0zm0.2068,0.98667c0.14164,-0.16002 0.16409,-0.38724 0.15343,-0.59181c-0.00649,-0.12061 -0.02483,-0.24525 -0.08843,-0.35029c0.06572,0.00204 0.13641,0.06377 0.18791,0.10923c0.14595,0.18557 0.18887,0.45704 0.07791,0.67026c-0.04365,0.08622 -0.10277,0.16404 -0.17217,0.23115c-0.0581,-0.00477 -0.11699,-0.02676 -0.15865,-0.06854l0,0zm0.16152,0.06947c0.15253,-0.14702 0.263,-0.35831 0.23003,-0.57497c-0.01312,-0.10147 -0.05017,-0.1995 -0.10566,-0.28534c0.10162,0.06333 0.15813,0.17549 0.20896,0.27969c0.07306,0.18211 0.03334,0.40408 -0.09723,0.54963c-0.06705,0.03803 -0.16167,0.04385 -0.2361,0.03098zm0.25112,-0.034c0.05233,-0.09141 0.1117,-0.18407 0.11715,-0.29251c0.00813,-0.03626 -0.00448,0.07114 -0.00886,0.09374c-0.01392,0.0798 -0.03209,0.16497 -0.08155,0.23008c-0.01138,-0.00631 -0.0063,-0.03705 -0.02675,-0.03131l0,0z" stroke="null" fill="#2b2b2b"/>
  <path id="svg_7" d="m-62.23243,-9.53599c-0.00002,-0.01104 -0.00896,-0.01999 -0.02,-0.02l0,-0.00001l-0.06129,0c-0.00253,-0.00811 -0.01006,-0.01404 -0.01903,-0.01406l-0.01438,0c-0.01104,0.00001 -0.01999,0.00896 -0.02001,0.02l0,0.07094c0.00002,0.01103 0.00897,0.01998 0.02001,0.02l0.09469,0c0.01103,-0.00002 0.01998,-0.00897 0.02,-0.02l0,-0.05688l-0.00001,0zm-0.11468,-0.02407l0.01438,0c0.00523,-0.00002 0.00959,0.00417 0.00992,0.00938l0.00029,0.00469l0.07011,0c0.00547,0.00001 0.00999,0.00453 0.01,0.01l0,0.00248c-0.00296,-0.00173 -0.00634,-0.00279 -0.01,-0.00279l-0.09469,0c-0.00366,0.00001 -0.00705,0.00107 -0.01,0.0028l0,-0.01655c0.00002,-0.00547 0.00454,-0.00999 0.01001,-0.01zm0.09469,0.09094l-0.09469,0c-0.00547,-0.00001 -0.00999,-0.00454 -0.01001,-0.01l0,-0.03719l0.00001,0c0.00001,-0.00548 0.00453,-0.01 0.01,-0.01001l0.09469,0c0.00547,0.00001 0.00996,0.00451 0.01,0.00996l0,0.03724c-0.00002,0.00548 -0.00454,0.01 -0.01001,0.01001z" stroke="null" fill="#2b2b2b"/>
  <path id="svg_8" d="m522.39919,207.43733c-0.06287,-42.77107 -28.16592,-77.42571 -62.85465,-77.48382l0,-0.01937l-192.65052,0c-7.93738,-31.41969 -31.60808,-54.39364 -59.80544,-54.45176l-45.18808,0c-34.70444,0.03874 -62.82321,34.71275 -62.88608,77.48382l0,274.83512c0.06287,42.73233 28.18164,77.38697 62.88608,77.46445l297.65975,0c34.65729,-0.07748 62.79178,-34.73212 62.85465,-77.46445l0,-220.36399l-0.01572,0zm-360.49868,-93.23241l45.18808,0c16.4406,-0.07748 30.13062,16.15538 31.16798,36.33991l0.91162,18.15059l220.39207,0c17.17933,0.03874 31.38803,17.55009 31.41947,38.74191l0,9.58862c-9.2891,-6.68298 -19.92991,-10.78962 -31.43518,-10.80899l-297.65975,0c-11.50528,0.01937 -22.1618,4.14538 -31.43518,10.82836l0,-64.09849c0.04715,-21.19183 14.25586,-38.70317 31.4509,-38.74191zm297.64403,352.31894l-297.64403,0c-17.17933,-0.03874 -31.38803,-17.58883 -31.4509,-38.74191l0,-144.08117l0.01572,0c0.03144,-21.2112 14.24014,-38.72254 31.43518,-38.76128l297.65975,0c17.17933,0.03874 31.29372,17.45323 31.43518,38.56757l0,144.2555c-0.06287,21.2112 -14.27157,38.72254 -31.4509,38.76128z" stroke="null" fill="#2b2b2b"/>
 </g>

</svg>