<svg width="600" height="600" xmlns="http://www.w3.org/2000/svg">
 <g>
  <title>Layer 1</title>
  <path fill="#bfbf91" opacity="NaN" d="m66.56752,446.04791c0,0 230.98261,-182.80287 232.01977,-184.07982c0.37127,1.27695 232.76231,305.30699 232.39105,304.03006c0.37126,1.27693 -292.58229,28.2163 -292.95357,26.93937c0.37128,1.27693 -147.51393,-48.75333 -147.88522,-50.03026c0.37128,1.27693 -23.57204,-96.85935 -23.57204,-96.85935l0.00001,0z" id="svg_47" stroke="#ffffff"/>
  <path fill="#ffd4aa" stroke-width="2" opacity="NaN" d="m456.25611,173.71695l-204.68185,38.10877l108.43949,41.93513l-63.78794,125.80542l121.19708,167.74053l38.83322,-373.58985z" id="svg_49" stroke="#ffffff" transform="rotate(-40 353.915 360.512)"/>
  <path transform="rotate(50 395.618 37.29)" fill="#c5c5f9" opacity="NaN" d="m134.77548,233.50185l351.21495,-392.844l170.47082,337.37937l-332.69306,55.88493l-188.99271,-0.4203z" id="svg_48" stroke-width="2" stroke="#ffffff"/>
  <path fill="#f9cae1" stroke="#ffffff" stroke-width="2" opacity="NaN" d="m480.64611,579.79963l-108.82042,-306.56408l192.955,-184.50441l35.21077,173.23697l-4.22529,195.77186l-115.12005,122.05967l-0.00001,-0.00001z" id="svg_46"/>
  <path fill="#f9cae1" stroke="#ffffff" stroke-width="2" opacity="NaN" d="m69.38439,106.56696l84.13455,242.72384l-84.50584,209.85616l-66.19624,-139.43463l-1.40843,-250.70065l67.97596,-62.44472z" id="svg_45"/>
  <path fill="none" stroke="#000" stroke-width="5" d="m280.08809,643.92269l0.56913,0l0.17587,-0.54067l0.17587,0.54067l0.56913,0l-0.46044,0.33415l0.17588,0.54067l-0.46044,-0.33416l-0.46044,0.33416l0.17588,-0.54067l-0.46044,-0.33415z" id="svg_30"/>
  <path id="svg_6" d="m-97.57258,98.16746c-0.0841,-0.01521 -0.1131,-0.12145 -0.06296,-0.1851c0.06654,-0.09844 0.20888,-0.1648 0.3204,-0.10269c0.00222,-0.34665 0.00094,-0.69332 0.00128,-1.03999c0.27807,-0.0561 0.55675,-0.10931 0.83493,-0.16492c-0.0006,0.38852 -0.0012,0.77704 -0.00181,1.16556c-0.04358,0.11751 -0.1844,0.199 -0.30701,0.16256c-0.073,-0.02185 -0.0905,-0.11608 -0.04985,-0.17381c0.05566,-0.08612 0.15927,-0.14525 0.26343,-0.12912c0.02972,-0.00301 0.07349,0.04512 0.06093,-0.00932c0,-0.23356 0,-0.46711 0,-0.70067c-0.25526,0.05139 -0.51102,0.10033 -0.7664,0.15116c-0.00114,0.28176 0.00283,0.56362 -0.00294,0.8453c-0.0176,0.09456 -0.11057,0.16004 -0.20029,0.17913c-0.02964,0.00353 -0.06005,0.00659 -0.08971,0.00191l0,0zm0.66587,-1.17572c0.13115,-0.02581 0.26237,-0.05131 0.39346,-0.07741c0.01668,-0.06647 -0.05798,-0.0233 -0.0945,-0.02168c-0.22394,0.04421 -0.448,0.08776 -0.67191,0.13213c-0.01668,0.06647 0.05798,0.0233 0.0945,0.02168c0.0928,-0.01829 0.18562,-0.03652 0.27844,-0.05473l0.00001,0.00001zm0,-0.11633c0.13115,-0.02581 0.26237,-0.05131 0.39346,-0.07741c0.01668,-0.06647 -0.05798,-0.0233 -0.0945,-0.02168c-0.22394,0.04421 -0.448,0.08776 -0.67191,0.13213c-0.01668,0.06647 0.05798,0.0233 0.0945,0.02168c0.0928,-0.01829 0.18562,-0.03652 0.27844,-0.05473l0.00001,0.00001z" stroke="#000" fill="#fff"/>
  <path fill="#000000" stroke="null" opacity="NaN" id="svg_2"/>
  <path fill="#c5f7dd" stroke-width="2" opacity="NaN" d="m-43.29006,86.56725l193.99214,250.04767l254.92594,-225.3489l-243.6585,-90.13956" id="svg_39" stroke="#ffffff"/>
  <path fill="#ffffaa" stroke="#ffffff" stroke-width="2" opacity="NaN" d="m53.89165,478.58041l192.58371,-185.62684l-246.47536,4.22529l53.89165,181.40155z" id="svg_40"/>
  <path fill="#ffd4aa" stroke="#ffffff" stroke-width="2" opacity="NaN" d="m573.60252,152.76347l-135.5806,34.5578l71.82996,38.02763l-42.25292,114.08288l80.28055,152.11051l25.72301,-338.77881l0,-0.00001z" id="svg_41"/>
  <path fill="#c5f7dd" stroke="#ffffff" stroke-width="2" opacity="NaN" d="m79.2434,676.32408l72.86711,-165.06377l232.39105,8.45058l47.88664,111.26602l-66.19624,142.25149l-286.94856,-96.90433l0,0.00001z" id="svg_42"/>
  <path fill="#ffffaa" stroke="#ffffff" stroke-width="2" opacity="NaN" d="m170.79139,36.61491l127.79591,123.94618l135.20934,16.90117l59.15409,-87.3227l26.76018,-66.19624l-348.91952,12.67159z" id="svg_44"/>
  <path fill="#c5c5f9" opacity="NaN" d="m90.51084,405.34203l179.90784,-267.31582l87.3227,229.57419l-170.42011,38.02763l-96.81043,-0.286z" id="svg_37" stroke="#ffffff" stroke-width="2"/>
  <ellipse fill="none" stroke="#ffffff" stroke-width="99" cx="591.20791" cy="10.93452" id="svg_52" rx="55.63301" ry="34.50655"/>
  <ellipse fill="none" cx="299.66277" cy="298.11351" id="svg_51" rx="335.91067" ry="338.02331" stroke-width="99" stroke="#ffffff"/>
 </g><g><title>Layer 2</title>
  
  <path id="svg_30" d="m280.08809,643.92269l0.56913,0l0.17587,-0.54067l0.17587,0.54067l0.56913,0l-0.46044,0.33415l0.17588,0.54067l-0.46044,-0.33416l-0.46044,0.33416l0.17588,-0.54067l-0.46044,-0.33415z" stroke-width="5" stroke="#000" fill="none"/>
  <path id="svg_2" d="m340.93712,375.79409l-13.19406,-47.44935c3.86664,-3.48508 7.49585,-7.21411 10.92156,-11.20453l46.14528,13.55696c4.86722,-7.28381 9.05607,-15.02069 12.804,-23.0538l-34.34186,-34.15377c1.64502,-5.01851 3.06957,-10.12415 4.0871,-15.38662l46.28095,-11.91897c0.33918,-4.3912 0.6614,-8.79982 0.6614,-13.29558s-0.33918,-8.88695 -0.6614,-13.27815l-46.28095,-11.91897c-1.0345,-5.26247 -2.45905,-10.36811 -4.0871,-15.38662l34.35881,-34.15377c-3.76488,-8.01568 -7.95374,-15.76998 -12.82096,-23.0538l-46.14528,13.53953c-3.40875,-3.97299 -7.05492,-7.70202 -10.92156,-11.20453l13.19406,-47.43192c-7.08884,-4.98366 -14.63557,-9.30516 -22.45364,-13.15617l-33.23952,35.30385c-4.86722,-1.69026 -9.85314,-3.13657 -14.97474,-4.19952l-11.58296,-47.57133c-4.29061,-0.33108 -8.56427,-0.67959 -12.93967,-0.67959s-8.64906,0.34851 -12.92271,0.67959l-11.59992,47.57133c-5.1216,1.06295 -10.09057,2.50926 -14.97474,4.19952l-33.23952,-35.30385c-7.80111,3.90329 -15.33088,8.20736 -22.41972,13.20845l13.19406,47.43192c-3.86664,3.48508 -7.51281,7.23154 -10.9046,11.1871l-46.16224,-13.55696c-4.86722,7.28381 -9.05607,15.03812 -12.804,23.07122l34.35881,34.15377c-1.62806,5.01851 -3.05261,10.12415 -4.0871,15.38662l-46.29791,11.91897c-0.32222,4.3912 -0.6614,8.79982 -0.6614,13.27815s0.33918,8.88695 0.6614,13.29558l46.29791,11.91897c1.0345,5.26247 2.45905,10.36811 4.0871,15.38662l-34.35881,34.15377c3.74793,8.01568 7.93678,15.76998 12.804,23.0538l46.16224,-13.55696c3.39179,3.99042 7.03796,7.70202 10.9046,11.20453l-13.19406,47.44935c7.08884,4.98366 14.63557,9.28774 22.43668,13.15617l33.23952,-35.30385c4.88417,1.69026 9.85314,3.154 14.97474,4.19952l11.59992,47.5539c4.27365,0.34851 8.56427,0.67959 12.93967,0.67959s8.64906,-0.34851 12.93967,-0.67959l11.58296,-47.5539c5.1216,-1.06295 10.10753,-2.52668 14.97474,-4.19952l33.23952,35.30385c7.78415,-3.90329 15.33088,-8.20736 22.41972,-13.19102zm-95.17358,-83.65932c-31.83193,0 -57.64344,-26.52145 -57.64344,-59.22892s25.81151,-59.21149 57.64344,-59.21149s57.62648,26.50403 57.62648,59.21149s-25.79455,59.22892 -57.62648,59.22892zm262.72791,123.80743c0.32222,-9.53169 -1.01754,-19.23764 -3.90056,-28.8216l21.09692,-30.89522c-3.18828,-6.09889 -6.78358,-11.88412 -10.87068,-17.14659l-35.98687,7.7543c-7.25843,-6.34284 -15.51743,-11.29166 -24.35304,-14.82901l-10.36191,-36.2274c-6.54615,-1.18493 -13.1771,-1.82967 -19.89284,-1.84709l-16.51801,33.73556c-4.73154,0.94097 -9.46309,2.23045 -14.10984,4.06012c-4.35845,1.70769 -8.42859,3.83359 -12.32915,6.15116l-34.01964,-14.2714c-5.03681,4.56545 -9.63268,9.49684 -13.78762,14.84644l15.38176,34.29318c-4.39237,8.62557 -7.41106,17.91331 -8.80169,27.61925l-32.06936,18.47092c0.32222,6.76105 1.28888,13.52211 2.78127,20.30058l35.68161,9.04378c3.91752,9.13091 9.17479,17.30342 15.53439,24.27357l-5.96955,37.25549c5.42686,4.00784 11.1929,7.45807 17.17941,10.45524l29.08458,-23.00152c9.08999,2.45698 18.60396,3.39795 28.18576,2.61381l24.62438,28.00261c3.39179,-0.99325 6.76662,-2.0562 10.10753,-3.3631c2.96781,-1.15008 5.76604,-2.50926 8.56427,-3.88586l0.62748,-37.72598c7.71632,-5.90721 14.29639,-13.01677 19.5367,-21.01503l36.64827,-2.335c2.57776,-6.25572 4.73154,-12.75539 6.24089,-19.42931l-28.30447,-24.0819zm-70.60007,34.97277c-20.36769,7.98083 -43.1605,-2.50926 -50.94466,-23.43716s2.42513,-44.36505 22.79282,-52.36331c20.36769,-7.98083 43.19442,2.50926 50.97858,23.43716c7.76719,20.9279 -2.45905,44.36505 -22.82673,52.36331z" stroke="null" fill="#2b2b2b"/>
 </g>

</svg>