<svg width="600" height="600" xmlns="http://www.w3.org/2000/svg">
 <g>
  <title>Layer 1</title>
  <ellipse fill="#fff" cx="301.33327" cy="300.83331" id="svg_1" rx="299.33331" ry="299.49997" stroke="#000"/>
  <path fill="none" stroke="#000" stroke-width="5" d="m280.08809,643.92269l0.56913,0l0.17587,-0.54067l0.17587,0.54067l0.56913,0l-0.46044,0.33415l0.17588,0.54067l-0.46044,-0.33416l-0.46044,0.33416l0.17588,-0.54067l-0.46044,-0.33415z" id="svg_30"/>
  <path stroke="#1a3c5e" id="svg_4" d="m318.82397,147.97274c8.34864,-13.05563 23.62333,-30.06271 -2.62034,-34.16562c-7.31046,-3.24073 -14.62331,-8.97518 -21.92435,-2.58711c-16.24456,5.5415 -30.32663,13.29106 -13.24044,27.7945c7.57686,9.36634 14.46827,29.80276 23.05097,32.0535c5.12244,-7.59587 9.92106,-15.35128 14.73416,-23.09529l0,0.00001zm-35.88679,36.04826c-14.9127,-22.98415 -26.91332,-47.64192 -45.16578,-68.84518c-22.19955,-20.46779 -65.94068,-11.34392 -75.88097,15.0567c-13.20448,26.10155 15.28644,57.26594 47.53962,53.99896c24.47516,0.35399 49.08958,1.30572 73.50712,-0.21048zm123.92068,0.77591c31.71764,-3.67147 49.95746,-38.15242 31.89864,-61.04693c-16.00313,-24.4325 -62.04339,-25.28424 -78.11632,-0.45544c-13.91749,20.07292 -25.99711,41.04826 -38.76842,61.67148c28.23484,1.39407 56.73524,1.0689 84.9861,-0.16912l0,0.00001zm52.52758,29.39827c10.81272,-8.2159 52.68415,-17.90174 20.9728,-25.70444c-7.85561,-1.92499 -17.01417,-10.75596 -24.07433,-8.33931c-15.33092,16.46011 -38.90363,26.1164 -63.51567,25.10497c-4.81806,1.36762 -29.39259,-2.08001 -22.75279,1.83591c17.36291,8.54935 34.28856,17.83397 52.24794,25.42235c12.57913,-5.78522 24.7875,-12.15803 37.12204,-18.3195l0,0.00001zm-247.03429,4.65151c9.24668,-4.65151 18.49334,-9.30303 27.73998,-13.95454c-28.26404,-1.21276 -60.60972,2.30524 -81.97007,-17.32561c-6.02236,-5.82317 -11.79734,-12.49007 -20.14404,-5.15893c-9.99761,5.94783 -40.74905,12.04296 -17.0721,19.30363c20.6173,10.5172 41.08959,21.29099 62.21647,31.03009c10.0672,-4.07679 19.55694,-9.17195 29.22976,-13.89464l-0.00002,-0.00001zm135.51214,51.90114c11.98264,-8.314 41.00645,-16.23493 41.97609,-25.1566c-27.09155,-13.46244 -53.394,-28.45142 -81.73712,-39.83038c-9.75394,-3.19558 -17.6621,1.72145 -25.51332,5.99221c-23.21632,11.92509 -46.99124,23.11007 -69.45211,36.07586c29.37471,15.68564 59.10251,30.90746 89.1195,45.6586c15.31029,-7.41549 30.42264,-15.13409 45.60696,-22.73967l0,-0.00001zm120.21467,25.95055c12.4313,-6.77325 24.86261,-13.54649 37.29397,-20.31979c-0.10177,-22.68582 0.3178,-45.38111 -0.40091,-68.05901c-25.0899,12.0894 -49.82298,24.78243 -74.13862,37.99938c-2.65941,23.39811 -1.31068,47.18317 -0.73268,70.69921c12.83061,-6.52769 25.3495,-13.50942 37.97824,-20.31979zm-291.54942,-14.29243c1.26257,-19.33778 3.98419,-41.38178 -23.02169,-47.11018c-17.05435,-6.86868 -40.69316,-24.4676 -53.8318,-24.29107c-0.40935,21.78932 -0.19271,43.58264 -0.23701,65.37387c25.19211,13.57591 49.93718,27.80541 75.673,40.6029c2.49544,-11.23212 0.86413,-23.1388 1.41749,-34.57552zm180.40036,74.87349c14.90069,-8.12345 29.80136,-16.2469 44.70205,-24.37035c-0.06899,-23.42045 1.05247,-46.87458 -0.17318,-70.26988c-16.37594,4.05522 -35.10601,16.59004 -52.35897,24.37586c-12.91872,6.53467 -25.83751,13.06938 -38.75625,19.60408c0.25476,25.00732 -0.69643,50.06031 0.94213,75.03059c15.44386,-7.79237 30.47722,-16.18478 45.64421,-24.3703l0.00002,0zm-62.46256,-13.14502c0,-12.5051 0,-25.01022 0,-37.51528c-29.91281,-15.09547 -59.72989,-30.33403 -89.75932,-45.25594c-1.66063,23.91327 -0.71164,47.91647 -0.96206,71.87105c29.90615,16.16886 59.5024,32.77927 89.78685,48.41549c1.17845,-12.46079 0.74815,-25.02101 0.93453,-37.51532zm174.35514,50.27014c12.19067,-7.00997 24.38134,-14.01995 36.57206,-21.02991c-0.50865,-22.22489 1.25577,-44.75054 -1.31044,-66.73019c-25.35199,12.49046 -49.8192,26.71057 -74.71934,40.04455c0.59818,22.99541 -1.22824,46.2541 1.52252,69.05303c12.86133,-6.81691 25.33087,-14.17474 37.93519,-21.33747zm-292.5621,-12.45964c-0.09923,-11.65281 -0.19857,-23.30563 -0.29782,-34.95842c-25.18551,-13.60669 -50.05372,-27.66856 -75.6176,-40.74026c-1.59983,22.32501 -0.68796,44.73703 -0.92856,67.1019c25.40737,14.52318 50.52893,29.43123 76.27697,43.50109c0.98652,-11.6001 0.49693,-23.27863 0.56702,-34.90431zm181.31347,76.57731c14.79843,-8.48699 29.59685,-16.97397 44.39528,-25.46094c-0.03437,-23.66492 0.52241,-47.34002 -0.21396,-70.99685c-30.12371,16.03935 -60.04589,32.37393 -89.74742,48.98975c-3.3567,22.85079 -1.18026,46.41068 -1.18516,69.51124c9.21846,4.84876 32.7884,-16.64035 46.75126,-22.04321l0,0.00001zm-63.10652,-10.13051c-1.78947,-16.31776 7.69623,-39.28591 -16.32033,-45.6118c-24.21982,-13.24694 -48.34228,-26.63845 -72.88079,-39.44197c-3.57658,22.40262 0.16405,45.74095 -2.58341,68.41764c29.42633,18.36938 59.62163,35.93014 90.367,52.60752c2.46589,-11.68711 0.9322,-24.06683 1.41752,-35.97141l0,0.00001zm-102.91256,-4.31368c-35.81589,-20.64622 -71.63177,-41.29242 -107.44763,-61.93859c0.0406,-63.71707 -0.97885,-127.44944 0.33073,-191.15455c17.93488,-9.55607 37.02047,-17.38973 55.47805,-26.15721c-11.92172,-29.47046 5.27897,-65.28331 39.84763,-76.31441c28.97828,-10.26758 63.90926,-1.00184 82.38429,20.61318c13.41919,-5.94306 26.83841,-11.88611 40.25762,-17.82917c13.49125,5.99682 26.98258,11.99365 40.47381,17.99045c19.33174,-19.802 52.45213,-31.10252 81.15388,-20.00492c34.45189,10.45701 53.2306,46.18982 40.87554,75.61402c18.5934,9.06501 38.80877,16.14873 55.85681,27.21036c0.75576,63.33969 0.00676,126.68871 -0.06177,190.03228c-71.26492,40.7263 -141.375,83.00722 -213.79691,122.18504c-21.05908,-0.0049 -39.2361,-19.75023 -58.77744,-27.75583c-18.89233,-10.78586 -37.73696,-21.6339 -56.57467,-32.49063l0.00008,-0.00001z" fill="#9acee6"/>
  <path id="svg_5" d="m728.16733,418.83864c0.02561,-0.04638 0.07247,-0.10679 -0.00804,-0.12137c-0.02243,-0.01151 -0.04486,-0.03188 -0.06726,-0.00919c-0.04983,0.01969 -0.09303,0.04722 -0.04062,0.09874c0.02324,0.03327 0.04438,0.10587 0.07071,0.11387c0.01571,-0.02698 0.03043,-0.05453 0.0452,-0.08204l0,0zm-0.11009,0.12806c-0.04575,-0.08165 -0.08256,-0.16924 -0.13855,-0.24457c-0.0681,-0.07271 -0.20228,-0.0403 -0.23278,0.05349c-0.04051,0.09272 0.04689,0.20343 0.14583,0.19183c0.07508,0.00126 0.15059,0.00464 0.22549,-0.00075zm0.38014,0.00276c0.0973,-0.01304 0.15325,-0.13553 0.09785,-0.21686c-0.04909,-0.08679 -0.19033,-0.08982 -0.23963,-0.00162c-0.04269,0.07131 -0.07975,0.14582 -0.11893,0.21908c0.08661,0.00495 0.17404,0.0038 0.26071,-0.0006l0,0zm0.16114,0.10443c0.03317,-0.02919 0.16162,-0.06359 0.06434,-0.09131c-0.0241,-0.00684 -0.05219,-0.03821 -0.07385,-0.02962c-0.04703,0.05847 -0.11934,0.09278 -0.19484,0.08918c-0.01478,0.00486 -0.09017,-0.00739 -0.0698,0.00652c0.05326,0.03037 0.10518,0.06335 0.16028,0.09031c0.03859,-0.02055 0.07604,-0.04319 0.11388,-0.06508l0,0zm-0.75781,0.01652c0.02837,-0.01652 0.05673,-0.03305 0.0851,-0.04957c-0.0867,-0.00431 -0.18593,0.00819 -0.25145,-0.06155c-0.01847,-0.02069 -0.03619,-0.04437 -0.06179,-0.01833c-0.03067,0.02113 -0.125,0.04278 -0.05237,0.06857c0.06325,0.03736 0.12605,0.07563 0.19086,0.11023c0.03088,-0.01448 0.05999,-0.03258 0.08967,-0.04936l0,0zm0.4157,0.18437c0.03676,-0.02953 0.12579,-0.05767 0.12877,-0.08937c-0.08311,-0.04782 -0.16379,-0.10107 -0.25074,-0.14149c-0.02992,-0.01135 -0.05418,0.00612 -0.07827,0.02129c-0.07122,0.04236 -0.14415,0.0821 -0.21305,0.12816c0.09011,0.05572 0.18131,0.1098 0.27339,0.1622c0.04697,-0.02634 0.09333,-0.05376 0.13991,-0.08078l0,0zm0.36877,0.09219c0.03813,-0.02406 0.07627,-0.04812 0.1144,-0.07218c-0.00031,-0.08059 0.00097,-0.16121 -0.00123,-0.24177c-0.07697,0.04295 -0.15284,0.08804 -0.22743,0.13499c-0.00816,0.08312 -0.00402,0.16761 -0.00225,0.25115c0.03936,-0.02319 0.07776,-0.04799 0.1165,-0.07218zm-0.89437,-0.05077c0.00387,-0.0687 0.01222,-0.147 -0.07062,-0.16735c-0.05232,-0.0244 -0.12483,-0.08692 -0.16514,-0.08629c-0.00126,0.0774 -0.00059,0.15482 -0.00073,0.23223c0.07728,0.04823 0.15319,0.09878 0.23214,0.14424c0.00766,-0.0399 0.00265,-0.0822 0.00435,-0.12283zm0.5534,0.26598c0.04571,-0.02886 0.09142,-0.05772 0.13713,-0.08657c-0.00021,-0.0832 0.00323,-0.16652 -0.00053,-0.24963c-0.05024,0.01441 -0.10769,0.05893 -0.16062,0.08659c-0.03963,0.02321 -0.07926,0.04643 -0.11889,0.06964c0.00078,0.08884 -0.00214,0.17783 0.00289,0.26654c0.04738,-0.02768 0.09349,-0.05749 0.14002,-0.08657l0,0zm-0.19161,-0.0467c0,-0.04442 0,-0.08885 0,-0.13327c-0.09176,-0.05363 -0.18323,-0.10776 -0.27535,-0.16077c-0.00509,0.08495 -0.00218,0.17022 -0.00295,0.25532c0.09174,0.05744 0.18253,0.11645 0.27543,0.17199c0.00362,-0.04427 0.0023,-0.08888 0.00287,-0.13327zm0.53486,0.17858c0.0374,-0.0249 0.07479,-0.0498 0.11219,-0.07471c-0.00156,-0.07895 0.00385,-0.15897 -0.00402,-0.23705c-0.07777,0.04437 -0.15283,0.09489 -0.22921,0.14225c0.00184,0.08169 -0.00377,0.16431 0.00467,0.2453c0.03945,-0.02422 0.07771,-0.05035 0.11637,-0.0758zm-0.89747,-0.04426c-0.0003,-0.0414 -0.00061,-0.08279 -0.00091,-0.12419c-0.07726,-0.04834 -0.15355,-0.09829 -0.23197,-0.14473c-0.00491,0.07931 -0.00211,0.15892 -0.00285,0.23837c0.07794,0.05159 0.155,0.10455 0.23399,0.15453c0.00303,-0.04121 0.00152,-0.0827 0.00174,-0.12399zm0.5562,0.27203c0.0454,-0.03015 0.09079,-0.0603 0.13619,-0.09045c-0.00011,-0.08407 0.0016,-0.16817 -0.00066,-0.25221c-0.09241,0.05698 -0.1842,0.11501 -0.27531,0.17403c-0.0103,0.08118 -0.00362,0.16487 -0.00364,0.24693c0.02828,0.01722 0.10058,-0.05911 0.14342,-0.07831l0,0zm-0.19359,-0.03599c-0.00549,-0.05797 0.02361,-0.13956 -0.05006,-0.16203c-0.0743,-0.04706 -0.1483,-0.09463 -0.22357,-0.14011c-0.01097,0.07958 0.0005,0.16249 -0.00792,0.24305c0.09027,0.06526 0.1829,0.12764 0.27721,0.18688c0.00756,-0.04152 0.00286,-0.0855 0.00435,-0.12779l0,0zm-0.3157,-0.01532c-0.10987,-0.07334 -0.21974,-0.14669 -0.32961,-0.22003c0.00012,-0.22635 -0.003,-0.45275 0.00101,-0.67906c0.05502,-0.03395 0.11357,-0.06178 0.17019,-0.09292c-0.03657,-0.10469 0.01619,-0.23191 0.12224,-0.2711c0.08889,-0.03647 0.19605,-0.00356 0.25273,0.07323c0.04117,-0.02111 0.08233,-0.04222 0.1235,-0.06334c0.04139,0.0213 0.08277,0.04261 0.12416,0.06391c0.0593,-0.07034 0.1609,-0.11049 0.24895,-0.07107c0.10569,0.03715 0.16329,0.16409 0.12539,0.26861c0.05704,0.0322 0.11905,0.05737 0.17135,0.09666c0.00232,0.22501 0.00002,0.45005 -0.00019,0.67507c-0.21861,0.14468 -0.43369,0.29488 -0.65585,0.43405c-0.0646,-0.00002 -0.12036,-0.07016 -0.18031,-0.0986c-0.05795,-0.03832 -0.11576,-0.07685 -0.17355,-0.11542l0,0z" stroke="#000" fill="#fff"/>
 </g>

</svg>