<svg width="600" height="600" xmlns="http://www.w3.org/2000/svg">
 <g>
  <title>Layer 1</title>
  <ellipse fill="#ffffff" cx="301.33327" cy="300.83331" id="svg_1" rx="299.33331" ry="299.49997" stroke="#000"/>
  <path fill="none" stroke="#000" stroke-width="5" d="m280.08809,643.92269l0.56913,0l0.17587,-0.54067l0.17587,0.54067l0.56913,0l-0.46044,0.33415l0.17588,0.54067l-0.46044,-0.33416l-0.46044,0.33416l0.17588,-0.54067l-0.46044,-0.33415z" id="svg_30"/>
  <path stroke="#af0707" id="svg_3" d="m472.13454,459.08824c0,5.69747 -4.84332,10.31341 -10.82149,10.31341l-69.29788,0c-5.97814,0 -10.82147,-4.61593 -10.82147,-10.31341l0,-140.31367c0,-5.69703 4.84332,-10.31341 10.82147,-10.31341l69.29788,0c5.97817,0 10.82149,4.61638 10.82149,10.31341l0,140.31367zm-256.5599,0c0,5.69747 -4.84427,10.31341 -10.82149,10.31341l-69.29882,0c-5.97722,0 -10.82147,-4.61593 -10.82147,-10.31341l0,-140.31367c0,-5.69703 4.84426,-10.31341 10.82147,-10.31341l69.29882,0c5.97722,0 10.82149,4.61638 10.82149,10.31341l0,140.31367zm83.72123,-380.47496c-125.39801,0 -227.19213,96.13764 -228.75544,215.28364l39.69997,0c1.28732,-98.47548 85.42298,-177.93038 189.05547,-177.93038c103.63247,0 187.76818,79.4549 189.04045,177.93038l39.69905,0c-1.54738,-119.146 -103.37145,-215.28364 -228.73951,-215.28364l0.00002,0zm-228.4336,324.42253l38.97959,0l0,-109.35821l-38.97959,0l0,109.35821zm417.15226,-109.37294l0,109.35868l40.41938,0l0,-109.35868l-40.41938,0z" stroke-width="9" fill="#af0707"/>
  <path transform="rotate(10 504.153 466.074)" stroke="#3a3a3a" id="svg_4" d="m498.03894,497.10014c-3.102,-0.55813 -6.07556,-2.84589 -5.48765,-5.58347c0.0452,-3.41524 3.61834,-5.82539 6.77617,-7.67364c4.07955,-2.26749 9.70309,-2.98488 14.19031,-1.05983c0.26892,-15.95443 0.11703,-31.91279 0.15718,-47.86901c0.78388,0.14831 2.4902,-0.44576 2.09571,0.65092c-0.03845,16.58986 0.08804,33.18061 -0.10057,49.76975c-0.0198,2.25072 -0.05752,4.68961 -2.02517,6.4744c-3.63436,3.68331 -9.70255,6.12728 -15.60598,5.29088l0,0z" fill="#3a3a3a"/>
  <path transform="rotate(-15 264.158 312.928)" stroke="#3a3a3a" id="svg_5" d="m252.56587,341.52885c-2.545,-0.41784 -4.90889,-2.6905 -4.42878,-5.34348c0.243,-2.91242 2.62308,-5.25643 5.0178,-6.80081c3.18707,-2.11037 7.54468,-2.89434 11.05689,-1.07418c0.20579,-14.68041 0.08851,-29.3645 0.11968,-44.04657c2.21482,-0.52162 1.4987,2.29887 2.00172,3.60321c0.47999,3.83549 3.12485,6.84506 5.75751,9.53246c3.26624,3.37794 6.73453,6.95957 7.79617,11.63948c1.15929,5.42972 -0.69402,10.98437 -3.09913,15.85044c-0.17416,1.55953 -3.11521,3.8158 -1.71399,0.99766c2.35941,-4.82093 4.30859,-10.37303 2.69814,-15.71145c-1.53361,-5.32674 -6.31378,-9.77537 -12.00423,-10.57304c-0.03678,11.24781 0.08955,22.49775 -0.13486,33.74376c-0.55943,3.31268 -3.5176,5.77066 -6.48413,7.17419c-2.04556,0.86627 -4.35425,1.39041 -6.58279,1.00834l0,0z" stroke-width="5" fill="#3a3a3a"/>
  <path transform="rotate(15 228.826 212.24)" stroke="#3a3a3a" id="svg_10" d="m191.47421,259.60804c-6.24465,-0.96673 -8.39799,-7.72022 -4.67496,-11.76629c4.94094,-6.25753 15.5101,-10.47588 23.79116,-6.52754c0.16504,-22.03527 0.06979,-44.07174 0.09503,-66.10754c20.64834,-3.56599 41.34132,-6.94857 61.99748,-10.48354c-0.04473,24.69666 -0.08947,49.39333 -0.1342,74.08998c-3.23599,7.46976 -13.69228,12.64957 -22.79704,10.33332c-5.42053,-1.38901 -6.72004,-7.37851 -3.70166,-11.04836c4.13337,-5.47427 11.82659,-9.23284 19.56078,-8.20745c2.20712,-0.19113 5.45724,2.86779 4.52438,-0.59263c0,-17.31102 0,-34.62203 0,-51.93303c-18.9543,3.26634 -37.94607,6.37753 -56.90914,9.60852c-0.06473,20.14477 0.16113,40.2926 -0.16895,60.4349c-0.60341,6.11817 -7.46367,10.29232 -13.86762,11.92318c-2.52986,0.36521 -5.16404,0.59183 -7.71526,0.27648l0,0zm49.44422,-82.12992c9.73879,-1.64065 19.48216,-3.26159 29.21675,-4.92042c1.23886,-4.22491 -4.30541,-1.48113 -7.01683,-1.37799c-16.62842,2.80997 -33.26644,5.57834 -49.89231,8.39923c-1.23886,4.22491 4.30541,1.48113 7.01682,1.37799c6.89117,-1.16263 13.78324,-2.32129 20.67557,-3.47881l0,0z" stroke-width="5" fill="#3a3a3a"/>
  <path id="svg_12" d="m711.70382,299.64157c-0.08412,-0.01001 -0.1197,-0.10863 -0.10251,-0.18244c0.02958,-0.11661 0.14532,-0.19719 0.26144,-0.21029c0.04406,-0.00364 0.09263,-0.00302 0.12892,0.02474c0.02978,-0.01183 0.00883,-0.05847 0.01426,-0.08643c0,-0.34405 0,-0.6881 0,-1.03215c0.07489,-0.01091 0.02653,0.09513 0.03974,0.13856c-0.0005,0.37977 0.00311,0.75958 -0.0038,1.13931c-0.03652,0.14192 -0.19696,0.23184 -0.33805,0.2087zm0.01423,-0.06204c0.11492,-0.03654 0.22188,-0.11281 0.27655,-0.22245c0.00478,-0.06778 -0.08003,-0.05368 -0.11836,-0.03079c-0.06751,0.03383 -0.13105,0.07826 -0.1837,0.13256c-0.03496,0.03213 -0.07946,0.13088 0.00393,0.12528l0.01152,-0.00163l0.01005,-0.00296l0,0l0,0z" stroke-width="2" stroke="#3a3a3a" fill="#3a3a3a"/>
  <path transform="rotate(-10 344.769 407.147)" stroke="#3a3a3a" id="svg_13" d="m339.15206,438.28832c-3.96285,-0.4203 -5.63901,-4.55977 -4.82895,-7.65839c1.39362,-4.89477 6.8457,-8.27737 12.31568,-8.82731c2.07539,-0.15266 4.36369,-0.12679 6.07297,1.03869c1.40279,-0.49645 0.41583,-2.45438 0.67186,-3.6279c0,-14.44202 0,-28.88405 0,-43.32607c3.52769,-0.45793 1.24977,3.99306 1.87198,5.81608c-0.02337,15.94139 0.14635,31.88437 -0.17903,47.82424c-1.72023,5.9574 -9.27843,9.73163 -15.92453,8.76065zm0.67015,-2.60411c5.41383,-1.53401 10.45209,-4.73549 13.02778,-9.3377c0.22504,-2.84501 -3.76986,-2.2532 -5.57562,-1.2926c-3.18033,1.41997 -6.17362,3.28522 -8.65384,5.56424c-1.64697,1.34862 -3.74333,5.49392 0.18536,5.25874l0.5427,-0.06825l0.47361,-0.12443l0,0l0,0z" stroke-width="2" fill="#3a3a3a"/>
  <path transform="rotate(-20 258.326 456.246)" stroke="#3a3a3a" id="svg_14" d="m216.90577,518.51644c-6.92481,-1.27101 -9.31269,-10.15009 -5.18415,-15.46963c5.47911,-8.22703 17.19944,-13.77309 26.38246,-8.58204c0.18299,-29.06597 0.07741,-58.13355 0.10539,-87.20023c22.8968,-4.5973 45.84537,-8.93795 68.75018,-13.49719c-0.04962,32.46972 -0.09921,64.93943 -0.14881,97.40915c-3.58847,9.82079 -15.18364,16.63091 -25.28009,13.58564c-6.01093,-1.82619 -7.45197,-9.70083 -4.10484,-14.52572c4.58357,-7.19725 13.11474,-12.1388 21.69131,-10.79067c2.44752,-0.25129 6.05167,3.77039 5.01718,-0.77916c-0.08496,-25.68213 0.21131,-51.37111 -0.21861,-77.04783c-3.73675,-1.40801 -10.38222,1.83153 -15.1667,2.09362c-15.99953,3.16036 -32.03327,6.15324 -47.99605,9.49834c0.48164,28.4567 0.25705,56.93082 0.18535,85.39354c0.84748,6.49726 -2.68089,12.61757 -8.04582,16.00445c-4.62953,3.41784 -10.3493,4.64991 -15.98679,3.90775l0,-0.00001z" stroke-width="2" fill="#3a3a3a"/>
  <path transform="rotate(25 400.585 241.632)" stroke="#3a3a3a" id="svg_15" d="m370.08263,276.45531c-3.23437,-0.53793 -4.1627,-5.70829 -2.01901,-8.40835c2.34698,-3.83454 6.83863,-6.25474 10.50681,-3.89328c0.14948,-14.61214 0.06491,-29.22731 0.08723,-43.84075c18.51973,-4.59879 37.06485,-9.04561 55.59253,-13.59594c-0.05339,16.15528 0.13038,32.31584 -0.12898,48.46688c-0.44475,4.16651 -3.87125,6.93354 -6.95594,7.79883c-2.70299,1.02839 -6.50922,-1.19985 -5.86909,-5.21726c0.79155,-4.34518 4.40333,-7.47609 7.87543,-7.85699c1.71941,-0.8191 4.55906,2.7067 3.76865,-1.20679c0.04931,-7.84083 0.02455,-15.68195 0.0306,-23.52292c-8.64616,2.09747 -17.29011,4.20981 -25.93522,6.31464c-0.05186,10.22885 0.12561,20.46505 -0.13328,30.68827c-0.7184,4.45748 -4.58546,7.40393 -8.07628,7.63501c-3.36592,0.81231 -6.11903,-4.04354 -4.05173,-7.58204c2.17822,-4.3934 7.15212,-7.35241 11.05454,-4.68885c0.07502,-8.57377 0.03233,-17.14868 0.0435,-25.72287c-8.67419,2.19432 -17.37746,4.2189 -26.05169,6.41322c-0.05814,10.35673 0.14223,20.72644 -0.15833,31.07277c-1.17598,4.74356 -5.70325,7.81745 -9.57973,7.14644l0,0l0,0zm22.90407,-44.66563c4.25592,-1.05176 8.51899,-2.06269 12.76415,-3.17911c0.66677,-3.796 -4.04732,0.02439 -5.72755,-0.36675c-6.73356,1.64729 -13.47071,3.27221 -20.20262,4.92975c-0.51191,3.65859 3.45204,0.34727 5.07617,0.59422c2.6964,-0.66077 5.39305,-1.31994 8.08986,-1.97811l0,0zm-0.48905,-4.91762c4.45817,-1.08929 8.91849,-2.16444 13.37474,-3.26543c0.3703,-3.66546 -3.8652,-0.07823 -5.51785,-0.43372c-6.82688,1.65826 -13.6506,3.33629 -20.47569,5.00581c-0.62679,3.54197 3.28874,0.35752 4.83828,0.59032c2.59332,-0.63348 5.18688,-1.26552 7.78053,-1.89699l0,0zm27.8252,-1.8228c4.21584,-1.02737 8.43169,-2.05475 12.64766,-3.08198c0.39601,-3.65448 -3.72923,-0.25157 -5.41283,-0.52639c-6.82242,1.66187 -13.64274,3.33658 -20.464,5.00581c-0.80377,3.0967 1.94155,1.10647 3.3601,1.00601c3.28973,-0.80062 6.57946,-1.60197 9.86908,-2.40346zm-27.30184,-3.27279c4.26442,-1.04412 8.52888,-2.08815 12.79323,-3.13225c0.7184,-3.72828 -3.23972,-0.50481 -4.82504,-0.71259c-7.04018,1.75785 -14.07909,3.52341 -21.12226,5.2625c-0.40792,3.81765 4.24585,-0.10363 5.9792,0.33197c2.39204,-0.58052 4.7836,-1.1642 7.17487,-1.74963l0,0zm27.06935,-1.71095c4.29354,-1.04622 8.58707,-2.09245 12.8805,-3.13867c0.50941,-3.50952 -3.26019,-0.36823 -4.79469,-0.60216c-7.04618,1.72369 -14.09609,3.424 -21.14076,5.15778c-0.10874,3.61601 4.45066,-0.14347 6.3764,0.20669c2.22638,-0.53981 4.45264,-1.08121 6.67856,-1.62363l0,0zm-0.08723,-4.9542c4.27958,-1.06779 8.58068,-2.03994 12.84641,-3.17125c0.6392,-3.7114 -4.11198,0.11978 -5.77557,-0.30693c-6.63564,1.60945 -13.29709,3.09808 -19.91819,4.77404c-0.70852,3.92681 4.12571,0.01303 5.85734,0.40723c2.32989,-0.5685 4.65989,-1.13607 6.99001,-1.70309l0,0z" stroke-width="2" fill="#3a3a3a"/>
  <path transform="rotate(-10 335.895 178.411)" id="svg_17" d="m326.24165,209.18066c-2.20835,-0.40954 -3.90923,-2.82786 -3.41974,-5.416c0.57951,-3.41584 3.29011,-5.82348 5.9468,-7.16035c2.14888,-1.00126 4.77375,-1.16725 6.81779,0.23599c0.08144,-16.43988 0.03565,-32.88045 0.04773,-49.32065c0.72135,-0.03518 1.54766,-0.20706 1.35076,0.95377c0.05861,2.73723 1.47854,5.04551 3.24271,6.75795c3.74753,3.95259 7.90194,8.52504 8.23216,14.71584c0.35313,2.42542 -0.78398,4.81262 -0.30253,7.1671c0.45957,2.32069 0.32256,4.72977 0.0323,7.06238c1.36476,4.18653 1.03521,9.0068 -0.45159,13.09475c0.13734,1.27757 -2.50701,3.36189 -1.34865,1.23269c1.56414,-3.88341 2.38697,-8.65964 0.69077,-12.65568c-2.05426,-3.873 -5.7926,-5.85884 -8.85802,-8.50309c-2.13363,-2.45838 -0.98349,2.31818 -1.30134,3.7421c-0.04743,6.98495 -0.05119,13.97015 -0.07441,20.95524c-0.95527,2.66092 -2.70749,4.91373 -5.04115,6.06885c-1.71082,0.91358 -3.67629,1.51755 -5.56361,1.06911l0,0zm20.80833,-30.11139c-1.32216,-5.42476 -5.52858,-9.10134 -9.63508,-11.75101c-1.12413,-0.17984 0.33328,2.93223 0.64909,3.89594c1.47084,3.29969 4.36723,5.24742 6.45583,7.97267c0.91114,0.86356 1.94834,2.64555 2.65939,3.12227c0.10332,-1.07492 0.04076,-2.17751 -0.12923,-3.23987l0,0zm0.16635,-7.40001c-0.02093,-4.55956 -3.01456,-8.19392 -5.91609,-10.90761c-1.35289,-1.02435 -2.98896,-2.74921 -4.37845,-2.95602c0.26443,2.53805 1.25907,5.02341 3.08624,6.58014c2.59955,2.88613 5.34789,5.76502 7.15157,9.38957c0.20764,-0.63009 0.02375,-1.43385 0.05674,-2.10608z" stroke="#3a3a3a" fill="#3a3a3a"/>
  <path id="svg_18" d="m639.55024,265.60374c-0.06095,-0.00988 -0.1079,-0.06825 -0.09439,-0.13072c0.01599,-0.08244 0.09081,-0.14055 0.16414,-0.17282c0.05931,-0.02417 0.13176,-0.02817 0.18818,0.0057c0.00225,-0.39678 0.00098,-0.79358 0.00132,-1.19036c0.01991,-0.00085 0.04272,-0.005 0.03728,0.02302c0.00162,0.06606 0.04081,0.12177 0.0895,0.1631c0.10344,0.0954 0.2181,0.20575 0.22721,0.35517c0.00975,0.05854 -0.02164,0.11615 -0.00835,0.17298c0.01268,0.05601 0.0089,0.11415 0.00089,0.17045c0.03767,0.10104 0.02857,0.21738 -0.01246,0.31604c0.00379,0.03083 -0.0692,0.08114 -0.03722,0.02975c0.04317,-0.09373 0.06588,-0.209 0.01907,-0.30545c-0.0567,-0.09348 -0.15988,-0.1414 -0.24449,-0.20522c-0.05889,-0.05933 -0.02715,0.05595 -0.03592,0.09032c-0.00131,0.16858 -0.00141,0.33717 -0.00205,0.50576c-0.02637,0.06422 -0.07473,0.11859 -0.13914,0.14647c-0.04722,0.02205 -0.10147,0.03663 -0.15356,0.0258l0,0zm0.57433,-0.72674c-0.03649,-0.13093 -0.15259,-0.21966 -0.26594,-0.28361c-0.03103,-0.00434 0.0092,0.07077 0.01792,0.09403c0.0406,0.07964 0.12054,0.12665 0.17819,0.19242c0.02515,0.02084 0.05378,0.06385 0.0734,0.07536c0.00285,-0.02594 0.00113,-0.05255 -0.00357,-0.07819l0,0zm0.00459,-0.1786c-0.00058,-0.11005 -0.0832,-0.19776 -0.16329,-0.26326c-0.03734,-0.02472 -0.0825,-0.06635 -0.12085,-0.07134c0.0073,0.06126 0.03475,0.12124 0.08518,0.15881c0.07175,0.06966 0.14761,0.13914 0.19739,0.22662c0.00573,-0.01521 0.00066,-0.03461 0.00157,-0.05083z" stroke="#000" fill="#3a3a3a"/>
  <path transform="rotate(30 334.515 315.325)" id="svg_19" d="m326.05047,345.50419c-2.25372,-0.2584 -3.93363,-2.79476 -3.20482,-5.16504c1.2076,-3.56748 4.69146,-6.03301 8.1546,-6.22997c1.42736,-0.50765 3.9213,2.02834 3.36788,-0.66282c0.09109,-16.10192 0.04536,-32.20427 0.05663,-48.3064c1.08134,-0.34605 1.16997,0.51862 1.18824,1.48697c0.33505,3.6177 3.59495,5.44842 5.60019,7.95385c2.89151,3.06396 5.17092,7.30305 4.60425,11.82026c-0.57956,2.15582 -0.15719,4.22384 0.05646,6.39732c0.01287,2.34622 -0.7858,4.58423 -0.07623,6.88998c0.31556,2.23252 -0.60826,4.48257 0.38205,6.58731c0.45071,3.69781 0.13107,7.79556 -1.97562,10.85881c-1.33599,0.39145 0.55838,-1.69255 0.43769,-2.40873c1.18533,-3.69778 1.36603,-8.46713 -1.60118,-11.27462c-2.32253,-2.1931 -4.97765,-3.9375 -7.50974,-5.83093c-0.13456,7.25694 -0.09104,14.51722 -0.1294,21.77572c-0.95493,2.64077 -3.00513,4.67953 -5.4883,5.58656c-1.22692,0.47666 -2.56152,0.75542 -3.8627,0.52173l0,0zm18.53986,-25.62612c-1.19122,-4.60892 -4.97861,-7.73228 -8.67691,-9.98346c-0.98772,0.11697 0.43672,2.96683 0.91572,3.96509c1.6647,2.6473 4.20202,4.45397 6.14869,6.84459c0.64672,0.29575 1.95939,3.22298 1.76147,1.20306c0.02486,-0.67907 -0.01873,-1.36372 -0.14897,-2.02927l0,0zm0.14729,-6.28693c0.0023,-3.88093 -2.73031,-6.96375 -5.33661,-9.27642c-1.12807,-0.69278 -3.15185,-2.9186 -3.90808,-2.21579c0.27794,2.27114 1.41369,4.27601 3.09402,5.6541c2.2272,2.38108 4.63435,4.68791 6.12049,7.70766c0.14541,-0.56271 0.00907,-1.26702 0.03018,-1.86955zm0.0024,-7.9341c-0.0757,-4.40006 -3.33269,-7.78241 -6.49157,-10.09717c-0.88259,-0.50725 -3.46727,-2.98623 -2.58944,-0.36137c0.58743,3.47254 3.72978,5.14178 5.72072,7.58468c1.34515,1.10878 2.51587,3.82384 3.38078,4.46459c0.02655,-0.53007 -0.00704,-1.06085 -0.02049,-1.59074l0,0z" stroke="#3a3a3a" fill="#3a3a3a"/>
  <path transform="rotate(-15 555.811 248.386)" id="svg_21" d="m541.70275,296.93473c-3.75619,-0.41569 -6.55605,-4.49592 -5.34136,-8.30898c2.01267,-5.739 7.8191,-9.70529 13.59099,-10.02213c2.37892,-0.81666 6.5355,3.26299 5.61313,-1.06628c0.15181,-25.9031 0.0756,-51.80688 0.09438,-77.71033c1.80223,-0.55669 1.94996,0.8343 1.9804,2.39208c0.55842,5.81979 5.99157,8.76485 9.33363,12.79532c4.81917,4.92898 8.61819,11.74839 7.67374,19.01521c-0.96593,3.46806 -0.26198,6.79487 0.0941,10.29135c0.02144,3.77435 -1.30966,7.37464 -0.12705,11.08389c0.52594,3.59144 -1.01376,7.21109 0.63676,10.59698c0.75119,5.94865 0.21845,12.54068 -3.29269,17.46853c-2.22664,0.62973 0.93064,-2.72279 0.72948,-3.87491c1.97554,-5.9486 2.27672,-13.62103 -2.66863,-18.13743c-3.87087,-3.52803 -8.29607,-6.33425 -12.51622,-9.3802c-0.22426,11.67422 -0.15174,23.3538 -0.21567,35.03051c-1.59155,4.2482 -5.00854,7.52794 -9.14715,8.98707c-2.04487,0.7668 -4.26919,1.21523 -6.43783,0.83931l0,0zm30.89972,-41.22463c-1.98536,-7.41435 -8.29767,-12.43888 -14.46149,-16.06036c-1.6462,0.18817 0.72787,4.77272 1.52619,6.37863c2.77449,4.2587 7.00336,7.16508 10.24781,11.01086c1.07787,0.47576 3.26565,5.18479 2.93578,1.93535c0.04144,-1.09242 -0.03122,-2.19381 -0.24829,-3.26448l0,0zm0.24548,-10.11375c0.00384,-6.24324 -4.55052,-11.20255 -8.89434,-14.92294c-1.88011,-1.11447 -5.25307,-4.69514 -6.51345,-3.56453c0.46324,3.65358 2.35615,6.87881 5.15669,9.09572c3.71199,3.83043 7.7239,7.54143 10.2008,12.39928c0.24236,-0.90523 0.01511,-2.03824 0.0503,-3.00754zm0.004,-12.76356c-0.12616,-7.07835 -5.55448,-12.51953 -10.81926,-16.24327c-1.47099,-0.81601 -5.77878,-4.80394 -4.31572,-0.58134c0.97904,5.58626 6.21629,8.27156 9.53452,12.20145c2.24192,1.78369 4.19312,6.15139 5.63462,7.18217c0.04424,-0.85273 -0.01173,-1.70658 -0.03416,-2.55901l0,0z" stroke="#3a3a3a" fill="#3a3a3a"/>
  <path id="svg_22" d="m788.84088,396.26528c-0.06,-0.00638 -0.10473,-0.06897 -0.08533,-0.12746c0.03215,-0.08804 0.12491,-0.14888 0.21711,-0.15374c0.038,-0.01253 0.1044,0.05006 0.08967,-0.01636c0.00243,-0.39737 0.00121,-0.79474 0.00151,-1.19211c0.02879,-0.00854 0.03115,0.0128 0.03164,0.0367c0.00892,0.08928 0.09571,0.13446 0.1491,0.19629c0.07699,0.07561 0.13767,0.18023 0.12259,0.2917c-0.01543,0.0532 -0.00419,0.10424 0.0015,0.15787c0.00034,0.0579 -0.02092,0.11313 -0.00203,0.17003c0.0084,0.05509 -0.01619,0.11062 0.01017,0.16256c0.012,0.09126 0.00349,0.19238 -0.0526,0.26798c-0.03557,0.00966 0.01487,-0.04177 0.01165,-0.05944c0.03156,-0.09125 0.03637,-0.20895 -0.04263,-0.27824c-0.06184,-0.05412 -0.13253,-0.09717 -0.19995,-0.1439c-0.00358,0.17909 -0.00242,0.35826 -0.00345,0.53738c-0.02542,0.06517 -0.08001,0.11548 -0.14612,0.13787c-0.03267,0.01176 -0.0682,0.01864 -0.10284,0.01288l0,0zm0.49362,-0.6324c-0.03172,-0.11374 -0.13255,-0.19082 -0.23102,-0.24637c-0.0263,0.00289 0.01163,0.07322 0.02438,0.09785c0.04432,0.06533 0.11188,0.10992 0.16371,0.16891c0.01722,0.0073 0.05217,0.07954 0.0469,0.02969c0.00066,-0.01676 -0.0005,-0.03365 -0.00397,-0.05008l0,0zm0.00392,-0.15515c0.00006,-0.09577 -0.07269,-0.17185 -0.14209,-0.22892c-0.03003,-0.0171 -0.08392,-0.07203 -0.10405,-0.05468c0.0074,0.05605 0.03764,0.10552 0.08238,0.13953c0.0593,0.05876 0.12339,0.11569 0.16296,0.19021c0.00387,-0.01389 0.00024,-0.03127 0.0008,-0.04614zm0.00006,-0.1958c-0.00202,-0.10859 -0.08873,-0.19206 -0.17284,-0.24918c-0.0235,-0.01252 -0.09232,-0.07369 -0.06894,-0.00892c0.01564,0.0857 0.0993,0.12689 0.15231,0.18718c0.03581,0.02736 0.06698,0.09437 0.09001,0.11018c0.00071,-0.01308 -0.00019,-0.02618 -0.00055,-0.03926l0,0z" stroke="#3a3a3a" fill="#3a3a3a"/>
  <path transform="rotate(15 101.349 120.306)" stroke="#3a3a3a" id="svg_23" d="m95.73169,151.44702c-3.96285,-0.4203 -5.63901,-4.55977 -4.82895,-7.65838c1.39363,-4.89477 6.8457,-8.27737 12.31568,-8.82731c2.0754,-0.15266 4.36369,-0.12679 6.07297,1.03869c1.40279,-0.49645 0.41583,-2.45438 0.67187,-3.6279c0,-14.44203 0,-28.88405 0,-43.32607c3.52769,-0.45793 1.24977,3.99306 1.87198,5.81608c-0.02337,15.94138 0.14635,31.88437 -0.17903,47.82424c-1.72023,5.95739 -9.27842,9.73163 -15.92452,8.76065zm0.67015,-2.60411c5.41383,-1.53401 10.4521,-4.73549 13.02779,-9.3377c0.22503,-2.84501 -3.76986,-2.2532 -5.57562,-1.2926c-3.18033,1.41997 -6.17362,3.28523 -8.65384,5.56425c-1.64697,1.34862 -3.74333,5.49392 0.18536,5.25873l0.5427,-0.06825l0.47361,-0.12443l0,0l0,0z" stroke-width="2" fill="#3a3a3a"/>
  <path transform="rotate(-15 327.51 39.8724)" stroke="#3a3a3a" id="svg_24" d="m307.57548,66.90227c-3.33271,-0.55165 -4.48194,-4.40546 -2.49498,-6.71431c2.63694,-3.5708 8.2776,-5.97796 12.69713,-3.72487c0.08808,-12.5742 0.03725,-25.14909 0.05072,-37.7236c11.01983,-2.03489 22.06349,-3.96513 33.08749,-5.98232c-0.02387,14.0929 -0.04775,28.1858 -0.07162,42.27869c-1.72702,4.26254 -7.30745,7.21835 -12.16657,5.8966c-2.89289,-0.79262 -3.58642,-4.21047 -1.97554,-6.30463c2.20594,-3.12384 6.31175,-5.26863 10.43941,-4.6835c1.17791,-0.10907 2.91248,1.63647 2.41462,-0.33818c0,-9.87835 0,-19.7567 0,-29.63505c-10.11574,1.8639 -20.25147,3.63927 -30.37189,5.483c-0.03455,11.49541 0.08599,22.99257 -0.09017,34.48656c-0.32203,3.49127 -3.98329,5.87321 -7.40102,6.80384c-1.35016,0.2084 -2.756,0.33772 -4.11756,0.15777l0,0zm26.38793,-46.8666c5.1975,-0.93622 10.39746,-1.86119 15.59271,-2.80779c0.66117,-2.4109 -2.29776,-0.84519 -3.74481,-0.78634c-8.87444,1.60348 -17.754,3.18322 -26.62708,4.79293c-0.66116,2.4109 2.29776,0.84519 3.74481,0.78634c3.67775,-0.66344 7.35599,-1.32462 11.03436,-1.98515l0,0z" stroke-width="5" fill="#3a3a3a"/>
  <path id="svg_25" d="m324.51199,577.72164c-5.43368,-0.70958 -6.99312,-7.5293 -3.3918,-11.09086c3.9428,-5.05775 11.48854,-8.25004 17.65095,-5.13531c0.25112,-19.27363 0.10904,-38.55139 0.14654,-57.82691c31.11249,-6.06583 62.26743,-11.93127 93.39334,-17.93326c-0.08968,21.30914 0.21885,42.62529 -0.21678,63.92887c-0.74722,5.49564 -6.50349,9.14537 -11.68566,10.28668c-4.54101,1.35647 -10.93533,-1.58247 -9.85981,-6.88164c1.32973,-5.73138 7.3974,-9.86113 13.2303,-10.36347c3.12409,-0.93608 7.74742,3.51924 6.32171,-1.93761c-0.0293,-16.75752 0.32266,-33.53884 -0.17304,-50.28179c-14.38542,2.52853 -28.91238,5.33301 -43.33648,8.04194c-0.08607,20.00373 0.20483,40.014 -0.2164,60.0125c-0.67364,5.51492 -6.46329,9.15491 -11.64872,10.24986c-5.27608,1.70251 -11.95875,-2.83297 -9.41413,-8.48324c3.10702,-6.65645 12.24183,-11.23015 19.25232,-7.52799c0.12453,-17.9611 0.05474,-35.92328 0.07309,-53.88488c-14.55194,2.90781 -29.12221,5.73271 -43.68822,8.57437c-0.26897,20.27285 0.22772,40.56455 -0.34368,60.8265c-2.00223,6.27581 -9.55407,10.29919 -16.09354,9.42622l0,0.00001z" stroke-width="2" stroke="#3a3a3a" fill="#3a3a3a"/>
  <path transform="rotate(15 174.685 523.454)" stroke="#3a3a3a" id="svg_26" d="m163.09244,552.05458c-2.545,-0.41784 -4.9089,-2.69051 -4.42878,-5.34348c0.24299,-2.91242 2.62307,-5.25643 5.0178,-6.80081c3.18706,-2.11037 7.54468,-2.89434 11.05689,-1.07418c0.20579,-14.68041 0.0885,-29.3645 0.11968,-44.04657c2.21482,-0.52162 1.4987,2.29887 2.00172,3.60321c0.47999,3.83549 3.12485,6.84506 5.75751,9.53246c3.26624,3.37794 6.73452,6.95957 7.79617,11.63948c1.15929,5.42972 -0.69402,10.98438 -3.09913,15.85044c-0.17416,1.55953 -3.11522,3.81581 -1.714,0.99766c2.35942,-4.82093 4.30859,-10.37303 2.69814,-15.71145c-1.53361,-5.32674 -6.31377,-9.77537 -12.00422,-10.57304c-0.03678,11.24781 0.08955,22.49775 -0.13486,33.74376c-0.55944,3.31268 -3.51761,5.77065 -6.48413,7.17418c-2.04556,0.86628 -4.35425,1.39041 -6.58279,1.00834l0,0z" stroke-width="5" fill="#3a3a3a"/>
  <path transform="rotate(12 465.995 96.9962)" stroke="#3a3a3a" id="svg_27" d="m460.58211,125.60803c-2.74636,-0.51471 -5.37901,-2.62447 -4.85848,-5.14901c0.04002,-3.14951 3.20348,-5.37213 5.99927,-7.07655c3.61183,-2.09106 8.59062,-2.75263 12.56338,-0.97735c0.23808,-14.713 0.10362,-29.42961 0.13916,-44.14427c0.69401,0.13677 2.20469,-0.41107 1.85543,0.60028c-0.03405,15.29898 0.07796,30.59877 -0.08904,45.8971c-0.01753,2.07557 -0.05093,4.3247 -1.79299,5.9706c-3.21766,3.39672 -8.59013,5.65052 -13.81672,4.8792l0,0z" fill="#3a3a3a"/>
  <path transform="rotate(40 206.948 54.7273)" id="svg_28" d="m197.29464,85.49679c-2.20835,-0.40954 -3.90923,-2.82786 -3.41974,-5.416c0.57951,-3.41584 3.29011,-5.82347 5.9468,-7.16034c2.14888,-1.00127 4.77374,-1.16726 6.81779,0.23598c0.08144,-16.43988 0.03565,-32.88045 0.04773,-49.32064c0.72135,-0.03518 1.54766,-0.20706 1.35076,0.95377c0.05861,2.73722 1.47854,5.04551 3.24271,6.75795c3.74754,3.95259 7.90194,8.52504 8.23216,14.71584c0.35313,2.42542 -0.78398,4.81262 -0.30252,7.16709c0.45956,2.32069 0.32255,4.72978 0.0323,7.06238c1.36475,4.18653 1.0352,9.0068 -0.45159,13.09475c0.13734,1.27757 -2.50701,3.36189 -1.34865,1.23269c1.56415,-3.88342 2.38697,-8.65964 0.69077,-12.65568c-2.05426,-3.873 -5.7926,-5.85884 -8.85801,-8.50309c-2.13363,-2.45837 -0.98349,2.31818 -1.30135,3.7421c-0.04743,6.98495 -0.05118,13.97015 -0.07441,20.95524c-0.95527,2.66092 -2.70748,4.91373 -5.04114,6.06885c-1.71082,0.91358 -3.67629,1.51755 -5.56361,1.06911l0,0zm20.80833,-30.11139c-1.32216,-5.42475 -5.52858,-9.10134 -9.63508,-11.75101c-1.12413,-0.17984 0.33328,2.93223 0.64909,3.89594c1.47084,3.29969 4.36723,5.24742 6.45583,7.97267c0.91114,0.86356 1.94834,2.64555 2.65939,3.12227c0.10332,-1.07491 0.04076,-2.17751 -0.12923,-3.23987l0,0zm0.16635,-7.40001c-0.02093,-4.55956 -3.01456,-8.19391 -5.91609,-10.9076c-1.3529,-1.02435 -2.98896,-2.74921 -4.37846,-2.95602c0.26443,2.53804 1.25908,5.02341 3.08624,6.58014c2.59956,2.88613 5.3479,5.76502 7.15157,9.38956c0.20764,-0.63008 0.02375,-1.43384 0.05674,-2.10608z" stroke="#3a3a3a" fill="#3a3a3a"/>
  <path transform="rotate(-15 40.4744 253.718)" stroke="#3a3a3a" id="svg_29" d="m28.88229,282.31849c-2.545,-0.41784 -4.9089,-2.69051 -4.42878,-5.34348c0.24299,-2.91242 2.62307,-5.25643 5.0178,-6.80081c3.18706,-2.11037 7.54468,-2.89434 11.05689,-1.07418c0.20579,-14.68041 0.0885,-29.3645 0.11968,-44.04657c2.21482,-0.52162 1.4987,2.29887 2.00172,3.60321c0.47999,3.83549 3.12485,6.84506 5.75751,9.53246c3.26624,3.37794 6.73452,6.95957 7.79617,11.63948c1.15929,5.42972 -0.69402,10.98438 -3.09913,15.85044c-0.17416,1.55953 -3.11522,3.81581 -1.714,0.99766c2.35942,-4.82093 4.30859,-10.37303 2.69814,-15.71145c-1.53361,-5.32674 -6.31377,-9.77537 -12.00422,-10.57304c-0.03678,11.24781 0.08955,22.49775 -0.13486,33.74376c-0.55944,3.31268 -3.51761,5.77065 -6.48413,7.17418c-2.04556,0.86628 -4.35425,1.39041 -6.58279,1.00834l0,0z" fill="#3a3a3a"/>
  <path transform="rotate(-40 67.1384 440.042)" stroke="#3a3a3a" id="svg_31" d="m61.52124,471.18296c-3.96285,-0.4203 -5.63901,-4.55977 -4.82895,-7.65838c1.39363,-4.89477 6.8457,-8.27737 12.31568,-8.82731c2.0754,-0.15266 4.36369,-0.12679 6.07297,1.03869c1.40279,-0.49645 0.41583,-2.45438 0.67187,-3.6279c0,-14.44203 0,-28.88405 0,-43.32607c3.52769,-0.45793 1.24977,3.99306 1.87198,5.81608c-0.02337,15.94138 0.14635,31.88437 -0.17903,47.82424c-1.72023,5.95739 -9.27842,9.73163 -15.92452,8.76065zm0.67015,-2.60411c5.41383,-1.53401 10.4521,-4.73549 13.02779,-9.3377c0.22503,-2.84501 -3.76986,-2.2532 -5.57562,-1.2926c-3.18033,1.41997 -6.17362,3.28523 -8.65384,5.56425c-1.64697,1.34862 -3.74333,5.49392 0.18536,5.25873l0.5427,-0.06825l0.47361,-0.12443l0,0l0,0z" stroke-width="2" fill="#3a3a3a"/>
 </g>

</svg>