<svg width="600" height="600" xmlns="http://www.w3.org/2000/svg">
 <g>
  <title>Layer 1</title>
  <ellipse fill="#fff" cx="301.33327" cy="300.83331" id="svg_1" rx="299.33331" ry="299.49997" stroke="#000"/>
  <path fill="none" stroke="#000" stroke-width="5" d="m280.08809,643.92269l0.56913,0l0.17587,-0.54067l0.17587,0.54067l0.56913,0l-0.46044,0.33415l0.17588,0.54067l-0.46044,-0.33416l-0.46044,0.33416l0.17588,-0.54067l-0.46044,-0.33415z" id="svg_30"/>
  <path stroke="null" id="svg_4" d="m229.33895,517.07626c-137.37145,-111.56292 -186.48722,-182.13563 -186.88527,-268.52938c-0.363,-78.75849 60.26787,-154.77204 123.1011,-154.33368c31.3761,0.21933 98.67986,29.20678 122.51234,52.76629c12.00821,11.87064 17.69588,10.70008 44.43088,-9.14422c72.76138,-54.00771 143.81361,-55.14131 189.83016,-3.0284c73.54422,83.28738 60.15468,182.74773 -38.49036,285.91496c-52.44538,54.8497 -166.97458,152.15613 -179.08695,152.15613c-3.68563,0 -37.62095,-25.11082 -75.41188,-55.80172l0,0.00002z" fill="#00bfbf"/>
  <path id="svg_5" d="m324.38703,225.80747c-14.95435,-7.45825 -20.30113,-12.1762 -20.34446,-17.95183c-0.03952,-5.26519 6.5608,-10.34688 13.40087,-10.31758c3.41563,0.01466 10.74236,1.95254 13.33678,3.52755c1.30722,0.79358 1.92639,0.71533 4.83678,-0.61131c7.92086,-3.61054 15.65565,-3.68633 20.66505,-0.20246c8.00608,5.56796 6.54848,12.21712 -4.19009,19.1141c-5.70924,3.66683 -18.17697,10.172 -19.49553,10.172c-0.40122,0 -4.09544,-1.67872 -8.20939,-3.73048l0,0z" stroke="null" fill="#00bfbf"/>
 </g>

</svg>