<svg width="600" height="600" xmlns="http://www.w3.org/2000/svg">
 <g>
  <title>Layer 1</title>
  <ellipse fill="#fff" cx="301.33327" cy="300.83331" id="svg_1" rx="299.33331" ry="299.49997" stroke="#000"/>
  <path fill="none" stroke="#000" stroke-width="5" d="m280.08809,643.92269l0.56913,0l0.17587,-0.54067l0.17587,0.54067l0.56913,0l-0.46044,0.33415l0.17588,0.54067l-0.46044,-0.33416l-0.46044,0.33416l0.17588,-0.54067l-0.46044,-0.33415z" id="svg_30"/>
  <path stroke-width="9" stroke="#9acee6" id="svg_2" d="m288.90003,526.1029c-26.9846,-6.9453 -42.61754,-35.49893 -40.77355,-61.40185c-0.69081,-33.83405 2.52662,-69.4361 -14.14906,-100.54613c-9.50493,-23.22799 -25.69667,-43.73625 -32.45372,-67.94234c-8.40846,-37.5541 1.97778,-80.11788 33.27205,-105.3294c35.29256,-29.34075 91.6521,-33.16499 130.50221,-8.22713c27.40127,18.31238 47.1719,48.5158 46.43741,81.47483c3.21522,24.6277 -6.8029,47.79219 -18.58811,68.96372c-8.44362,17.0467 -18.30454,33.72772 -25.96843,50.96449c-2.02039,35.34176 -0.86166,71.00769 -6.34176,106.04546c-9.12882,27.15026 -43.53188,45.60974 -71.93705,35.99833l0,0.00001zm71.27035,-63.19166c-16.0146,-8.37531 -39.02749,-2.93009 -57.64213,-4.73316c-15.20569,2.95081 -42.22459,-6.05235 -50.30824,7.45277c18.48681,7.0164 40.21269,1.7568 59.89365,2.91763c15.74773,-1.46743 33.86584,1.39157 48.05672,-5.63725l0,0.00001zm-1.19938,-15.7599c2.35681,-21.27823 -32.32409,-10.42033 -46.41277,-13.5879c-18.64729,3.66198 -48.32277,-7.83859 -60.05044,8.51019c6.94946,16.42927 37.9422,4.87475 54.21705,8.51998c17.35548,-0.59669 35.36095,0.60352 52.24614,-3.44227l0.00002,0zm0.21592,-37.28131c4.57831,-41.45054 30.70009,-75.96337 45.82577,-113.88008c12.43619,-45.39719 -12.19331,-97.26139 -56.78476,-116.3172c-44.38393,-21.34215 -103.5177,-5.21945 -128.60053,36.60004c-24.16749,34.54398 -19.55529,81.4796 4.0654,115.07334c16.85395,29.35916 30.30082,62.3527 28.11037,96.52004c34.98486,0 69.96974,0 104.95464,0c0.80975,-5.99863 1.61922,-11.99765 2.42912,-17.99614zm-77.45066,-58.72418c-13.86115,-23.38355 -28.09064,-46.94728 -37.74286,-72.28931c8.67796,-10.89874 11.20243,-23.03877 13.8982,-35.84425c24.35644,-4.64175 -3.10029,26.92974 19.89565,27.64121c20.4124,8.61681 11.45779,-41.81152 28.4168,-23.63449c-12.17377,19.94916 23.91252,39.7948 25.23691,11.2566c-1.7494,-21.54769 21.81151,-17.51054 12.6256,2.03765c0.75817,10.05594 17.6331,12.93884 17.92202,21.02671c-12.14827,25.56601 -22.70773,51.96093 -37.09266,76.43602c-3.23789,-9.47609 12.73489,-33.22631 17.83883,-47.17137c9.84872,-12.05431 18.31184,-44.53968 -7.36317,-40.11159c-14.89377,22.53873 -34.92906,-14.20722 -49.51213,7.39277c-12.37951,3.58274 -31.84977,-20.80112 -35.44094,2.64442c9.32372,27.84729 28.72432,51.58026 38.87504,79.1401c-3.44441,-1.97032 -5.40574,-5.42707 -7.5573,-8.5245l0,0.00001zm-19.45564,-102.05693c-6.74032,-3.19168 2.84098,16.96761 -0.00014,0l0.00014,0zm40.28677,2.3811c-8.74964,-14.36685 -4.05706,17.43149 0,0zm39.04933,0c-8.74964,-14.36685 -4.05712,17.43149 0,0zm-181.79282,-106.15868c-15.46481,-15.22798 -32.55925,-29.51693 -46.00856,-46.30235c33.59929,26.98455 64.35218,57.37493 94.63161,87.84143c8.04052,10.71982 -14.02722,-10.01056 -18.13437,-13.48543c-10.27655,-9.23401 -20.41849,-18.60837 -30.48869,-28.05365l0.00002,0zm238.80775,43.53838c26.13931,-31.59971 50.52788,-64.72755 78.7099,-94.644c-4.71903,12.88052 -19.90994,28.293 -29.46142,41.55877c-15.9509,19.25374 -30.86081,39.61102 -49.10107,56.87388c-2.27658,2.33469 -5.67607,-3.19519 -0.14717,-3.78865l-0.00023,0l-0.00002,0zm-56.61835,-29.97821c9.03135,-25.06309 22.13149,-48.92019 36.74654,-71.3511c-0.33967,12.44354 -15.84001,36.02819 -23.29044,51.45769c-4.21466,6.20898 -7.76961,16.111 -13.4561,19.8934zm-115.65518,-32.14248c-6.29117,-8.90331 -25.22928,-29.63439 -21.69325,-32.46155c18.25878,19.64176 36.82938,39.91512 49.9456,63.14319c-11.16978,-8.31164 -19.2069,-20.3164 -28.25236,-30.68164l0.00002,0zm72.3042,-7.007c-1.27324,-8.36141 2.67929,-48.27696 4.8751,-21.17348c0.0078,16.98159 1.83475,36.0987 -3.03707,51.55514c-2.08623,-9.93726 -1.58007,-20.28257 -1.83803,-30.38165z" fill="#9acee6"/>
 </g>

</svg>