<svg width="600" height="600" xmlns="http://www.w3.org/2000/svg">
 <g>
  <title>Layer 1</title>
  <ellipse fill="#fff" cx="301.33327" cy="300.83331" id="svg_1" rx="299.33331" ry="299.49997" stroke="#000"/>
  <path fill="none" stroke="#000" stroke-width="5" d="m280.08809,643.92269l0.56913,0l0.17587,-0.54067l0.17587,0.54067l0.56913,0l-0.46044,0.33415l0.17588,0.54067l-0.46044,-0.33416l-0.46044,0.33416l0.17588,-0.54067l-0.46044,-0.33415z" id="svg_30"/>
  <path id="svg_8" d="m-84.78291,407.2831l-0.12517,0l0.06259,0.03554l0.06259,-0.03554zm-0.05888,0.05068c-0.00115,0.00066 -0.00243,0.00099 -0.0037,0.00099s-0.00255,-0.00033 -0.00371,-0.00099l-0.0638,-0.03622l0,0.07387l0.135,0l0,-0.07387l-0.0638,0.03622z" stroke="#000" fill="#333f44"/>
  <path id="svg_9" d="m-90.15729,127.08337l0.745,-1.30375l0.745,1.30375l-1.49,0z" stroke="#000" fill="#333f44"/>
  <path stroke="#000" id="svg_11" d="m422.64421,204.92756l0,-57.33041l-0.01876,0c-0.01876,-70.7628 -53.21522,-128.11344 -118.85233,-128.11344s-118.85233,57.37087 -118.85233,128.13367l0,0l0,57.31018l-42.98874,0l0,246.13235l323.68214,0l0,-246.13235l-42.96998,0zm-200.17629,-57.31018c0,0 0,0 0,0c0,-48.34851 36.47757,-87.67466 81.3052,-87.67466c44.86516,0 81.34273,39.32615 81.34273,87.65443c0,0 0,0 0,0l0,57.33041l-162.64793,0l0,-57.31018z" fill="#619E73"/>
  <path transform="rotate(-120 289.153 459.64)" stroke="#000" id="svg_12" d="m322.65065,459.58715l0.07978,-0.0549l-5.14149,-8.3445c14.6621,-20.36717 16.63005,-48.6671 2.65939,-71.36743c-18.11044,-29.39789 -55.87376,-38.07178 -84.35582,-19.379c-28.47319,18.68363 -36.90346,57.66123 -18.79302,87.07742c13.54515,21.97751 38.11791,32.36239 61.55599,28.38228l3.7586,6.12113l1.82611,0.41174l6.90555,-4.0899l-2.70371,12.5991l22.01088,5.05062l-2.62393,12.12331l16.86939,3.87946l-6.02795,27.99799l12.46367,2.86385l-3.7586,17.43927l36.65525,8.3994l6.71939,-31.03568l-48.09948,-78.07414zm-65.50962,-64.64243c-6.07227,3.98926 -14.12136,2.13187 -17.98633,-4.13565c-3.85611,-6.26752 -2.07432,-14.58458 3.99795,-18.56468s14.13022,-2.13187 17.97747,4.13565c3.87384,6.26752 2.07432,14.58458 -3.98908,18.56468z" fill="#333f44"/>
 </g>

</svg>