<svg width="600" height="600" xmlns="http://www.w3.org/2000/svg">
 <g>
  <title>Layer 1</title>
  <ellipse fill="#fff" cx="301.33327" cy="300.83331" id="svg_1" rx="299.33331" ry="299.49997" stroke="#000"/>
  <path fill="none" stroke="#000" stroke-width="5" d="m280.08809,643.92269l0.56913,0l0.17587,-0.54067l0.17587,0.54067l0.56913,0l-0.46044,0.33415l0.17588,0.54067l-0.46044,-0.33416l-0.46044,0.33416l0.17588,-0.54067l-0.46044,-0.33415z" id="svg_30"/>
  <path id="svg_7" d="m516.02905,133.69272l-423.33052,0l211.66526,130.23505l211.66526,-130.23505zm-199.13479,185.71503c-3.88935,2.40022 -8.20146,3.6095 -12.51356,3.6095s-8.62421,-1.20927 -12.53048,-3.6095l-215.75753,-132.70856l0,270.67562l456.57602,0l0,-270.67562l-215.77444,132.70856z" stroke="#000" fill="#AF84A3"/>
  <path id="svg_8" d="m-84.78291,407.2831l-0.12517,0l0.06259,0.03554l0.06259,-0.03554zm-0.05888,0.05068c-0.00115,0.00066 -0.00243,0.00099 -0.0037,0.00099s-0.00255,-0.00033 -0.00371,-0.00099l-0.0638,-0.03622l0,0.07387l0.135,0l0,-0.07387l-0.0638,0.03622z" stroke="#000" fill="#4a5e7c"/>
  <path id="svg_9" d="m-90.15729,127.08337l0.745,-1.30375l0.745,1.30375l-1.49,0z" stroke="#000" fill="#4a5e7c"/>
  <path transform="rotate(180 304.327 197.516)" stroke="#000" id="svg_10" d="m77.35481,263.96296l226.97223,-132.89389l226.97223,132.89389l-453.94446,0z" fill="#4a5e7c"/>
 </g>

</svg>