<svg width="600" height="600" xmlns="http://www.w3.org/2000/svg">
 <g>
  <title>Layer 1</title>
  <ellipse fill="#fff" cx="299.99994" cy="299.49998" id="svg_1" rx="299.33331" ry="299.49997" stroke="#000"/>
  <path fill="none" stroke="#000" stroke-width="5" d="m280.08809,643.92269l0.56913,0l0.17587,-0.54067l0.17587,0.54067l0.56913,0l-0.46044,0.33415l0.17588,0.54067l-0.46044,-0.33416l-0.46044,0.33416l0.17588,-0.54067l-0.46044,-0.33415z" id="svg_30"/>
  <path id="svg_6" d="m-97.57258,98.16746c-0.0841,-0.01521 -0.1131,-0.12145 -0.06296,-0.1851c0.06654,-0.09844 0.20888,-0.1648 0.3204,-0.10269c0.00222,-0.34665 0.00094,-0.69332 0.00128,-1.03999c0.27807,-0.0561 0.55675,-0.10931 0.83493,-0.16492c-0.0006,0.38852 -0.0012,0.77704 -0.00181,1.16556c-0.04358,0.11751 -0.1844,0.199 -0.30701,0.16256c-0.073,-0.02185 -0.0905,-0.11608 -0.04985,-0.17381c0.05566,-0.08612 0.15927,-0.14525 0.26343,-0.12912c0.02972,-0.00301 0.07349,0.04512 0.06093,-0.00932c0,-0.23356 0,-0.46711 0,-0.70067c-0.25526,0.05139 -0.51102,0.10033 -0.7664,0.15116c-0.00114,0.28176 0.00283,0.56362 -0.00294,0.8453c-0.0176,0.09456 -0.11057,0.16004 -0.20029,0.17913c-0.02964,0.00353 -0.06005,0.00659 -0.08971,0.00191l0,0zm0.66587,-1.17572c0.13115,-0.02581 0.26237,-0.05131 0.39346,-0.07741c0.01668,-0.06647 -0.05798,-0.0233 -0.0945,-0.02168c-0.22394,0.04421 -0.448,0.08776 -0.67191,0.13213c-0.01668,0.06647 0.05798,0.0233 0.0945,0.02168c0.0928,-0.01829 0.18562,-0.03652 0.27844,-0.05473zm0,-0.11633c0.13115,-0.02581 0.26237,-0.05131 0.39346,-0.07741c0.01668,-0.06647 -0.05798,-0.0233 -0.0945,-0.02168c-0.22394,0.04421 -0.448,0.08776 -0.67191,0.13213c-0.01668,0.06647 0.05798,0.0233 0.0945,0.02168c0.0928,-0.01829 0.18562,-0.03652 0.27844,-0.05473z" stroke="#000" fill="#fff"/>
  <path id="svg_7" d="m107.50691,510.74693c-28.95194,-4.46222 -38.93542,-35.63464 -21.67438,-54.31032c22.90759,-28.88323 71.90912,-48.35415 110.30243,-30.12957c0.76518,-101.70939 0.32356,-203.42433 0.44059,-305.13617c95.73143,-16.45974 191.66987,-32.07291 287.43757,-48.38945c-0.20739,113.99373 -0.41479,227.98746 -0.62218,341.98117c-15.003,34.47854 -63.48128,58.3873 -105.69347,47.69606c-25.13111,-6.41132 -31.15594,-34.05738 -17.16197,-50.99649c19.16348,-25.2679 54.8314,-42.61653 90.68923,-37.88358c10.23282,-0.88221 25.30135,13.23699 20.97627,-2.73544c0,-68.52628 0,-137.05253 0,-205.5788c-87.87738,15.07661 -175.92855,29.4371 -263.84659,44.35058c-0.39369,82.66976 0.97593,165.36947 -1.01154,248.01525c-6.05777,27.74406 -38.06599,46.95775 -68.95225,52.5578c-10.20263,1.03607 -20.67294,1.93424 -30.88371,0.55895l-0.00002,0zm229.23712,-344.96024c45.15173,-7.57282 90.32473,-15.05469 135.45696,-22.71143c5.74368,-19.50116 -19.96108,-6.83654 -32.5319,-6.36048c-77.094,12.97013 -154.23252,25.74825 -231.31469,38.76878c-5.7437,19.50116 19.96106,6.83654 32.53194,6.36048c31.94932,-5.36644 63.90292,-10.71449 95.85769,-16.05735zm0,-34.13135c45.15173,-7.57282 90.32473,-15.0547 135.45696,-22.71144c5.74368,-19.50114 -19.96108,-6.83654 -32.5319,-6.36046c-77.094,12.97013 -154.23252,25.74826 -231.31469,38.76878c-5.7437,19.50116 19.96106,6.83655 32.53194,6.36048c31.94932,-5.36642 63.90292,-10.71451 95.85769,-16.05735z" stroke="#AF84A3" fill="#AF84A3"/>
 </g>

</svg>