<svg width="600" height="600" xmlns="http://www.w3.org/2000/svg">
 <g>
  <title>Layer 1</title>
  <ellipse fill="#fff" cx="299.99994" cy="299.49998" id="svg_1" rx="299.33331" ry="299.49997" stroke="#000"/>
  <path fill="none" stroke="#000" stroke-width="5" d="m280.08809,643.92269l0.56913,0l0.17587,-0.54067l0.17587,0.54067l0.56913,0l-0.46044,0.33415l0.17588,0.54067l-0.46044,-0.33416l-0.46044,0.33416l0.17588,-0.54067l-0.46044,-0.33415z" id="svg_30"/>
  <path id="svg_6" d="m-97.57258,98.16746c-0.0841,-0.01521 -0.1131,-0.12145 -0.06296,-0.1851c0.06654,-0.09844 0.20888,-0.1648 0.3204,-0.10269c0.00222,-0.34665 0.00094,-0.69332 0.00128,-1.03999c0.27807,-0.0561 0.55675,-0.10931 0.83493,-0.16492c-0.0006,0.38852 -0.0012,0.77704 -0.00181,1.16556c-0.04358,0.11751 -0.1844,0.199 -0.30701,0.16256c-0.073,-0.02185 -0.0905,-0.11608 -0.04985,-0.17381c0.05566,-0.08612 0.15927,-0.14525 0.26343,-0.12912c0.02972,-0.00301 0.07349,0.04512 0.06093,-0.00932c0,-0.23356 0,-0.46711 0,-0.70067c-0.25526,0.05139 -0.51102,0.10033 -0.7664,0.15116c-0.00114,0.28176 0.00283,0.56362 -0.00294,0.8453c-0.0176,0.09456 -0.11057,0.16004 -0.20029,0.17913c-0.02964,0.00353 -0.06005,0.00659 -0.08971,0.00191l0,0zm0.66587,-1.17572c0.13115,-0.02581 0.26237,-0.05131 0.39346,-0.07741c0.01668,-0.06647 -0.05798,-0.0233 -0.0945,-0.02168c-0.22394,0.04421 -0.448,0.08776 -0.67191,0.13213c-0.01668,0.06647 0.05798,0.0233 0.0945,0.02168c0.0928,-0.01829 0.18562,-0.03652 0.27844,-0.05473zm0,-0.11633c0.13115,-0.02581 0.26237,-0.05131 0.39346,-0.07741c0.01668,-0.06647 -0.05798,-0.0233 -0.0945,-0.02168c-0.22394,0.04421 -0.448,0.08776 -0.67191,0.13213c-0.01668,0.06647 0.05798,0.0233 0.0945,0.02168c0.0928,-0.01829 0.18562,-0.03652 0.27844,-0.05473z" stroke="#000" fill="#fff"/>
  <path transform="rotate(45 298.472 294.889)" stroke="#00bfbf" id="svg_10" d="m299.74224,53.19052c-5.18369,0 -9.79556,2.07368 -13.68679,5.83516c-3.88794,3.75839 -7.10383,9.14385 -9.77989,15.86971c-5.35137,13.44984 -8.6432,32.34382 -10.44381,54.97111c-1.79707,22.58375 -2.09992,48.88045 -1.35332,77.03053c-64.03127,25.59888 -193.89862,78.45371 -204.331,90.25508c-13.88951,15.71218 -9.40183,33.71922 -3.80472,45.67303l213.49803,-42.34646c4.51287,55.18467 10.92951,109.84218 16.52111,152.67053c-20.87881,5.95482 -59.85278,17.71285 -67.89749,25.00417c-11.08227,10.04439 -11.08219,42.48252 -11.08219,42.48252l87.38075,-6.9258c2.05801,13.98245 3.34505,22.14112 3.34505,22.14112l0.12769,0.73623l0.68947,0l1.60867,0l0.68945,0l0.12769,-0.73623c0,0 1.2846,-8.15882 3.34503,-22.14112l87.4063,6.9258c0,0 0.0001,-32.43813 -11.0822,-42.48252c-8.04772,-7.29414 -47.05014,-19.07882 -67.92304,-25.0316c5.58004,-42.69691 11.98537,-97.14528 16.4956,-152.15216l210.99568,41.85551c5.59704,-11.95381 10.11038,-29.96085 -3.77916,-45.67303c-10.30332,-11.65531 -137.03258,-63.33457 -201.85412,-89.27354c0.77449,-28.51494 0.48981,-55.17 -1.32782,-78.01207l0,-0.05453c-1.80153,-22.60233 -5.09686,-41.4779 -10.44376,-54.91657c-2.67529,-6.72399 -5.86501,-12.11001 -9.75435,-15.86971c-3.89126,-3.76148 -8.50309,-5.83516 -13.68674,-5.83516l-0.0001,0.00002z" fill="#00bfbf"/>
 </g>

</svg>