<svg width="600" height="600" xmlns="http://www.w3.org/2000/svg">

 <g>
  <title>Layer 1</title>
  <ellipse stroke="#000" ry="299.49997" rx="299.33331" id="svg_1" cy="300.83331" cx="301.33327" fill="#fff"/>
  <path id="svg_30" d="m280.08809,643.92269l0.56913,0l0.17587,-0.54067l0.17587,0.54067l0.56913,0l-0.46044,0.33415l0.17588,0.54067l-0.46044,-0.33416l-0.46044,0.33416l0.17588,-0.54067l-0.46044,-0.33415z" stroke-width="5" stroke="#000" fill="none"/>
  <path id="svg_56" d="m159.17349,245.72891c-18.60974,-1.91001 -31.44486,-16.65249 -25.37964,-29.62455c3.74905,-12.57583 22.93734,-16.01601 35.66046,-22.65297c40.42369,-17.31859 81.07764,-34.35466 121.62668,-51.51933c2.13001,-8.37287 -6.46554,-13.5888 -15.64771,-17.5247c-18.37281,-10.5368 -17.37158,-31.53687 -1.81266,-43.2671c18.23494,-15.46658 56.60403,-10.60456 67.98241,7.68954c11.03768,8.1305 -0.20981,28.04523 -15.69171,18.45933c-1.6149,-10.88998 -14.50271,-23.65942 -31.50939,-16.74294c-17.7439,7.36015 -7.25936,24.51614 9.1295,27.97174c11.06254,5.34961 9.58788,15.27118 10.17484,23.63537c48.59441,20.94923 97.80186,41.18118 145.7303,62.91734c19.08121,10.69869 11.2339,36.44969 -12.79566,39.93939c-18.21748,1.89362 -36.90802,0.55984 -55.30811,1.07767c-77.38267,0.04313 -154.78561,0.42352 -232.15933,-0.35879l0.00001,0zm281.55244,-17.69807c13.9321,-10.02486 -12.12403,-15.41656 -20.70688,-20.32717c-39.52692,-16.75892 -78.92737,-33.69471 -118.92029,-49.86569c-46.86152,19.21687 -93.61686,38.6256 -139.60631,58.91342c-9.73794,2.81445 -2.96035,14.06608 6.09351,12.33332c89.05165,-0.1382 178.1119,0.33908 267.15673,-0.34804c1.97159,-0.18209 4.19291,0.06488 5.98324,-0.70586l0,0.00001z" fill="#008080"/>
  <path id="svg_53" d="m371.12857,160.19609c-11.17643,24.21162 -38.0611,41.31869 -69.55715,41.31869c-31.51564,0 -58.40609,-17.10706 -69.55774,-41.31869l-170.31805,63.56926l47.91758,99.39192l52.62989,-19.65123l0,202.63774l280.50834,0l0,-201.92168l50.74023,18.94648l47.93603,-99.39183l-170.29913,-63.58064l0,-0.00001z" fill="#00bfbf"/>
 </g>
</svg>