<svg width="600" height="600" xmlns="http://www.w3.org/2000/svg">

 <g>
  <title>Layer 1</title>
  <path fill="#bfbf91" opacity="NaN" d="m66.56752,446.04791c0,0 230.98261,-182.80287 232.01977,-184.07982c0.37127,1.27695 232.76231,305.30699 232.39105,304.03006c0.37126,1.27693 -292.58229,28.2163 -292.95357,26.93937c0.37128,1.27693 -147.51393,-48.75333 -147.88522,-50.03026c0.37128,1.27693 -23.57204,-96.85935 -23.57204,-96.85935l0.00001,0z" id="svg_47" stroke="#ffffff"/>
  <path fill="#ffd4aa" stroke-width="2" opacity="NaN" d="m456.25611,173.71695l-204.68185,38.10877l108.43949,41.93513l-63.78794,125.80542l121.19708,167.74053l38.83322,-373.58985z" id="svg_49" stroke="#ffffff" transform="rotate(-40 353.915 360.512)"/>
  <path transform="rotate(50 395.618 37.29)" fill="#c5c5f9" opacity="NaN" d="m134.77548,233.50185l351.21495,-392.844l170.47082,337.37937l-332.69306,55.88493l-188.99271,-0.4203z" id="svg_48" stroke-width="2" stroke="#ffffff"/>
  <path fill="#f9cae1" stroke="#ffffff" stroke-width="2" opacity="NaN" d="m480.64611,579.79963l-108.82042,-306.56408l192.955,-184.50441l35.21077,173.23697l-4.22529,195.77186l-115.12005,122.05967l-0.00001,-0.00001z" id="svg_46"/>
  <path fill="#f9cae1" stroke="#ffffff" stroke-width="2" opacity="NaN" d="m69.38439,106.56696l84.13455,242.72384l-84.50584,209.85616l-66.19624,-139.43463l-1.40843,-250.70065l67.97596,-62.44472z" id="svg_45"/>
  <path fill="none" stroke="#000" stroke-width="5" d="m280.08809,643.92269l0.56913,0l0.17587,-0.54067l0.17587,0.54067l0.56913,0l-0.46044,0.33415l0.17588,0.54067l-0.46044,-0.33416l-0.46044,0.33416l0.17588,-0.54067l-0.46044,-0.33415z" id="svg_30"/>
  <path id="svg_6" d="m-97.57258,98.16746c-0.0841,-0.01521 -0.1131,-0.12145 -0.06296,-0.1851c0.06654,-0.09844 0.20888,-0.1648 0.3204,-0.10269c0.00222,-0.34665 0.00094,-0.69332 0.00128,-1.03999c0.27807,-0.0561 0.55675,-0.10931 0.83493,-0.16492c-0.0006,0.38852 -0.0012,0.77704 -0.00181,1.16556c-0.04358,0.11751 -0.1844,0.199 -0.30701,0.16256c-0.073,-0.02185 -0.0905,-0.11608 -0.04985,-0.17381c0.05566,-0.08612 0.15927,-0.14525 0.26343,-0.12912c0.02972,-0.00301 0.07349,0.04512 0.06093,-0.00932c0,-0.23356 0,-0.46711 0,-0.70067c-0.25526,0.05139 -0.51102,0.10033 -0.7664,0.15116c-0.00114,0.28176 0.00283,0.56362 -0.00294,0.8453c-0.0176,0.09456 -0.11057,0.16004 -0.20029,0.17913c-0.02964,0.00353 -0.06005,0.00659 -0.08971,0.00191l0,0zm0.66587,-1.17572c0.13115,-0.02581 0.26237,-0.05131 0.39346,-0.07741c0.01668,-0.06647 -0.05798,-0.0233 -0.0945,-0.02168c-0.22394,0.04421 -0.448,0.08776 -0.67191,0.13213c-0.01668,0.06647 0.05798,0.0233 0.0945,0.02168c0.0928,-0.01829 0.18562,-0.03652 0.27844,-0.05473l0.00001,0.00001zm0,-0.11633c0.13115,-0.02581 0.26237,-0.05131 0.39346,-0.07741c0.01668,-0.06647 -0.05798,-0.0233 -0.0945,-0.02168c-0.22394,0.04421 -0.448,0.08776 -0.67191,0.13213c-0.01668,0.06647 0.05798,0.0233 0.0945,0.02168c0.0928,-0.01829 0.18562,-0.03652 0.27844,-0.05473l0.00001,0.00001z" stroke="#000" fill="#fff"/>
  <path fill="#000000" stroke="null" opacity="NaN" id="svg_2"/>
  <path fill="#c5f7dd" stroke-width="2" opacity="NaN" d="m-43.29006,86.56725l193.99214,250.04767l254.92594,-225.3489l-243.6585,-90.13956" id="svg_39" stroke="#ffffff"/>
  <path fill="#ffffaa" stroke="#ffffff" stroke-width="2" opacity="NaN" d="m53.89165,478.58041l192.58371,-185.62684l-246.47536,4.22529l53.89165,181.40155z" id="svg_40"/>
  <path fill="#ffd4aa" stroke="#ffffff" stroke-width="2" opacity="NaN" d="m573.60252,152.76347l-135.5806,34.5578l71.82996,38.02763l-42.25292,114.08288l80.28055,152.11051l25.72301,-338.77881l0,-0.00001z" id="svg_41"/>
  <path fill="#c5f7dd" stroke="#ffffff" stroke-width="2" opacity="NaN" d="m79.2434,676.32408l72.86711,-165.06377l232.39105,8.45058l47.88664,111.26602l-66.19624,142.25149l-286.94856,-96.90433l0,0.00001z" id="svg_42"/>
  <path fill="#ffffaa" stroke="#ffffff" stroke-width="2" opacity="NaN" d="m170.79139,36.61491l127.79591,123.94618l135.20934,16.90117l59.15409,-87.3227l26.76018,-66.19624l-348.91952,12.67159z" id="svg_44"/>
  <path fill="#c5c5f9" opacity="NaN" d="m90.51084,405.34203l179.90784,-267.31582l87.3227,229.57419l-170.42011,38.02763l-96.81043,-0.286z" id="svg_37" stroke="#ffffff" stroke-width="2"/>
  <ellipse fill="none" stroke="#ffffff" stroke-width="99" cx="591.20791" cy="10.93452" id="svg_52" rx="55.63301" ry="34.50655"/>
  <ellipse fill="none" cx="299.66277" cy="298.11351" id="svg_51" rx="335.91067" ry="338.02331" stroke-width="99" stroke="#ffffff"/>
 </g><g><title>Layer 2</title>
  
  <path id="svg_30" d="m280.08809,643.92269l0.56913,0l0.17587,-0.54067l0.17587,0.54067l0.56913,0l-0.46044,0.33415l0.17588,0.54067l-0.46044,-0.33416l-0.46044,0.33416l0.17588,-0.54067l-0.46044,-0.33415z" stroke-width="5" stroke="#000" fill="none"/>
  <path id="svg_56" d="m159.17349,245.72891c-18.60974,-1.91001 -31.44486,-16.65249 -25.37964,-29.62455c3.74905,-12.57583 22.93734,-16.01601 35.66046,-22.65297c40.42369,-17.31859 81.07764,-34.35466 121.62668,-51.51933c2.13001,-8.37287 -6.46554,-13.5888 -15.64771,-17.5247c-18.37281,-10.5368 -17.37158,-31.53687 -1.81266,-43.2671c18.23494,-15.46658 56.60403,-10.60456 67.98241,7.68954c11.03768,8.1305 -0.20981,28.04523 -15.69171,18.45933c-1.6149,-10.88998 -14.50271,-23.65942 -31.50939,-16.74294c-17.7439,7.36015 -7.25936,24.51614 9.1295,27.97174c11.06254,5.34961 9.58788,15.27118 10.17484,23.63537c48.59441,20.94923 97.80186,41.18118 145.7303,62.91734c19.08121,10.69869 11.2339,36.44969 -12.79566,39.93939c-18.21748,1.89362 -36.90802,0.55984 -55.30811,1.07767c-77.38267,0.04313 -154.78561,0.42352 -232.15933,-0.35879l0.00001,0zm281.55244,-17.69807c13.9321,-10.02486 -12.12403,-15.41656 -20.70688,-20.32717c-39.52692,-16.75892 -78.92737,-33.69471 -118.92029,-49.86569c-46.86152,19.21687 -93.61686,38.6256 -139.60631,58.91342c-9.73794,2.81445 -2.96035,14.06608 6.09351,12.33332c89.05165,-0.1382 178.1119,0.33908 267.15673,-0.34804c1.97159,-0.18209 4.19291,0.06488 5.98324,-0.70586l0,0.00001z" fill="#444444"/>
  <path id="svg_53" d="m371.12857,160.19609c-11.17643,24.21162 -38.0611,41.31869 -69.55715,41.31869c-31.51564,0 -58.40609,-17.10706 -69.55774,-41.31869l-170.31805,63.56926l47.91758,99.39192l52.62989,-19.65123l0,202.63774l280.50834,0l0,-201.92168l50.74023,18.94648l47.93603,-99.39183l-170.29913,-63.58064l0,-0.00001z" fill="#2b2b2b"/>
 </g>
</svg>