<svg width="600" height="600" xmlns="http://www.w3.org/2000/svg">
 <g>
  <title>Layer 1</title>
  <path fill="#bfbf91" opacity="NaN" d="m66.56752,446.04791c0,0 230.98261,-182.80287 232.01977,-184.07982c0.37127,1.27695 232.76231,305.30699 232.39105,304.03006c0.37126,1.27693 -292.58229,28.2163 -292.95357,26.93937c0.37128,1.27693 -147.51393,-48.75333 -147.88522,-50.03026c0.37128,1.27693 -23.57204,-96.85935 -23.57204,-96.85935l0.00001,0z" id="svg_47" stroke="#ffffff"/>
  <path fill="#ffd4aa" stroke-width="2" opacity="NaN" d="m456.25611,173.71695l-204.68185,38.10877l108.43949,41.93513l-63.78794,125.80542l121.19708,167.74053l38.83322,-373.58985z" id="svg_49" stroke="#ffffff" transform="rotate(-40 353.915 360.512)"/>
  <path transform="rotate(50 395.618 37.29)" fill="#c5c5f9" opacity="NaN" d="m134.77548,233.50185l351.21495,-392.844l170.47082,337.37937l-332.69306,55.88493l-188.99271,-0.4203z" id="svg_48" stroke-width="2" stroke="#ffffff"/>
  <path fill="#f9cae1" stroke="#ffffff" stroke-width="2" opacity="NaN" d="m480.64611,579.79963l-108.82042,-306.56408l192.955,-184.50441l35.21077,173.23697l-4.22529,195.77186l-115.12005,122.05967l-0.00001,-0.00001z" id="svg_46"/>
  <path fill="#f9cae1" stroke="#ffffff" stroke-width="2" opacity="NaN" d="m69.38439,106.56696l84.13455,242.72384l-84.50584,209.85616l-66.19624,-139.43463l-1.40843,-250.70065l67.97596,-62.44472z" id="svg_45"/>
  <path fill="none" stroke="#000" stroke-width="5" d="m280.08809,643.92269l0.56913,0l0.17587,-0.54067l0.17587,0.54067l0.56913,0l-0.46044,0.33415l0.17588,0.54067l-0.46044,-0.33416l-0.46044,0.33416l0.17588,-0.54067l-0.46044,-0.33415z" id="svg_30"/>
  <path id="svg_6" d="m-97.57258,98.16746c-0.0841,-0.01521 -0.1131,-0.12145 -0.06296,-0.1851c0.06654,-0.09844 0.20888,-0.1648 0.3204,-0.10269c0.00222,-0.34665 0.00094,-0.69332 0.00128,-1.03999c0.27807,-0.0561 0.55675,-0.10931 0.83493,-0.16492c-0.0006,0.38852 -0.0012,0.77704 -0.00181,1.16556c-0.04358,0.11751 -0.1844,0.199 -0.30701,0.16256c-0.073,-0.02185 -0.0905,-0.11608 -0.04985,-0.17381c0.05566,-0.08612 0.15927,-0.14525 0.26343,-0.12912c0.02972,-0.00301 0.07349,0.04512 0.06093,-0.00932c0,-0.23356 0,-0.46711 0,-0.70067c-0.25526,0.05139 -0.51102,0.10033 -0.7664,0.15116c-0.00114,0.28176 0.00283,0.56362 -0.00294,0.8453c-0.0176,0.09456 -0.11057,0.16004 -0.20029,0.17913c-0.02964,0.00353 -0.06005,0.00659 -0.08971,0.00191l0,0zm0.66587,-1.17572c0.13115,-0.02581 0.26237,-0.05131 0.39346,-0.07741c0.01668,-0.06647 -0.05798,-0.0233 -0.0945,-0.02168c-0.22394,0.04421 -0.448,0.08776 -0.67191,0.13213c-0.01668,0.06647 0.05798,0.0233 0.0945,0.02168c0.0928,-0.01829 0.18562,-0.03652 0.27844,-0.05473l0.00001,0.00001zm0,-0.11633c0.13115,-0.02581 0.26237,-0.05131 0.39346,-0.07741c0.01668,-0.06647 -0.05798,-0.0233 -0.0945,-0.02168c-0.22394,0.04421 -0.448,0.08776 -0.67191,0.13213c-0.01668,0.06647 0.05798,0.0233 0.0945,0.02168c0.0928,-0.01829 0.18562,-0.03652 0.27844,-0.05473l0.00001,0.00001z" stroke="#000" fill="#fff"/>
  <path fill="#000000" stroke="null" opacity="NaN" id="svg_2"/>
  <path fill="#c5f7dd" stroke-width="2" opacity="NaN" d="m-43.29006,86.56725l193.99214,250.04767l254.92594,-225.3489l-243.6585,-90.13956" id="svg_39" stroke="#ffffff"/>
  <path fill="#ffffaa" stroke="#ffffff" stroke-width="2" opacity="NaN" d="m53.89165,478.58041l192.58371,-185.62684l-246.47536,4.22529l53.89165,181.40155z" id="svg_40"/>
  <path fill="#ffd4aa" stroke="#ffffff" stroke-width="2" opacity="NaN" d="m573.60252,152.76347l-135.5806,34.5578l71.82996,38.02763l-42.25292,114.08288l80.28055,152.11051l25.72301,-338.77881l0,-0.00001z" id="svg_41"/>
  <path fill="#c5f7dd" stroke="#ffffff" stroke-width="2" opacity="NaN" d="m79.2434,676.32408l72.86711,-165.06377l232.39105,8.45058l47.88664,111.26602l-66.19624,142.25149l-286.94856,-96.90433l0,0.00001z" id="svg_42"/>
  <path fill="#ffffaa" stroke="#ffffff" stroke-width="2" opacity="NaN" d="m170.79139,36.61491l127.79591,123.94618l135.20934,16.90117l59.15409,-87.3227l26.76018,-66.19624l-348.91952,12.67159z" id="svg_44"/>
  <path fill="#c5c5f9" opacity="NaN" d="m90.51084,405.34203l179.90784,-267.31582l87.3227,229.57419l-170.42011,38.02763l-96.81043,-0.286z" id="svg_37" stroke="#ffffff" stroke-width="2"/>
  <ellipse fill="none" stroke="#ffffff" stroke-width="99" cx="591.20791" cy="10.93452" id="svg_52" rx="55.63301" ry="34.50655"/>
  <ellipse fill="none" cx="299.66277" cy="298.11351" id="svg_51" rx="335.91067" ry="338.02331" stroke-width="99" stroke="#ffffff"/>
 </g><g><title>Layer 2</title>
  
  <path id="svg_30" d="m280.08809,643.92269l0.56913,0l0.17587,-0.54067l0.17587,0.54067l0.56913,0l-0.46044,0.33415l0.17588,0.54067l-0.46044,-0.33416l-0.46044,0.33416l0.17588,-0.54067l-0.46044,-0.33415z" stroke-width="5" stroke="#000" fill="none"/>
  <path fill="#fff" stroke="#000" d="m-97.57258,98.16746c-0.0841,-0.01521 -0.1131,-0.12145 -0.06296,-0.1851c0.06654,-0.09844 0.20888,-0.1648 0.3204,-0.10269c0.00222,-0.34665 0.00094,-0.69332 0.00128,-1.03999c0.27807,-0.0561 0.55675,-0.10931 0.83493,-0.16492c-0.0006,0.38852 -0.0012,0.77704 -0.00181,1.16556c-0.04358,0.11751 -0.1844,0.199 -0.30701,0.16256c-0.073,-0.02185 -0.0905,-0.11608 -0.04985,-0.17381c0.05566,-0.08612 0.15927,-0.14525 0.26343,-0.12912c0.02972,-0.00301 0.07349,0.04512 0.06093,-0.00932c0,-0.23356 0,-0.46711 0,-0.70067c-0.25526,0.05139 -0.51102,0.10033 -0.7664,0.15116c-0.00114,0.28176 0.00283,0.56362 -0.00294,0.8453c-0.0176,0.09456 -0.11057,0.16004 -0.20029,0.17913c-0.02964,0.00353 -0.06005,0.00659 -0.08971,0.00191l0,0zm0.66587,-1.17572c0.13115,-0.02581 0.26237,-0.05131 0.39346,-0.07741c0.01668,-0.06647 -0.05798,-0.0233 -0.0945,-0.02168c-0.22394,0.04421 -0.448,0.08776 -0.67191,0.13213c-0.01668,0.06647 0.05798,0.0233 0.0945,0.02168c0.0928,-0.01829 0.18562,-0.03652 0.27844,-0.05473l0.00001,0.00001zm0,-0.11633c0.13115,-0.02581 0.26237,-0.05131 0.39346,-0.07741c0.01668,-0.06647 -0.05798,-0.0233 -0.0945,-0.02168c-0.22394,0.04421 -0.448,0.08776 -0.67191,0.13213c-0.01668,0.06647 0.05798,0.0233 0.0945,0.02168c0.0928,-0.01829 0.18562,-0.03652 0.27844,-0.05473l0.00001,0.00001z" id="svg_6"/>
  <path id="svg_2" opacity="NaN" stroke="null" fill="#000000"/>
  <g stroke="null" id="svg_24">
   <ellipse stroke="#2b2b2b" ry="42.3893" rx="35.44702" id="svg_3" cy="459.54557" cx="136.14429" fill="#2b2b2b"/>
   <ellipse stroke="#2b2b2b" ry="42.3893" rx="35.44702" id="svg_5" cy="459.54557" cx="440.98869" fill="#2b2b2b"/>
   <rect stroke="#2b2b2b" stroke-width="10" id="svg_7" height="67.82288" width="308.38908" y="425.63413" x="132.59959" fill="none"/>
   <rect stroke="#2b2b2b" id="svg_8" height="258.57472" width="8.27097" y="207.56474" x="456.34904" stroke-width="10" fill="none"/>
   <rect stroke="#2b2b2b" transform="matrix(0.590784 -1.22367 1.02327 0.706488 -18.6041 532.702)" rx="5" stroke-width="10" id="svg_11" height="6" width="81.41154" y="229.61844" x="379.53058" fill="#fff"/>
   <rect stroke="#2b2b2b" rx="5" stroke-width="10" id="svg_12" height="8.47786" width="50.1121" y="230.85344" x="411.32792" fill="#fff"/>
  </g>
  <g stroke="null" id="svg_25">
   <rect stroke="#2b2b2b" transform="matrix(0.916876 0.89977 -0.916876 0.89977 306.694 -292.342)" rx="5" stroke-width="10" id="svg_14" height="9.53553" width="51.19833" y="320.53117" x="307.88722" fill="#fff"/>
   <rect stroke="#2b2b2b" transform="matrix(0 1.27247 -1.29666 0 828.133 -82.0867)" rx="5" stroke-width="10" id="svg_15" height="9.53553" width="78.72746" y="372.50193" x="313.2043" fill="#fff"/>
   <rect stroke="#2b2b2b" transform="matrix(0.916876 -0.89977 0.916876 0.89977 -316.685 267.046)" rx="5" stroke-width="10" id="svg_16" height="9.53553" width="51.19833" y="329.53117" x="258.88722" fill="#fff"/>
   <rect stroke="#2b2b2b" transform="matrix(1.12294 -0.636233 0.648329 1.10199 -317.351 99.4804)" rx="5" stroke-width="10" id="svg_17" height="9.53553" width="78.72746" y="365.50193" x="196.20431" fill="#fff"/>
   <rect stroke="#2b2b2b" transform="matrix(-0.225162 1.25314 -1.27696 -0.220962 696.115 -125.139)" rx="5" stroke-width="15" id="svg_18" height="9.53553" width="112.89152" y="254.1532" x="261.39708" fill="#fff"/>
   <ellipse stroke="#2b2b2b" ry="22.9044" rx="20.74654" id="svg_19" cy="90.92421" cx="318.92978" stroke-width="15" fill="#fff"/>
   <rect stroke="#2b2b2b" transform="matrix(0.916876 0.89977 -0.916876 0.89977 229.872 -339.381)" rx="5" stroke-width="10" id="svg_20" height="9.53553" width="51.19833" y="230.53117" x="322.88721" fill="#fff"/>
   <rect stroke="#2b2b2b" transform="matrix(-0.648329 1.10199 -1.12294 -0.636233 874.902 -96.21)" rx="5" stroke-width="10" id="svg_21" height="9.53553" width="61.35859" y="223.13164" x="348.34718" fill="#fff"/>
   <rect stroke="#2b2b2b" transform="matrix(0.993298 -0.817926 0.833476 0.974766 -218.403 202.453)" rx="5" stroke-width="10" id="svg_22" height="9.53553" width="51.19833" y="225.53117" x="276.88722" fill="#fff"/>
   <rect stroke="#2b2b2b" transform="matrix(-0.648329 1.10199 -1.12294 -0.636233 710.883 101.061)" rx="5" stroke-width="10" id="svg_23" height="9.53553" width="61.35859" y="264.13163" x="240.34718" fill="#fff"/>
  </g>
 </g>

</svg>