<svg width="600" height="600" xmlns="http://www.w3.org/2000/svg">
 <g>
  <title>Layer 1</title>
  <ellipse stroke="#000" ry="299.49997" rx="299.33331" id="svg_1" cy="299.49998" cx="299.99994" fill="#fff"/>
  <path id="svg_30" d="m280.08809,643.92269l0.56913,0l0.17587,-0.54067l0.17587,0.54067l0.56913,0l-0.46044,0.33415l0.17588,0.54067l-0.46044,-0.33416l-0.46044,0.33416l0.17588,-0.54067l-0.46044,-0.33415z" stroke-width="5" stroke="#000" fill="none"/>
  <path fill="#fff" stroke="#000" d="m-97.57258,98.16746c-0.0841,-0.01521 -0.1131,-0.12145 -0.06296,-0.1851c0.06654,-0.09844 0.20888,-0.1648 0.3204,-0.10269c0.00222,-0.34665 0.00094,-0.69332 0.00128,-1.03999c0.27807,-0.0561 0.55675,-0.10931 0.83493,-0.16492c-0.0006,0.38852 -0.0012,0.77704 -0.00181,1.16556c-0.04358,0.11751 -0.1844,0.199 -0.30701,0.16256c-0.073,-0.02185 -0.0905,-0.11608 -0.04985,-0.17381c0.05566,-0.08612 0.15927,-0.14525 0.26343,-0.12912c0.02972,-0.00301 0.07349,0.04512 0.06093,-0.00932c0,-0.23356 0,-0.46711 0,-0.70067c-0.25526,0.05139 -0.51102,0.10033 -0.7664,0.15116c-0.00114,0.28176 0.00283,0.56362 -0.00294,0.8453c-0.0176,0.09456 -0.11057,0.16004 -0.20029,0.17913c-0.02964,0.00353 -0.06005,0.00659 -0.08971,0.00191l0,0zm0.66587,-1.17572c0.13115,-0.02581 0.26237,-0.05131 0.39346,-0.07741c0.01668,-0.06647 -0.05798,-0.0233 -0.0945,-0.02168c-0.22394,0.04421 -0.448,0.08776 -0.67191,0.13213c-0.01668,0.06647 0.05798,0.0233 0.0945,0.02168c0.0928,-0.01829 0.18562,-0.03652 0.27844,-0.05473l0.00001,0.00001zm0,-0.11633c0.13115,-0.02581 0.26237,-0.05131 0.39346,-0.07741c0.01668,-0.06647 -0.05798,-0.0233 -0.0945,-0.02168c-0.22394,0.04421 -0.448,0.08776 -0.67191,0.13213c-0.01668,0.06647 0.05798,0.0233 0.0945,0.02168c0.0928,-0.01829 0.18562,-0.03652 0.27844,-0.05473l0.00001,0.00001z" id="svg_6"/>
  <path id="svg_2" opacity="NaN" stroke="null" fill="#000000"/>
  <g stroke="null" id="svg_24">
   <ellipse stroke="#9acee6" ry="42.3893" rx="35.44702" id="svg_3" cy="459.54557" cx="136.14429" fill="#9acee6"/>
   <ellipse stroke="#9acee6" ry="42.3893" rx="35.44702" id="svg_5" cy="459.54557" cx="440.98869" fill="#9acee6"/>
   <rect stroke="#9acee6" stroke-width="10" id="svg_7" height="67.82288" width="308.38908" y="425.63413" x="132.59959" fill="none"/>
   <rect stroke="#9acee6" id="svg_8" height="258.57472" width="8.27097" y="207.56474" x="456.34904" stroke-width="10" fill="none"/>
   <rect stroke="#9acee6" transform="matrix(0.590784 -1.22367 1.02327 0.706488 -18.6041 532.702)" rx="5" stroke-width="10" id="svg_11" height="6" width="81.41154" y="229.61844" x="379.53058" fill="#fff"/>
   <rect stroke="#9acee6" rx="5" stroke-width="10" id="svg_12" height="8.47786" width="50.1121" y="230.85344" x="411.32792" fill="#fff"/>
  </g>
  <g stroke="null" id="svg_25">
   <rect stroke="#9acee6" transform="matrix(0.916876 0.89977 -0.916876 0.89977 306.694 -292.342)" rx="5" stroke-width="10" id="svg_14" height="9.53553" width="51.19833" y="320.53117" x="307.88722" fill="#fff"/>
   <rect stroke="#9acee6" transform="matrix(0 1.27247 -1.29666 0 828.133 -82.0867)" rx="5" stroke-width="10" id="svg_15" height="9.53553" width="78.72746" y="372.50193" x="313.2043" fill="#fff"/>
   <rect stroke="#9acee6" transform="matrix(0.916876 -0.89977 0.916876 0.89977 -316.685 267.046)" rx="5" stroke-width="10" id="svg_16" height="9.53553" width="51.19833" y="329.53117" x="258.88722" fill="#fff"/>
   <rect stroke="#9acee6" transform="matrix(1.12294 -0.636233 0.648329 1.10199 -317.351 99.4804)" rx="5" stroke-width="10" id="svg_17" height="9.53553" width="78.72746" y="365.50193" x="196.20431" fill="#fff"/>
   <rect stroke="#9acee6" transform="matrix(-0.225162 1.25314 -1.27696 -0.220962 696.115 -125.139)" rx="5" stroke-width="15" id="svg_18" height="9.53553" width="112.89152" y="254.1532" x="261.39708" fill="#fff"/>
   <ellipse stroke="#9acee6" ry="22.9044" rx="20.74654" id="svg_19" cy="90.92421" cx="318.92978" stroke-width="15" fill="#fff"/>
   <rect stroke="#9acee6" transform="matrix(0.916876 0.89977 -0.916876 0.89977 229.872 -339.381)" rx="5" stroke-width="10" id="svg_20" height="9.53553" width="51.19833" y="230.53117" x="322.88721" fill="#fff"/>
   <rect stroke="#9acee6" transform="matrix(-0.648329 1.10199 -1.12294 -0.636233 874.902 -96.21)" rx="5" stroke-width="10" id="svg_21" height="9.53553" width="61.35859" y="223.13164" x="348.34718" fill="#fff"/>
   <rect stroke="#9acee6" transform="matrix(0.993298 -0.817926 0.833476 0.974766 -218.403 202.453)" rx="5" stroke-width="10" id="svg_22" height="9.53553" width="51.19833" y="225.53117" x="276.88722" fill="#fff"/>
   <rect stroke="#9acee6" transform="matrix(-0.648329 1.10199 -1.12294 -0.636233 710.883 101.061)" rx="5" stroke-width="10" id="svg_23" height="9.53553" width="61.35859" y="264.13163" x="240.34718" fill="#fff"/>
  </g>
 </g>

</svg>