<svg width="600" height="600" xmlns="http://www.w3.org/2000/svg">
 <g>
  <title>Layer 1</title>
  <ellipse fill="#fff" cx="299.99994" cy="299.49998" id="svg_1" rx="299.33331" ry="299.49997" stroke="#000"/>
  <path fill="none" stroke="#000" stroke-width="5" d="m280.08809,643.92269l0.56913,0l0.17587,-0.54067l0.17587,0.54067l0.56913,0l-0.46044,0.33415l0.17588,0.54067l-0.46044,-0.33416l-0.46044,0.33416l0.17588,-0.54067l-0.46044,-0.33415z" id="svg_30"/>
  <path id="svg_6" d="m-97.57258,98.16746c-0.0841,-0.01521 -0.1131,-0.12145 -0.06296,-0.1851c0.06654,-0.09844 0.20888,-0.1648 0.3204,-0.10269c0.00222,-0.34665 0.00094,-0.69332 0.00128,-1.03999c0.27807,-0.0561 0.55675,-0.10931 0.83493,-0.16492c-0.0006,0.38852 -0.0012,0.77704 -0.00181,1.16556c-0.04358,0.11751 -0.1844,0.199 -0.30701,0.16256c-0.073,-0.02185 -0.0905,-0.11608 -0.04985,-0.17381c0.05566,-0.08612 0.15927,-0.14525 0.26343,-0.12912c0.02972,-0.00301 0.07349,0.04512 0.06093,-0.00932c0,-0.23356 0,-0.46711 0,-0.70067c-0.25526,0.05139 -0.51102,0.10033 -0.7664,0.15116c-0.00114,0.28176 0.00283,0.56362 -0.00294,0.8453c-0.0176,0.09456 -0.11057,0.16004 -0.20029,0.17913c-0.02964,0.00353 -0.06005,0.00659 -0.08971,0.00191l0,0zm0.66587,-1.17572c0.13115,-0.02581 0.26237,-0.05131 0.39346,-0.07741c0.01668,-0.06647 -0.05798,-0.0233 -0.0945,-0.02168c-0.22394,0.04421 -0.448,0.08776 -0.67191,0.13213c-0.01668,0.06647 0.05798,0.0233 0.0945,0.02168c0.0928,-0.01829 0.18562,-0.03652 0.27844,-0.05473zm0,-0.11633c0.13115,-0.02581 0.26237,-0.05131 0.39346,-0.07741c0.01668,-0.06647 -0.05798,-0.0233 -0.0945,-0.02168c-0.22394,0.04421 -0.448,0.08776 -0.67191,0.13213c-0.01668,0.06647 0.05798,0.0233 0.0945,0.02168c0.0928,-0.01829 0.18562,-0.03652 0.27844,-0.05473z" stroke="#000" fill="#fff"/>
  <path stroke="#AF84A3" id="svg_12" d="m83.5551,160.8485c-2.25158,0 -3.40889,-2.44885 -3.40889,-5.38547c0,-2.44829 0.57857,-4.82529 2.25158,-4.82529c1.15731,0 2.89949,2.37701 3.47806,4.82529c1.15731,3.56466 0,5.38547 -2.32075,5.38547zm384.88373,139.72859c5.15124,0 6.30838,0.62804 3.40889,4.82473c-1.67301,2.93662 -5.15107,5.3849 -6.82408,5.3849c-1.74201,0 -3.47806,-2.44829 -3.47806,-5.3849c0,-3.00865 2.32092,-4.82473 6.89325,-4.82473zm-359.63778,-170.91955c-5.15107,-1.18822 -5.72981,-7.20515 0,-9.02179c2.89931,-0.55942 4.5725,1.18803 4.5725,4.82529c0,3.00827 -1.67319,4.75648 -4.5725,4.19649zm-64.20922,190.07949c6.89325,-1.7484 6.89325,-3.00505 4.5725,-7.1333c-1.73605,-3.00505 -2.31462,-6.64194 -1.15731,-7.83034c0.57857,-1.81986 3.47806,0 5.15107,3.56504c2.32075,4.82529 4.05662,5.45713 8.62913,2.44829c2.83662,-1.81645 5.15107,-3.00789 5.15107,-1.18803c0,1.18803 1.74218,0 3.99376,-2.44829c3.47823,-3.56504 4.0568,-11.3986 0.57874,-15.59548c-2.83032,-3.56504 -17.19539,-2.37663 -21.18915,1.81645c-2.31462,3.00884 -4.0568,2.38042 -6.30838,-3.00448c-3.47806,-8.95373 -3.47806,-10.21076 4.57233,-10.77018c6.89325,0 6.89325,0 1.15731,-3.63688c-2.89319,-1.7484 -5.72964,-5.3849 -5.72964,-7.76191c0,-6.01655 7.98752,-9.58158 11.46558,-5.38471c1.15731,1.74802 3.40906,3.56504 5.72981,3.56504c4.5725,0 26.40308,-20.34911 26.40308,-24.54599c0,-1.81967 2.25788,-3.0077 4.5725,-1.81967c2.83645,0.63164 7.98769,-1.18803 13.20793,-4.19687c7.40265,-4.82491 7.40265,-5.3849 3.40889,-13.21525c-2.83032,-5.3849 -6.30838,-7.20515 -14.35894,-7.20515c-9.14483,0 -11.46558,1.1886 -14.2959,8.39374c-1.16361,4.82473 -4.6415,8.38995 -6.89325,8.38995c-3.99376,0 -5.15107,-5.38168 -1.15731,-8.38995c1.73588,-1.1886 2.89319,-5.3849 2.89319,-9.58177c0,-6.57369 -1.15731,-7.76191 -8.62913,-6.01332c-7.47182,1.18803 -7.47182,0.62804 -5.72981,-8.39412c1.15731,-5.38471 2.83032,-10.20963 3.99393,-10.76961c1.15731,-0.62804 2.31444,-6.01332 2.31444,-11.39823c0,-10.77075 3.41519,-12.5872 9.72987,-4.82529c2.89301,4.19668 4.63537,4.82529 5.72964,1.18803c1.15731,-2.37663 5.21393,-2.93662 11.52862,-1.74859c8.56626,2.37701 9.14483,1.74859 7.98752,-5.3849c-0.57857,-4.1963 -1.16344,-9.0216 -1.74201,-10.20963c0,-1.81702 -2.83032,-4.19687 -6.24551,-6.01389c-6.89325,-3.0077 -8.62913,-10.20963 -2.32075,-10.20963c1.74218,0 3.41502,-1.1886 3.41502,-3.56883c0,-1.81702 3.47823,-3.00505 8.05056,-2.44867c6.31468,0.63164 9.72357,-1.74764 18.3527,-14.33427c6.31468,-9.02217 10.88701,-13.84708 11.46575,-11.39879c0.57857,3.00505 3.47806,4.75307 6.31451,4.75307c4.5725,0 5.15124,-1.74802 3.47823,-9.57836c-0.58487,-5.38528 -3.47823,-11.95821 -5.22024,-14.96705c-5.15124,-6.64459 -5.15124,-14.4065 0,-12.03044c4.05662,2.38042 16.67951,-4.19308 16.67951,-8.38976c0,-1.81986 1.67932,-3.00827 3.99376,-3.00827c2.32092,0 3.41519,3.6367 3.41519,8.39355c0,6.01332 1.15731,8.39033 4.0568,6.64175c2.25158,-1.25684 3.99393,-4.82529 3.99393,-7.20173c0,-7.20552 18.35252,-19.79235 22.92485,-16.22409c1.74236,1.18898 3.47806,0 4.06328,-4.1963c1.67284,-8.39355 12.03784,-14.96705 16.61016,-10.77018c2.32092,1.74802 4.57268,1.1886 5.15755,-0.62804c1.15713,-2.38023 5.72964,-4.19687 10.8807,-4.75724c5.15107,-0.62804 12.04432,-3.00827 14.94381,-5.45656c10.8807,-7.76191 21.76789,-7.20192 26.34021,1.1922c2.89949,6.01294 4.05662,6.01294 4.05662,1.81607c0,-5.38528 2.25806,-6.01332 16.03825,-4.1963c21.83075,2.38023 25.24594,2.38023 33.2965,-0.62861c5.15107,-1.7484 6.89307,-1.18841 6.89307,3.63632c0,3.00884 1.67319,5.38547 3.99393,5.38547c1.73588,0 3.40889,-1.74859 3.40889,-3.56845c0,-4.82473 9.21417,-7.20173 17.26456,-4.82473c6.24551,2.38023 6.82408,3.0077 5.15107,19.16317c-0.57857,9.65021 0,16.22371 1.09444,16.22371c1.15713,0 2.32075,-4.19687 2.32075,-10.2102c0,-10.14176 6.30838,-14.33522 8.62913,-6.01351c0.57874,3.00524 2.25158,1.81664 3.40889,-2.93643c2.89966,-12.59043 9.21417,-6.01712 7.47182,7.76191c-1.7357,11.39823 -1.7357,11.39823 3.41537,7.20135c2.89931,-1.81664 5.15089,-6.57293 5.15089,-9.57836c0,-3.00846 1.74236,-6.57672 4.05697,-7.83376c4.57215,-2.37606 9.7297,6.64231 8.05038,13.21847c-0.57857,3.00562 -0.57857,5.38528 1.09427,5.38528c1.16361,0 2.32092,-1.74802 2.32092,-3.00827c0,-1.7484 2.83645,-2.37701 6.31451,-1.18803c7.46569,1.81664 8.55996,6.64137 2.25175,9.57798c-1.67301,1.26026 -3.41519,4.19687 -3.41519,6.64554c0,4.19687 1.16344,4.19687 7.47182,0c10.30214,-7.20173 14.87446,-6.64554 16.61682,1.18803c1.15713,4.19687 3.41502,6.01674 5.72964,4.19687c2.32075,-0.62842 7.47182,1.81986 11.46575,6.01332c3.47806,3.56826 8.62913,6.5735 10.94987,6.5735c3.41519,0 3.41519,3.00865 2.25158,11.40183c-1.15713,9.02217 -1.15713,10.2102 2.32092,6.57388c4.57233,-5.94546 6.30838,-5.38585 7.98769,3.00448c0.57857,4.19687 4.63519,7.20515 9.20769,9.02179c5.15107,1.1922 7.98769,4.19668 7.98769,7.76513c0,3.6367 1.7357,7.83034 3.47806,10.21057c4.5725,4.1963 3.40889,16.78313 -1.74236,20.97981c-1.7357,1.25703 -3.99358,0.62861 -4.57233,-1.18803c-1.15713,-1.82024 -5.15107,-1.82024 -12.62306,0c-12.04432,4.19308 -14.2959,5.3849 -11.46558,10.83824c1.74218,3.56504 21.77402,2.37701 32.71776,-1.81986c3.41519,-1.81683 4.5725,0 4.5725,8.39374c0,6.01294 -1.15731,10.77018 -2.89319,10.77018c-1.16361,0 -2.25788,1.81645 -2.25788,4.82473c0,7.20477 2.83662,6.57293 10.30844,-1.81702c3.98746,-4.82473 6.3082,-6.01655 9.14483,-3.0077c2.89319,3.0077 3.47806,3.0077 3.47806,-1.81702c0,-2.94022 -1.16361,-5.3849 -2.89931,-5.3849c-1.09444,0 -2.25806,-2.38023 -2.25806,-4.75724c0,-3.00789 1.67932,-5.3849 3.99376,-5.3849c1.74218,0 4.0568,1.18803 4.0568,2.93662c0,1.82062 2.25788,4.19668 5.15737,4.82529c3.98763,1.82024 5.15107,4.19687 4.57233,11.3986c-1.16344,13.77808 1.15748,17.97533 9.72357,15.5987c4.0568,-1.1922 6.3082,0 4.5725,2.37663c-0.5157,1.18803 0,4.19687 1.15731,5.45296c4.6415,3.56864 2.89931,11.95916 -2.25175,11.95916c-6.31451,0 -8.05056,3.0077 -4.63519,8.39318c2.31444,3.00827 4.05662,3.56504 6.3082,1.18841c5.22024,-6.01332 6.31468,-1.18841 6.89325,22.80062c0,12.02627 1.15731,21.60842 2.31462,21.60842c2.83645,0 1.74218,13.21847 -2.31462,18.60337c-2.25788,3.00505 -2.25788,5.94148 -0.57857,8.38976c4.05662,5.38547 0,20.98095 -5.15755,20.98095c-4.57215,0 -13.20145,11.39823 -13.20145,16.78351c0,6.5771 -7.40265,0 -9.14483,-7.20192c-1.73588,-6.57331 -1.73588,-6.57331 -2.89949,-1.81986c-1.09427,5.45675 5.15737,22.24026 10.37148,26.99655c3.41502,3.63726 -2.89949,9.65021 -7.47199,7.20192c-2.32092,-1.18803 -3.41519,-4.75307 -3.41519,-8.38995c0,-10.20963 -14.35894,-35.94724 -25.24594,-45.59707c-5.7925,-4.75724 -10.94374,-10.14214 -10.94374,-11.95859c0,-3.63688 -18.35882,-14.96705 -28.66096,-18.60375c-5.73611,-1.81986 -7.47199,-1.18822 -7.47199,3.6367c0,3.56504 -1.09427,4.75307 -3.41519,3.56504c-5.15107,-2.37701 -7.47182,3.00884 -2.89931,8.39374c6.31451,6.57331 5.22024,14.4065 -1.67301,11.39823c-4.63537,-1.81664 -5.21411,-1.1886 -3.47806,9.02198c0.57857,5.94489 1.74218,13.77808 1.74218,17.34311c0,3.63688 1.15713,6.01389 2.31444,6.01389c1.67949,0 2.25788,-1.1886 1.09444,-3.00505c-0.57857,-1.82024 0.58505,-3.56845 2.89931,-3.56845c1.74236,0 3.41519,2.37985 3.41519,4.75648c0,2.44867 -2.25771,4.82473 -6.31451,4.19725c-3.40889,0 -6.30838,-1.74859 -6.30838,-2.937c0,-5.45713 -15.45951,-42.5924 -20.03184,-48.04574c-5.15124,-5.94546 -1.73605,-7.76191 -42.44151,20.4202c-6.3082,4.19687 -13.20145,13.21847 -16.67951,19.79235c-2.83662,6.57293 -7.40895,13.21847 -9.72357,14.4065c-2.32075,1.1886 -10.88701,10.77018 -18.359,20.98038c-32.13919,44.96524 -26.91896,50.35052 -24.6672,142.17726c9.7297,69.5825 9.7297,69.5825 9.7297,69.5825c-22.93133,0 -22.93133,0 -22.93133,0c-18.93126,0 -18.93126,0 -18.93126,0c1.73588,-64.2012 1.73588,-64.2012 1.73588,-64.2012c1.15713,-5.3813 1.74218,-16.22314 2.32092,-22.23703c0.57857,-3.56826 -16.10112,-19.16374 -15.52237,-22.7284c0,-3.00827 17.25825,5.38547 17.25825,2.37663c2.83645,-43.77721 0,-78.60467 -7.47199,-97.13979c-1.73588,-11.39879 -16.10094,-48.04214 -18.35252,-48.04214c-0.57874,0 -4.63537,-3.56826 -8.62913,-7.76513c-6.89342,-7.82997 -9.72357,-8.39033 -48.17745,-10.77018c-41.28402,-2.44506 -41.28402,-2.44506 -41.28402,-2.44506c-9.78643,8.39033 -9.78643,8.39033 -9.78643,8.39033c-5.72964,5.45656 -11.46558,9.02179 -13.13876,9.02179c-3.47806,0 -17.84312,12.58986 -24.08864,19.79121c-0.57857,0 -1.15713,-0.62747 -1.15713,-1.18803c-0.57874,0 -0.57874,0 -0.57874,-0.62842c-0.57857,-1.74802 -1.16344,-3.56826 -2.32075,-5.3849c3.47806,-3.00827 6.31451,-4.82814 7.47182,-4.1963c1.73588,1.18803 3.41519,0 3.41519,-3.00884c0,-3.00505 -3.41519,-4.19668 -12.56002,-3.00505c-10.95005,1.81702 -13.7865,2.44506 -15.52237,9.57855c-2.83662,3.6367 -3.41519,9.02198 -1.73588,13.21885c-0.58505,5.3849 -0.58505,9.0216 0,9.0216c0.57857,0 1.15713,-1.18803 2.89319,-2.44829c0,0.62861 0.57857,1.26026 1.16344,1.81986c-5.73594,1.81664 -8.63543,7.20192 -8.05056,12.58682c-2.89931,2.44829 -5.73594,3.6367 -9.21382,5.45334c0,0 0,-0.62804 -0.51588,-0.62804c2.25788,-5.3849 3.41519,-11.39879 3.99376,-20.42039c1.16361,-10.14214 0.57857,-16.78351 -1.15713,-16.78351c-1.15731,0 -2.32075,2.44829 -2.32075,6.01276c0.57839,3.00884 -0.51588,6.01389 -2.8305,6.57388c-1.74218,0.62804 -2.89931,-0.55999 -2.89931,-3.56504c0,-7.20515 -2.25175,-7.20515 -7.40913,-0.63164c-2.31444,2.44829 -6.88695,5.38528 -10.8807,6.64554c-5.22024,1.74802 -6.89325,0.55942 -9.214,-6.01389c-1.73588,-5.3849 -2.89319,-11.40183 -1.73588,-13.77846c0.57857,-3.00827 0.57857,-5.45334 -1.67301,-5.45334c-6.31468,0 -1.74218,-9.58215 5.72964,-11.40202zm49.33458,-137.90873c-3.47806,-0.62804 -6.31468,-2.37663 -7.47182,-4.82491c-0.57874,-3.56826 -1.15731,-3.56826 -1.15731,0c0,2.44829 -2.32075,4.19687 -4.5725,4.82491c-4.05662,0 -4.05662,0.62842 0.57874,3.00884c2.83015,1.18803 5.72964,3.00448 6.3082,3.00448c0.5157,0 3.41519,-1.81645 6.31468,-3.00448c5.15107,-3.00884 5.15107,-3.00884 0,-3.00884zm454.82258,96.57981c1.09444,1.1886 2.25175,-0.63164 2.25175,-3.6367c0,-2.37985 -1.15731,-4.75686 -2.25175,-4.75686c-1.74201,0 -2.89931,1.18841 -2.89931,2.93662c0,1.82024 1.15731,4.26853 2.89931,5.45694zm-4.05662,5.38528c-0.57857,-1.82024 -3.41519,-4.19668 -5.73594,-4.19668c-1.67301,0 -2.83032,2.37644 -1.67301,4.19668c0.5157,1.81664 2.83645,3.00524 5.15107,3.00524c2.25788,0 2.83645,-1.1886 2.25788,-3.00524zm-5.15107,26.99332c1.73588,0 4.05662,-0.62804 4.05662,-1.18803c0,-1.26026 -2.32075,-2.44829 -4.05662,-3.63688c-2.25788,-1.18841 -3.99393,-0.55999 -3.99393,1.1886c0,1.81986 1.73605,3.63632 3.99393,3.63632zm4.5725,-56.9953c2.31444,-1.18898 3.47788,-3.00865 2.89319,-4.75724c-1.73605,-4.26474 -11.45962,-4.26474 -11.45962,0c0,4.75724 3.40906,6.57388 8.56644,4.75724zm-31.49759,-44.96941c-2.89949,1.82024 -4.63537,5.38528 -4.05697,7.20515c2.89949,4.75364 6.31486,3.56504 9.20787,-4.19687c2.83662,-7.20515 1.67932,-8.39318 -5.15089,-3.00827zm-10.95005,92.38312c14.94363,16.1549 15.52237,16.78351 15.52237,11.3986c0,-3.00505 -1.15731,-5.45334 -2.89949,-5.45334c-1.67284,0 -4.57233,-3.00884 -6.3082,-6.57331c-1.67319,-3.56883 -5.15107,-7.20571 -7.98769,-7.20571c-5.21393,0 -5.21393,0.63183 1.67301,7.83376zm-12.03819,-28.25396c3.47193,0 5.15124,-1.18803 2.89336,-1.74821c-1.73588,-1.18841 -4.5725,-1.18841 -6.30838,0c-1.74236,0.56018 0,1.74821 3.41502,1.74821zm-16.61664,-81.54128c1.73588,1.81702 6.88695,4.19365 11.45927,5.38547c8.05073,1.81645 8.6293,1.81645 4.0568,-3.00827c-5.21393,-5.94546 -19.50983,-7.76191 -15.51607,-2.3772zm-34.97582,-99.51585c-1.73588,1.74802 -2.31444,5.3849 -1.73588,7.76134c1.15731,4.82529 4.5725,0.62861 4.5725,-6.57331c0,-3.63688 -0.57874,-4.19687 -2.83662,-1.18803zm17.19539,129.5184c4.5725,3.00467 6.31468,3.00467 8.6356,-1.19182c4.57233,-6.57369 1.67284,-9.57836 -6.89342,-5.38471c-6.89325,2.93984 -6.89325,2.93984 -1.74218,6.57653zm-11.45927,-30.00254c8.62913,-6.57274 8.62913,-6.57274 1.73588,-6.57274c-4.63537,0 -8.05056,2.37606 -9.78643,6.57274c-1.09444,4.19365 -2.25788,6.57388 -1.67932,6.57388c0,0 4.5725,-3.56864 9.72987,-6.57388zm-12.62306,97.20842c3.98746,6.57388 10.88088,6.57388 8.62913,-0.62842c-0.57857,-2.37985 -1.16344,-5.3849 -1.16344,-6.01674c0,-0.55999 -2.31462,-0.55999 -5.15107,0.63183c-4.63537,1.18841 -4.63537,3.00505 -2.31462,6.01332zm-17.78026,-24.61707c4.57233,6.57369 6.89325,7.20173 12.04432,2.37701c3.41519,-3.00505 3.41519,-3.00505 0,-3.56504c-1.73588,0 -6.30838,-0.63183 -10.30214,-1.82024c-5.73594,-2.37663 -5.73594,-2.37663 -1.74218,3.00827zm-0.57857,-65.38942c2.89931,0 6.31451,-9.58158 4.5725,-12.58663c-2.25175,-3.00827 -6.88712,1.81645 -6.88712,7.20173c0,3.00846 1.15731,5.3849 2.31462,5.3849zm-28.07627,40.77216c-3.47806,2.44829 -2.89931,3.00884 1.67319,3.00884c2.89931,0 6.3082,-1.1922 7.47182,-3.00884c1.7357,-4.75629 -3.99393,-4.75629 -9.145,0zm0.57874,52.79937c0.5157,0.63183 2.25158,-0.62842 3.99376,-3.56504c1.7357,-2.44829 6.88712,-5.45656 10.8807,-6.64516c5.15107,-1.81702 7.47199,-4.75345 7.47199,-9.02198c0,-10.13797 -8.05056,-7.13349 -16.61699,6.01693c-3.47788,6.64194 -6.3082,12.02722 -5.72946,13.21525zm-6.31451,-27.62212c5.15089,-6.57293 5.15089,-7.76513 1.09409,-9.58177c-4.57233,-2.37701 -7.98121,3.00884 -7.98121,12.58682c-0.58487,7.20515 -0.58487,7.20515 6.88712,-3.00505zm-9.20787,-70.77413c0.57857,4.82473 1.73588,4.19668 5.15089,-4.75686c4.05697,-9.57855 4.05697,-10.83881 0.57874,-10.83881c-2.25158,0 -4.5725,1.81702 -5.15107,4.82548c-1.15731,2.37644 -1.15731,7.83357 -0.57857,10.77018zm-2.83662,-49.16268c0,2.44506 1.09427,8.39033 2.25788,12.58682c1.73588,8.39355 1.73588,8.39355 3.47806,1.18841c2.25158,-7.20135 0,-17.97154 -3.47806,-17.97154c-1.67932,0 -2.25788,1.81607 -2.25788,4.1963zm-40.18345,19.78856c-2.83645,4.19687 -2.83645,8.39374 -0.58487,20.98038c1.16361,9.02179 4.0631,18.04376 5.73594,19.79235c2.89949,3.00827 3.47806,0 4.05662,-18.60053c0,-22.72896 -2.89931,-29.93354 -9.20769,-22.1722zm5.15107,63.57278c0.57874,1.1886 1.73588,-1.18841 1.15731,-4.75667c0,-3.63688 -0.57857,-4.19687 -1.73588,-1.81664c-0.51588,2.37663 -0.51588,5.3849 0.57857,6.57331zm20.67344,-56.36764c-0.57857,1.1886 -0.57857,9.58215 1.15731,18.60053c1.74218,15.5987 2.25788,16.22674 2.83662,4.82814c0.57857,-18.60375 -0.57874,-27.62535 -3.99393,-23.42866zm-19.51613,169.17115c3.47806,-7.20515 9.20787,-19.23236 13.20163,-26.43694c4.57233,-7.76248 7.47182,-17.97211 8.62913,-28.1823c1.67932,-16.15546 1.67932,-16.15546 1.67932,-16.15546c-6.89325,8.95354 -6.89325,8.95354 -6.89325,8.95354c-3.41519,4.82529 -5.72981,10.2102 -5.72981,12.02722c0,4.75648 -10.88701,34.75846 -14.3022,40.14374c-1.73588,3.00448 -4.63537,9.65021 -5.15107,14.4065c-2.89949,13.77561 2.25788,11.3986 8.56626,-4.75629zm-40.70545,61.75254c1.74218,11.95821 1.74218,11.95821 7.47199,-13.77865c3.41519,-13.84727 8.56626,-36.0153 12.04432,-49.79413c4.57233,-17.41212 6.31451,-31.81862 6.31451,-52.17038c0,-26.43428 -0.58487,-26.99427 -5.1572,-23.98543c-10.36518,7.76172 -16.10112,29.37014 -18.41574,71.33033c-1.09427,21.61259 -2.25788,43.22101 -3.41502,47.97787c-0.57874,4.82491 0,13.84689 1.15713,20.42039zm1.16361,-153.50762c2.25158,5.94527 4.5725,10.77018 4.5725,10.77018c0.57857,0 3.40871,-3.63688 5.72964,-8.39318c2.89931,-4.19346 7.47182,-9.01837 9.20787,-10.76696c6.83021,-5.45656 8.56609,-22.24007 2.83645,-33.63867c-4.5725,-10.2102 -17.19539,-21.61221 -19.51631,-17.97533c-1.15713,1.18841 -2.83015,12.59043 -3.99376,25.80567c-2.31444,19.79178 -2.31444,25.80833 1.16361,34.19828zm-3.47806,-137.35159c1.15731,1.19182 2.31444,0.55999 2.31444,-1.25646c0,-2.38023 -1.15713,-4.75724 -2.31444,-5.94546c-1.74218,-1.26007 -2.83662,-0.62842 -2.83662,1.74859c0,1.81664 1.09444,4.19687 2.83662,5.45334zm-185.8097,161.26858c7.98752,0.63164 7.98752,0.63164 7.98752,0.63164c8.05056,0 16.10112,-7.76513 16.10112,-14.4065c0,-4.19687 -0.57857,-4.19687 -24.08864,13.77485zm3.41519,-16.7837c0,1.82081 1.15731,3.63688 2.89949,3.63688c2.83032,0 10.8807,-10.77018 9.14483,-12.58663c-1.74218,-2.44829 -12.04432,5.38471 -12.04432,8.94975zm6.31451,-41.33158c8.6293,11.96144 12.62306,13.14984 17.19539,5.38471c4.63537,-7.20135 0.57874,-12.02665 -13.20776,-13.77523c-11.45945,-1.82024 -11.45945,-1.82024 -3.98763,8.39052zm-6.31451,-33.63564c0,1.25646 4.05662,4.19308 8.62913,6.64137c21.18932,11.39879 25.24594,11.39879 24.6672,0.56056c0,-6.57388 -8.62913,-20.98076 -12.04432,-20.98076c-4.05662,0 -21.25201,11.3986 -21.25201,13.77884zm30.98188,85.17798c6.30838,0 6.88695,-1.81702 1.73588,-4.75364c-2.32075,-0.63164 -4.5725,0 -5.15107,1.74859c-1.16361,1.81607 0.57857,3.00505 3.41519,3.00505zm4.5725,-140.91719c-3.99393,-3.00865 -9.15131,-4.19668 -11.46575,-3.00865c-3.99376,2.38023 -3.41519,3.00865 2.31444,4.82473c2.83662,1.1922 8.6356,2.38042 11.46575,2.94041c3.41519,0 3.41519,-1.19182 -2.31444,-4.75648zm-0.5157,21.60842c3.40871,0 3.99376,-0.62842 1.67301,-2.44506c-1.67301,-0.55961 -3.99393,-0.55961 -5.15124,0.62861c-0.57857,1.18803 1.15731,2.37701 3.47823,1.81645zm3.40871,13.77902c-8.05038,0 -8.05038,0.55942 -3.40871,5.38471c5.72964,5.3849 7.40265,6.01294 9.72357,2.37663c3.99358,-4.75364 1.15713,-7.76134 -6.31486,-7.76134zm11.46593,-67.76643c-2.32092,-3.00827 -2.89949,2.37701 -1.73605,8.95032c0.57857,4.19687 2.89319,7.83319 4.0568,7.83319c2.25158,0 0.57857,-13.21847 -2.32075,-16.78351zm18.35252,79.16409c-1.15713,0.56056 1.74218,4.19687 5.15737,7.20552c3.47806,3.00505 6.3082,4.19327 6.3082,2.37663c0,-4.1963 -9.72339,-12.02987 -11.46558,-9.58215zm-14.35894,4.19687c-5.15107,4.19725 -2.25158,14.96687 5.21411,16.78389c3.99376,1.18822 10.30844,6.01351 14.3022,10.7698c3.47806,4.82529 6.3082,6.64554 6.3082,4.82529c0,-6.01332 -22.92502,-34.82727 -25.82451,-32.37898zm23.51007,49.7947c-3.41502,-9.65381 -7.40895,-14.40745 -14.88094,-17.41572c-5.72964,-2.37663 -11.46558,-3.63632 -13.20145,-3.00467c-1.74218,0.62804 5.15107,8.38995 14.94381,17.41174c18.35252,15.59548 18.35252,15.59548 13.13859,3.00865zm30.45988,-92.3835c-1.15731,0 -2.32092,2.37701 -2.32092,4.75364c0,3.00827 1.16361,4.82529 2.32092,4.82529c1.67301,0 2.83662,-1.81702 2.83662,-4.82529c0,-2.37663 -1.16361,-4.75364 -2.83662,-4.75364zm-5.21393,49.16268c0,4.1963 9.78643,1.18841 13.78019,-4.19687c5.72981,-9.0216 5.15107,-11.3986 -2.32075,-11.3986c-5.15107,0 -11.45945,8.39393 -11.45945,15.59548zm16.67968,-129.51897c-1.74218,7.76191 -2.89949,14.33522 -2.32075,14.96705c1.74201,2.37701 6.31468,-15.5951 6.31468,-22.80024c0,-3.00505 -1.74236,0.63183 -3.99393,7.83319zm29.81845,121.12522c-2.89949,0 -5.15124,1.1922 -5.15124,3.56826c0,1.81702 1.67301,3.00884 3.40889,3.00884c2.32075,0 4.5725,-1.19182 5.15737,-3.00884c1.15731,-2.37606 -0.58487,-3.56826 -3.41502,-3.56826zm-6.89342,112.73489c3.41519,10.84203 8.56626,20.98038 11.46575,23.42866c2.89949,1.81702 8.62913,10.21057 12.04432,18.60375c3.41519,8.39033 6.89325,14.96383 7.47199,14.96383c2.83015,0 -2.89949,-55.176 -6.89325,-71.96273c-3.47823,-14.40328 -4.57268,-27.62212 -3.99393,-48.6025c0.5157,-15.5951 0,-29.37393 -1.15713,-30.56215c-0.57874,-1.18841 -4.5725,-1.18841 -8.05056,0c-6.31468,2.37663 -6.89325,4.19687 -6.89325,17.41534c0,10.13854 -1.15748,15.59548 -3.99393,17.97154c-8.05038,5.38547 -7.47182,35.94743 0,58.74426zm-16.61664,-80.3525c-1.15731,-9.02179 -2.31444,-10.2102 -8.62913,-10.2102c-7.47199,0 -7.47199,0.62842 -6.89325,13.21525c0,7.76513 1.16344,16.78673 1.74201,20.98019c0.57874,4.19687 2.83662,8.39318 5.15124,9.02179c4.57233,3.00865 9.72339,-17.97154 8.62913,-33.00703zm-8.62913,60.56072c-5.15124,-7.20192 -8.62913,-14.96383 -9.145,-16.78351c0,-2.37663 -2.89931,-8.38995 -6.30838,-13.77523c-3.47806,-5.3849 -7.47182,-12.03006 -9.214,-14.40707c-5.72964,-8.39318 -4.5725,-1.18803 1.74218,17.41212c3.99376,12.58986 10.88088,23.98865 18.93126,33.57024c14.88077,16.22352 16.61682,13.21581 3.99393,-6.01655zm-9.145,29.44199c6.24551,0 5.72981,-0.62804 -2.89931,-10.20963c-5.72981,-6.01389 -9.72357,-12.5872 -9.72357,-15.59567c0,-2.37644 -7.47199,-10.83862 -16.10094,-18.60053c-8.56644,-7.833 -16.61699,-15.59491 -17.77413,-17.97476c-1.16361,-3.00505 -1.74218,-3.00505 -1.74218,0.55999c0,3.63688 -2.83032,4.1963 -12.04432,2.37663c-6.30838,-1.1886 -11.45945,-1.1886 -11.45945,-0.55676c0,1.18841 2.31444,8.39033 4.63537,15.59491c3.99393,11.95878 5.72964,14.40745 18.3527,19.1607c7.98769,3.00827 20.6104,10.21001 28.66096,15.59491c7.47199,5.45713 16.61682,9.65021 20.09488,9.65021zm-89.52416,20.35177c2.32075,0 5.73594,-1.18803 8.05038,-3.0077c3.99393,-4.19365 0.58505,-4.19365 -6.88695,0c-3.41519,1.81967 -3.99376,2.37966 -1.16344,3.0077zm-6.30838,-14.96687c5.72981,-2.44468 24.08864,-4.82491 40.76832,-4.82491c31.49146,-0.55999 37.80596,-2.37606 25.1829,-6.01332c-3.99358,-1.18803 -13.13859,-4.19687 -20.6104,-7.20192c-13.20163,-5.3849 -40.18975,-3.56826 -43.02007,2.44563c-0.58487,1.19125 -3.47806,1.81967 -6.31451,1.19125c-5.72981,-1.81986 -11.46575,3.00543 -13.20163,12.5872c-2.32075,7.76134 1.73588,8.39318 17.19539,1.81607zm-45.85652,13.77884c1.15731,4.82529 6.89325,5.3849 11.46575,1.18803c2.83015,-2.37644 2.83015,-3.56447 0,-7.20135c-2.32075,-3.56883 -3.99376,-3.56883 -7.47182,-0.55999c-2.32075,1.74859 -3.99393,4.75364 -3.99393,6.57331zm-18.3527,41.96076c2.25175,0 3.40906,1.81702 2.25175,5.38528c-0.51588,2.44829 -2.25175,4.82491 -3.41519,4.82491c-1.73588,0 -2.83032,-2.37663 -2.83032,-4.82491c0,-2.93662 1.67301,-5.38528 3.99376,-5.38528z" fill="#AF84A3"/>
 </g>

</svg>