<svg width="600" height="600" xmlns="http://www.w3.org/2000/svg">
 <g>
  <title>Layer 1</title>
  <path id="svg_30" d="m280.08809,643.92269l0.56913,0l0.17587,-0.54067l0.17587,0.54067l0.56913,0l-0.46044,0.33415l0.17588,0.54067l-0.46044,-0.33416l-0.46044,0.33416l0.17588,-0.54067l-0.46044,-0.33415z" stroke-width="5" stroke="#000" fill="none"/>
  <path fill="#fff" stroke="#000" d="m-97.57258,98.16746c-0.0841,-0.01521 -0.1131,-0.12145 -0.06296,-0.1851c0.06654,-0.09844 0.20888,-0.1648 0.3204,-0.10269c0.00222,-0.34665 0.00094,-0.69332 0.00128,-1.03999c0.27807,-0.0561 0.55675,-0.10931 0.83493,-0.16492c-0.0006,0.38852 -0.0012,0.77704 -0.00181,1.16556c-0.04358,0.11751 -0.1844,0.199 -0.30701,0.16256c-0.073,-0.02185 -0.0905,-0.11608 -0.04985,-0.17381c0.05566,-0.08612 0.15927,-0.14525 0.26343,-0.12912c0.02972,-0.00301 0.07349,0.04512 0.06093,-0.00932c0,-0.23356 0,-0.46711 0,-0.70067c-0.25526,0.05139 -0.51102,0.10033 -0.7664,0.15116c-0.00114,0.28176 0.00283,0.56362 -0.00294,0.8453c-0.0176,0.09456 -0.11057,0.16004 -0.20029,0.17913c-0.02964,0.00353 -0.06005,0.00659 -0.08971,0.00191l0,0zm0.66587,-1.17572c0.13115,-0.02581 0.26237,-0.05131 0.39346,-0.07741c0.01668,-0.06647 -0.05798,-0.0233 -0.0945,-0.02168c-0.22394,0.04421 -0.448,0.08776 -0.67191,0.13213c-0.01668,0.06647 0.05798,0.0233 0.0945,0.02168c0.0928,-0.01829 0.18562,-0.03652 0.27844,-0.05473l0.00001,0.00001zm0,-0.11633c0.13115,-0.02581 0.26237,-0.05131 0.39346,-0.07741c0.01668,-0.06647 -0.05798,-0.0233 -0.0945,-0.02168c-0.22394,0.04421 -0.448,0.08776 -0.67191,0.13213c-0.01668,0.06647 0.05798,0.0233 0.0945,0.02168c0.0928,-0.01829 0.18562,-0.03652 0.27844,-0.05473l0.00001,0.00001z" id="svg_6"/>
  <path id="svg_2" opacity="NaN" stroke="null" fill="#000000"/>
  <ellipse stroke="#000" ry="299.49997" rx="299.33331" id="svg_1" cy="299.49998" cx="299.99994" fill="#fff"/>
  <g stroke="null" id="svg_35">
   <rect stroke="#9acee6" id="svg_8" height="214.1764" width="147.24585" y="291.9442" x="338.50051" stroke-width="10" fill="#9acee6"/>
   <rect stroke="#9acee6" rx="5" stroke-width="10" id="svg_12" height="1.89915" width="90.39808" y="275.58837" x="356.03405" fill="#fff"/>
   <rect stroke="#9acee6" transform="matrix(2.1789 0.408868 -0.73462 2.08748 -204.401 -501.474)" rx="5" stroke-width="10" id="svg_14" height="9.53553" width="51.19833" y="338.04469" x="301.68479" fill="#fff"/>
   <rect stroke="#9acee6" transform="matrix(-0.318706 1.70224 -1.80747 -0.30015 813.447 -250.908)" rx="5" stroke-width="15" id="svg_18" height="9.53553" width="112.89152" y="266.82659" x="279.26692" fill="#fff"/>
   <ellipse stroke="#9acee6" ry="31.11291" rx="29.36565" id="svg_19" cy="80.82313" cx="254.84142" stroke-width="15" fill="#fff"/>
   <rect stroke="#9acee6" transform="matrix(1.29779 1.22223 -1.29779 1.22223 153.505 -541.93)" rx="5" stroke-width="10" id="svg_20" height="9.53553" width="51.19833" y="249.97251" x="317.29878" fill="#fff"/>
   <rect stroke="#9acee6" transform="matrix(-1.63661 -0.641914 0.576887 -1.71213 912.052 866.841)" rx="5" stroke-width="10" id="svg_21" height="9.53553" width="61.35859" y="206.12168" x="389.94393" fill="#fff"/>
   <rect stroke="#9acee6" transform="matrix(0.34956 2.14647 -2.17406 0.412195 512.692 -308.742)" rx="5" stroke-width="10" id="svg_23" height="9.53553" width="61.35859" y="132.8703" x="281.91324" fill="#fff"/>
   <rect stroke="#9acee6" transform="matrix(0.239273 -1.35416 1.35698 0.238774 23.6278 775.77)" rx="5" stroke-width="10" id="svg_26" height="1.38115" width="65.60483" y="240.73977" x="411.32793" fill="#fff"/>
   <rect stroke="#9acee6" transform="matrix(1.37267 -0.119843 0.120093 1.36981 -184.702 -71.9014)" rx="5" id="svg_28" height="147.88521" width="8.45058" y="187.59866" x="218.67802" stroke-width="15" fill="#fff"/>
   <rect stroke="#9acee6" transform="matrix(1.37267 -0.119843 0.120093 1.36981 -171.856 -73.5936)" rx="5" id="svg_29" height="41.12906" width="8.45058" y="133.59058" x="209.24595" stroke-width="15" fill="#fff"/>
   <rect stroke="#9acee6" transform="matrix(0 1.37505 -1.37792 0 694.519 0.593859)" rx="5" id="svg_31" height="84.50584" width="8.45058" y="302.38575" x="267.26887" stroke-width="15" fill="#fff"/>
   <rect stroke="#9acee6" rx="5" id="svg_32" height="116.19952" width="11.64421" y="389.40438" x="213.81281" stroke-width="15" fill="#fff"/>
   <path stroke="#9acee6" id="svg_33" d="m300.69266,479.26646c0,4.45661 -33.8864,8.06942 -75.68739,8.06942m75.68739,-8.06942l0,0c0,4.45661 -33.8864,8.06942 -75.68739,8.06942c-41.80098,0 -75.68737,-3.61279 -75.68737,-8.06942m0,0l0,0c0,-4.45661 33.88639,-8.06941 75.68737,-8.06941c41.80099,0 75.68739,3.6128 75.68739,8.06941l0,32.27767c0,4.45661 -33.8864,8.0694 -75.68739,8.0694c-41.80098,0 -75.68737,-3.61279 -75.68737,-8.0694l0,-32.27767z" stroke-width="15" fill="#fff"/>
  </g>
 </g>

</svg>