<svg width="600" height="600" xmlns="http://www.w3.org/2000/svg">
 <g>
  <title>Layer 1</title>
  <ellipse fill="#fff" cx="299.99994" cy="299.49998" id="svg_1" rx="299.33331" ry="299.49997" stroke="#000"/>
  <path fill="none" stroke="#000" stroke-width="5" d="m280.08809,643.92269l0.56913,0l0.17587,-0.54067l0.17587,0.54067l0.56913,0l-0.46044,0.33415l0.17588,0.54067l-0.46044,-0.33416l-0.46044,0.33416l0.17588,-0.54067l-0.46044,-0.33415z" id="svg_30"/>
  <path id="svg_6" d="m-97.57258,98.16746c-0.0841,-0.01521 -0.1131,-0.12145 -0.06296,-0.1851c0.06654,-0.09844 0.20888,-0.1648 0.3204,-0.10269c0.00222,-0.34665 0.00094,-0.69332 0.00128,-1.03999c0.27807,-0.0561 0.55675,-0.10931 0.83493,-0.16492c-0.0006,0.38852 -0.0012,0.77704 -0.00181,1.16556c-0.04358,0.11751 -0.1844,0.199 -0.30701,0.16256c-0.073,-0.02185 -0.0905,-0.11608 -0.04985,-0.17381c0.05566,-0.08612 0.15927,-0.14525 0.26343,-0.12912c0.02972,-0.00301 0.07349,0.04512 0.06093,-0.00932c0,-0.23356 0,-0.46711 0,-0.70067c-0.25526,0.05139 -0.51102,0.10033 -0.7664,0.15116c-0.00114,0.28176 0.00283,0.56362 -0.00294,0.8453c-0.0176,0.09456 -0.11057,0.16004 -0.20029,0.17913c-0.02964,0.00353 -0.06005,0.00659 -0.08971,0.00191l0,0zm0.66587,-1.17572c0.13115,-0.02581 0.26237,-0.05131 0.39346,-0.07741c0.01668,-0.06647 -0.05798,-0.0233 -0.0945,-0.02168c-0.22394,0.04421 -0.448,0.08776 -0.67191,0.13213c-0.01668,0.06647 0.05798,0.0233 0.0945,0.02168c0.0928,-0.01829 0.18562,-0.03652 0.27844,-0.05473zm0,-0.11633c0.13115,-0.02581 0.26237,-0.05131 0.39346,-0.07741c0.01668,-0.06647 -0.05798,-0.0233 -0.0945,-0.02168c-0.22394,0.04421 -0.448,0.08776 -0.67191,0.13213c-0.01668,0.06647 0.05798,0.0233 0.0945,0.02168c0.0928,-0.01829 0.18562,-0.03652 0.27844,-0.05473z" stroke="#000" fill="#fff"/>
  <path id="svg_8" d="m503.73106,136.39291l-87.90419,0l0,-34.89764l-219.76046,0l0,34.89764l-87.90419,0c-25.87899,0 -46.88223,20.84552 -46.88223,46.53018l0,241.37533c0,25.68466 21.00324,46.53018 46.88223,46.53018l395.56884,0c25.87899,0 46.88223,-20.84552 46.88223,-46.53018l0,-241.37533c0,-25.68466 -21.00324,-46.53018 -46.88223,-46.53018zm-197.79614,308.2392c-78.34021,0 -142.05316,-63.25778 -142.05316,-141.00972c0,-77.75194 63.71295,-141.03299 142.05316,-141.03299s142.10005,63.28105 142.10005,141.03299c0,77.75194 -63.78328,141.00972 -142.10005,141.00972zm0,-235.53579c-52.60186,0 -95.21781,42.3192 -95.21781,94.5028c0,52.20687 42.63939,94.5028 95.21781,94.5028c52.60186,0 95.21781,-42.29594 95.21781,-94.5028c0.02344,-52.1836 -42.59251,-94.5028 -95.21781,-94.5028z" stroke="#AF84A3" fill="#AF84A3"/>
 </g>

</svg>