<svg width="600" height="600" xmlns="http://www.w3.org/2000/svg">
 <g>
  <title>Layer 1</title>
  <ellipse fill="#fff" cx="301.33327" cy="300.83331" id="svg_1" rx="299.33331" ry="299.49997" stroke="#000"/>
  <path fill="none" stroke="#000" stroke-width="5" d="m280.08809,643.92269l0.56913,0l0.17587,-0.54067l0.17587,0.54067l0.56913,0l-0.46044,0.33415l0.17588,0.54067l-0.46044,-0.33416l-0.46044,0.33416l0.17588,-0.54067l-0.46044,-0.33415z" id="svg_30"/>
  <path id="svg_2" d="m206.19006,376.78811l166.71357,0c24.03066,-0.04777 40.42457,-21.76088 40.34454,-44.09879l0,-15.01996c47.57757,-0.04012 82.09585,-38.41448 82.07807,-83.16099c0.01778,-45.54327 -33.8229,-82.96036 -73.2124,-82.92788l-256.96903,0l0,181.11265c0.03735,24.59444 19.75522,44.05102 41.04526,44.09497zm207.05277,-191.13996l0,0l8.86566,0c32.59576,-0.05541 43.05137,33.06263 42.89486,49.10862c0.03201,25.90899 -17.82914,50.75755 -51.76053,48.34626l0,-97.45488zm-339.96301,202.16848c0.03023,33.47725 23.78523,49.00162 42.90553,49.09716l344.86269,0c22.80707,-0.09553 42.79705,-19.36105 42.89842,-49.09716l-430.66664,0z" fill="#619E73"/>
 </g>

</svg>