<svg width="600" height="600" xmlns="http://www.w3.org/2000/svg">
 <g>
  <title>Layer 1</title>
  <ellipse fill="#fff" cx="301.33327" cy="300.83331" id="svg_1" rx="299.33331" ry="299.49997" stroke="#000"/>
  <path fill="none" stroke="#000" stroke-width="5" d="m280.08809,643.92269l0.56913,0l0.17587,-0.54067l0.17587,0.54067l0.56913,0l-0.46044,0.33415l0.17588,0.54067l-0.46044,-0.33416l-0.46044,0.33416l0.17588,-0.54067l-0.46044,-0.33415z" id="svg_30"/>
  <path stroke="null" id="svg_3" d="m161.35735,83.64568l-22.03582,0c0,0 -17.13901,-1.27638 -22.03582,15.31628c-8.72259,11.96565 -25.01983,6.70077 -29.38104,11.48713c-4.82039,0 -15.9148,2.23359 -14.6906,7.65797c1.2242,5.42455 4.89697,6.38176 3.67261,7.65814c-1.2242,1.27638 -4.5908,27.4416 27.54482,26.80341c0,0 3.3666,7.65797 18.36321,0c0,0 3.36644,-2.87178 9.18144,1.91441c5.81517,4.78636 17.44502,8.29633 20.1996,7.65814c2.75442,-0.63819 20.19944,30.31322 20.19944,74.66634c0,44.35329 23.5662,74.98552 31.21743,76.58108c0,0 18.59264,61.74332 19.28124,116.78586c0,0 4.5908,23.29344 -15.60863,22.97426c-10.90312,9.45301 -15.72351,15.91452 -9.18161,15.31628c0,0 2.52499,4.30751 7.34522,3.82899c2.08737,-0.77721 -16.87113,14.11965 -9.18161,13.40171c0,0 3.36676,10.21074 16.52683,3.82899c0,0 20.1996,1.91458 22.03582,-11.48713c1.83639,-13.40171 2.75458,-35.17933 11.01799,-32.54698c0,0 1.22404,-106.89413 11.01783,-114.87129c0,0 48.64941,4.18695 104.67011,-30.6324c15.9148,-9.89173 32.13546,-24.56982 34.88987,9.57255c2.75458,34.14237 52.02904,62.54118 58.76224,82.32448c6.7332,19.78346 10.40581,12.76351 9.18144,59.35022c0,0 -11.62985,-2.87178 -20.19944,7.65814c-5.509,5.74356 1.83639,5.74356 1.83639,5.74356c0,0 -4.28479,4.46718 9.18161,3.82915c0,0 1.83622,2.15367 11.01783,0c0,0 15.30262,0.9572 12.85422,-11.48713c0,0 0.91819,-70.83752 5.509,-67.00836c4.5908,3.82899 28.15684,26.16505 27.54465,74.66634c0,0 -10.40581,1.5954 -11.01783,13.40171c0,0 -5.20282,6.06258 1.83622,7.65814c0,0 9.87021,2.63236 12.85422,0c0,0 12.54837,4.46718 12.85422,-11.4873c0.30601,-15.95431 -10.09964,-71.31587 -5.50883,-84.23889c0,0 -39.48084,-23.93163 -45.90803,-97.64076c0,0 18.36321,62.54118 77.12545,51.69208c0,0 4.28479,-1.91441 -1.83639,-3.82899c-6.12118,-1.91458 -54.47745,4.78636 -66.10746,-57.43564c-8.493,-44.51279 -2.06581,-49.29898 -29.38104,-67.00836c-36.72626,-36.61522 -128.23614,0.31901 -156.08681,-11.48713c-25.70843,-13.40171 -26.62662,-13.64097 -55.08947,-22.97426c-29.15161,-16.03423 -24.17806,-34.46139 -45.90787,-59.35022c-16.6417,-23.33323 -16.83284,-20.74067 -18.36321,-22.97426c-1.53037,-2.23376 -0.30601,-12.76351 -20.19944,-15.31628z" fill="#9acee6"/>
 </g>

</svg>