<svg width="600" height="600" xmlns="http://www.w3.org/2000/svg">
 <g>
  <title>Layer 1</title>
  <ellipse stroke="#000" ry="299.49997" rx="299.33331" id="svg_1" cy="300.83331" cx="301.33327" fill="#fff"/>
  <path id="svg_30" d="m280.08809,643.92269l0.56913,0l0.17587,-0.54067l0.17587,0.54067l0.56913,0l-0.46044,0.33415l0.17588,0.54067l-0.46044,-0.33416l-0.46044,0.33416l0.17588,-0.54067l-0.46044,-0.33415z" stroke-width="5" stroke="#000" fill="none"/>
  <path id="svg_2" d="m340.93712,375.79409l-13.19406,-47.44935c3.86664,-3.48508 7.49585,-7.21411 10.92156,-11.20453l46.14528,13.55696c4.86722,-7.28381 9.05607,-15.02069 12.804,-23.0538l-34.34186,-34.15377c1.64502,-5.01851 3.06957,-10.12415 4.0871,-15.38662l46.28095,-11.91897c0.33918,-4.3912 0.6614,-8.79982 0.6614,-13.29558s-0.33918,-8.88695 -0.6614,-13.27815l-46.28095,-11.91897c-1.0345,-5.26247 -2.45905,-10.36811 -4.0871,-15.38662l34.35881,-34.15377c-3.76488,-8.01568 -7.95374,-15.76998 -12.82096,-23.0538l-46.14528,13.53953c-3.40875,-3.97299 -7.05492,-7.70202 -10.92156,-11.20453l13.19406,-47.43192c-7.08884,-4.98366 -14.63557,-9.30516 -22.45364,-13.15617l-33.23952,35.30385c-4.86722,-1.69026 -9.85314,-3.13657 -14.97474,-4.19952l-11.58296,-47.57133c-4.29061,-0.33108 -8.56427,-0.67959 -12.93967,-0.67959s-8.64906,0.34851 -12.92271,0.67959l-11.59992,47.57133c-5.1216,1.06295 -10.09057,2.50926 -14.97474,4.19952l-33.23952,-35.30385c-7.80111,3.90329 -15.33088,8.20736 -22.41972,13.20845l13.19406,47.43192c-3.86664,3.48508 -7.51281,7.23154 -10.9046,11.1871l-46.16224,-13.55696c-4.86722,7.28381 -9.05607,15.03812 -12.804,23.07122l34.35881,34.15377c-1.62806,5.01851 -3.05261,10.12415 -4.0871,15.38662l-46.29791,11.91897c-0.32222,4.3912 -0.6614,8.79982 -0.6614,13.27815s0.33918,8.88695 0.6614,13.29558l46.29791,11.91897c1.0345,5.26247 2.45905,10.36811 4.0871,15.38662l-34.35881,34.15377c3.74793,8.01568 7.93678,15.76998 12.804,23.0538l46.16224,-13.55696c3.39179,3.99042 7.03796,7.70202 10.9046,11.20453l-13.19406,47.44935c7.08884,4.98366 14.63557,9.28774 22.43668,13.15617l33.23952,-35.30385c4.88417,1.69026 9.85314,3.154 14.97474,4.19952l11.59992,47.5539c4.27365,0.34851 8.56427,0.67959 12.93967,0.67959s8.64906,-0.34851 12.93967,-0.67959l11.58296,-47.5539c5.1216,-1.06295 10.10753,-2.52668 14.97474,-4.19952l33.23952,35.30385c7.78415,-3.90329 15.33088,-8.20736 22.41972,-13.19102zm-95.17358,-83.65932c-31.83193,0 -57.64344,-26.52145 -57.64344,-59.22892s25.81151,-59.21149 57.64344,-59.21149s57.62648,26.50403 57.62648,59.21149s-25.79455,59.22892 -57.62648,59.22892zm262.72791,123.80743c0.32222,-9.53169 -1.01754,-19.23764 -3.90056,-28.8216l21.09692,-30.89522c-3.18828,-6.09889 -6.78358,-11.88412 -10.87068,-17.14659l-35.98687,7.7543c-7.25843,-6.34284 -15.51743,-11.29166 -24.35304,-14.82901l-10.36191,-36.2274c-6.54615,-1.18493 -13.1771,-1.82967 -19.89284,-1.84709l-16.51801,33.73556c-4.73154,0.94097 -9.46309,2.23045 -14.10984,4.06012c-4.35845,1.70769 -8.42859,3.83359 -12.32915,6.15116l-34.01964,-14.2714c-5.03681,4.56545 -9.63268,9.49684 -13.78762,14.84644l15.38176,34.29318c-4.39237,8.62557 -7.41106,17.91331 -8.80169,27.61925l-32.06936,18.47092c0.32222,6.76105 1.28888,13.52211 2.78127,20.30058l35.68161,9.04378c3.91752,9.13091 9.17479,17.30342 15.53439,24.27357l-5.96955,37.25549c5.42686,4.00784 11.1929,7.45807 17.17941,10.45524l29.08458,-23.00152c9.08999,2.45698 18.60396,3.39795 28.18576,2.61381l24.62438,28.00261c3.39179,-0.99325 6.76662,-2.0562 10.10753,-3.3631c2.96781,-1.15008 5.76604,-2.50926 8.56427,-3.88586l0.62748,-37.72598c7.71632,-5.90721 14.29639,-13.01677 19.5367,-21.01503l36.64827,-2.335c2.57776,-6.25572 4.73154,-12.75539 6.24089,-19.42931l-28.30447,-24.0819zm-70.60007,34.97277c-20.36769,7.98083 -43.1605,-2.50926 -50.94466,-23.43716s2.42513,-44.36505 22.79282,-52.36331c20.36769,-7.98083 43.19442,2.50926 50.97858,23.43716c7.76719,20.9279 -2.45905,44.36505 -22.82673,52.36331z" stroke="null" fill="#2b2b2b"/>
 </g>

</svg>