<svg width="600" height="600" xmlns="http://www.w3.org/2000/svg">
 <g>
  <title>Layer 1</title>
  <ellipse stroke="#000" ry="299.49997" rx="299.33331" id="svg_1" cy="300.83331" cx="301.33327" fill="#fff"/>
  <path id="svg_30" d="m280.08809,643.92269l0.56913,0l0.17587,-0.54067l0.17587,0.54067l0.56913,0l-0.46044,0.33415l0.17588,0.54067l-0.46044,-0.33416l-0.46044,0.33416l0.17588,-0.54067l-0.46044,-0.33415z" stroke-width="5" stroke="#000" fill="none"/>
  <path stroke="null" id="svg_3" d="m62.88143,449.29079l468.61697,0.17763l-15.20673,22.31327l-438.02398,-0.53287l-15.38629,-21.95803l0.00002,0zm3.22039,-296.81703l462.3551,-0.53287l13.41806,22.89l-489.37034,0.17763l13.59718,-22.53476zm-45.6288,148.73101l553.25464,-0.53287l-0.71515,22.89002l-552.18168,-0.35524l-0.35781,-22.00191zm553.71263,2.12303c0,151.5373 -124.19329,274.81444 -276.87255,274.81444c-152.6133,0 -276.78345,-123.29942 -276.78345,-274.81444c0,-151.51576 124.19258,-274.79288 276.78345,-274.79288c152.67929,-0.02226 276.87255,123.27712 276.87255,274.79288zm-276.85081,-296.81705c-164.79575,0 -298.89985,133.13966 -298.89985,296.79473c0,163.67737 134.10413,296.81701 298.89985,296.81701c164.88548,0 298.9672,-133.13964 298.9672,-296.81701c0,-163.65507 -134.0817,-296.79473 -298.9672,-296.79473zm83.87969,296.81705c0,161.93022 -44.18935,274.81444 -83.87969,274.81444c-39.64543,0 -83.83408,-112.88422 -83.83408,-274.81444c0,-161.97481 44.16687,-274.79288 83.83408,-274.79288c39.66793,-0.02226 83.87969,112.81807 83.87969,274.79288zm-83.87969,-296.81705c-68.84443,0 -105.99537,152.93017 -105.99537,296.79473c0,143.90849 37.15094,296.81701 105.99537,296.81701c68.84513,0 106.0634,-152.93076 106.0634,-296.81701c-0.02244,-143.86456 -37.21827,-296.79473 -106.0634,-296.79473zm196.44583,296.81705c0,151.5373 -88.15571,274.81444 -196.44583,274.81444c-108.26762,0 -196.37848,-123.29942 -196.37848,-274.81444c0,-151.51576 88.11087,-274.79288 196.37848,-274.79288c108.29012,-0.02226 196.44583,123.27712 196.44583,274.79288zm-196.44583,-296.81705c-120.4732,0 -218.53975,133.13966 -218.53975,296.79473c0,163.67737 98.06655,296.81701 218.53975,296.81701c120.51809,0 218.56288,-133.13964 218.56288,-296.81701c0,-163.65507 -98.04479,-296.79473 -218.56288,-296.79473z" fill="#619E73"/>
 </g>

</svg>