<svg width="600" height="600" xmlns="http://www.w3.org/2000/svg">
 <g>
  <title>Layer 1</title>
  <ellipse fill="#fff" cx="299.99994" cy="299.49998" id="svg_1" rx="299.33331" ry="299.49997" stroke="#000"/>
  <path fill="none" stroke="#000" stroke-width="5" d="m280.08809,643.92269l0.56913,0l0.17587,-0.54067l0.17587,0.54067l0.56913,0l-0.46044,0.33415l0.17588,0.54067l-0.46044,-0.33416l-0.46044,0.33416l0.17588,-0.54067l-0.46044,-0.33415z" id="svg_30"/>
  <path id="svg_6" d="m-97.57258,98.16746c-0.0841,-0.01521 -0.1131,-0.12145 -0.06296,-0.1851c0.06654,-0.09844 0.20888,-0.1648 0.3204,-0.10269c0.00222,-0.34665 0.00094,-0.69332 0.00128,-1.03999c0.27807,-0.0561 0.55675,-0.10931 0.83493,-0.16492c-0.0006,0.38852 -0.0012,0.77704 -0.00181,1.16556c-0.04358,0.11751 -0.1844,0.199 -0.30701,0.16256c-0.073,-0.02185 -0.0905,-0.11608 -0.04985,-0.17381c0.05566,-0.08612 0.15927,-0.14525 0.26343,-0.12912c0.02972,-0.00301 0.07349,0.04512 0.06093,-0.00932c0,-0.23356 0,-0.46711 0,-0.70067c-0.25526,0.05139 -0.51102,0.10033 -0.7664,0.15116c-0.00114,0.28176 0.00283,0.56362 -0.00294,0.8453c-0.0176,0.09456 -0.11057,0.16004 -0.20029,0.17913c-0.02964,0.00353 -0.06005,0.00659 -0.08971,0.00191l0,0zm0.66587,-1.17572c0.13115,-0.02581 0.26237,-0.05131 0.39346,-0.07741c0.01668,-0.06647 -0.05798,-0.0233 -0.0945,-0.02168c-0.22394,0.04421 -0.448,0.08776 -0.67191,0.13213c-0.01668,0.06647 0.05798,0.0233 0.0945,0.02168c0.0928,-0.01829 0.18562,-0.03652 0.27844,-0.05473zm0,-0.11633c0.13115,-0.02581 0.26237,-0.05131 0.39346,-0.07741c0.01668,-0.06647 -0.05798,-0.0233 -0.0945,-0.02168c-0.22394,0.04421 -0.448,0.08776 -0.67191,0.13213c-0.01668,0.06647 0.05798,0.0233 0.0945,0.02168c0.0928,-0.01829 0.18562,-0.03652 0.27844,-0.05473z" stroke="#000" fill="#fff"/>
  <path id="svg_15" d="m482.39417,166.66492c-1.77492,-62.20901 -63.01933,-112.18226 -138.32954,-112.21396c-50.34676,0.0317 -94.31906,22.37939 -118.48093,55.75829c-11.35569,-5.18276 -24.42906,-8.21 -38.36125,-8.21c-43.49517,0.0317 -78.87914,28.63992 -80.46321,64.44378c-45.67089,12.45765 -78.72645,47.94452 -78.76462,90.11986c0,52.49331 51.28193,95.09658 114.51121,95.09658l0,-0.0317l302.97756,0c63.21019,0 114.51121,-42.60327 114.51121,-95.09658c-0.07634,-41.81079 -32.55935,-77.13917 -77.60043,-89.86626zm-36.94895,153.29568l-302.95848,0c-42.15921,-0.0951 -76.28355,-28.41803 -76.35989,-63.39772c-0.03817,-31.42942 27.67354,-57.35908 63.93542,-62.33581c5.05758,-0.68153 9.58077,-3.01139 12.53898,-6.56166c2.95821,-3.51857 4.04606,-7.87717 3.11089,-12.07727c-0.53439,-2.36156 -0.85883,-4.56464 -0.85883,-6.72016c0.07634,-19.41555 18.98977,-35.13818 42.36915,-35.16988c12.34812,0 23.22669,4.40614 31.16613,11.58593c4.44685,4.0733 11.20301,5.94354 17.69198,4.91332c6.52714,-1.04606 11.94734,-4.88162 14.27573,-10.00099c14.29482,-31.57206 50.8048,-54.07825 93.72742,-54.04655c55.30891,0.0634 100.08279,37.26201 100.21639,83.2095c0,2.53591 -0.17177,5.15106 -0.49622,7.86132c-0.95426,8.21 5.82099,15.59584 15.53535,17.10153c35.47939,5.46805 62.46586,31.15998 62.42769,62.17731c-0.09543,35.04309 -34.16251,63.36602 -76.32172,63.46111zm-227.7437,112.92718c-14.9628,-0.0317 -27.06281,-10.08024 -27.06281,-22.44279c0,-12.4418 12.10002,-22.44279 27.06281,-22.47449c14.88646,0.0317 26.96739,10.03269 27.02464,22.47449c-0.03817,12.36255 -12.1191,22.41109 -27.02464,22.44279zm143.11992,0c-14.94371,-0.0317 -27.06281,-10.08024 -27.06281,-22.44279c0,-12.4418 12.1191,-22.44279 27.06281,-22.47449c14.86737,0.0317 26.98647,10.03269 26.98647,22.47449c0.01909,12.36255 -12.06185,22.41109 -26.98647,22.44279zm-219.46072,80.22981c-14.94371,-0.0317 -27.04373,-10.09609 -27.04373,-22.47449s12.10002,-22.41109 27.04373,-22.44279c14.88646,0.0317 27.00556,10.06439 27.00556,22.44279c-0.01909,12.39425 -12.10002,22.45864 -27.00556,22.47449zm143.10084,0c-14.92463,-0.0317 -27.04373,-10.09609 -27.04373,-22.47449s12.10002,-22.41109 27.04373,-22.44279c14.88646,0.0317 26.96739,10.06439 27.00556,22.44279c-0.01909,12.39425 -12.06185,22.45864 -27.00556,22.47449zm143.11992,0c-14.92463,-0.0317 -27.02464,-10.04854 -27.02464,-22.44279c0,-12.4418 12.10002,-22.47449 27.02464,-22.50619c14.90554,0.0317 26.98647,10.06439 27.06281,22.50619c-0.05726,12.4101 -12.13819,22.42694 -27.06281,22.44279z" stroke="#00bfbf" fill="#00bfbf"/>
 </g>

</svg>