<?xml version="1.0" encoding="iso-8859-1"?>
<!-- Uploaded to: SVG Repo, www.svgrepo.com, Generator: SVG Repo Mixer Tools -->
<svg height="800px" width="800px" version="1.1" id="Layer_1" xmlns="http://www.w3.org/2000/svg" xmlns:xlink="http://www.w3.org/1999/xlink" 
	 viewBox="0 0 511.999 511.999" xml:space="preserve">
<g>
	<path style="fill:#ABB8B9;" d="M195.136,324.975c-10.052,5.821-22.925,2.392-28.746-7.659c-1.928-3.325-2.839-6.958-2.834-10.543
		h-0.047v-50.752v-50.749c0-11.647,9.44-21.085,21.085-21.085c4.366,0,8.416,1.323,11.779,3.592l42.713,24.666l1.086,0.669v-7.843
		c0-11.647,9.44-21.085,21.085-21.085c4.362,0,8.416,1.323,11.779,3.592l42.713,24.666l1.081,0.669l42.79,24.704
		c10.053,5.777,13.52,18.612,7.743,28.662c-1.975,3.434-4.771,6.099-7.994,7.892l-43.644,25.192l0.022,0.035l-43.949,25.377
		c-10.052,5.821-22.925,2.392-28.746-7.659c-1.928-3.325-2.843-6.958-2.839-10.543h-0.043v-7.845l-1.103,0.634l0.018,0.035
		L195.136,324.975L195.136,324.975z M501.333,256.002c0-135.496-109.84-245.333-245.334-245.333S10.666,120.507,10.666,256.002
		c0,135.49,109.84,245.329,245.333,245.329C391.493,501.33,501.333,391.491,501.333,256.002z"/>
	<path style="fill:#ED8C18;" d="M166.39,317.316c5.82,10.051,18.694,13.48,28.746,7.659l43.949-25.377l-0.018-0.035l1.103-0.634
		v7.845h0.043c-0.004,3.583,0.911,7.218,2.839,10.543c5.82,10.051,18.694,13.48,28.746,7.659l43.949-25.377l-0.022-0.035
		l43.642-25.189c3.224-1.794,6.021-4.459,7.994-7.892c5.776-10.051,2.31-22.885-7.744-28.662l-42.79-24.704l-1.081-0.669
		l-42.713-24.666c-3.363-2.269-7.417-3.592-11.779-3.592c-11.646,0-21.085,9.439-21.085,21.085v7.843l-1.086-0.669l-42.713-24.666
		c-3.363-2.269-7.413-3.592-11.779-3.592c-11.646,0-21.085,9.439-21.085,21.085v50.749v50.752h0.047
		C163.55,310.358,164.462,313.991,166.39,317.316z"/>
</g>
<g>
	<path style="fill:#000003;" d="M255.998,0.001C114.84,0.001,0,114.841,0,255.997c0,141.158,114.84,256.001,255.998,256.001
		c141.159,0,256.001-114.842,256.001-256.001C512,114.841,397.158,0.001,255.998,0.001z M255.998,490.662
		c-129.393,0-234.663-105.27-234.663-234.665c0-129.393,105.27-234.662,234.663-234.662c129.395,0,234.666,105.269,234.666,234.662
		C490.665,385.393,385.393,490.662,255.998,490.662z"/>
	<path style="fill:#000003;" d="M270.398,85.941c5.878,0.465,11.031-3.865,11.526-9.734c0.496-5.871-3.862-11.03-9.732-11.526
		c-5.377-0.454-10.825-0.684-16.193-0.684c-105.868,0-191.998,86.131-191.998,192.004c0,5.889,4.777,10.667,10.667,10.667
		s10.667-4.778,10.667-10.667c0-94.107,76.559-170.669,170.663-170.669C260.769,85.333,265.614,85.537,270.398,85.941z"/>
	<path style="fill:#000003;" d="M437.331,245.334c-5.892,0-10.667,4.776-10.667,10.667c0,94.103-76.56,170.662-170.665,170.662
		c-4.77,0-9.617-0.204-14.403-0.608c-5.867-0.483-11.031,3.863-11.526,9.734c-0.495,5.869,3.863,11.03,9.734,11.526
		c5.38,0.452,10.829,0.684,16.195,0.684c105.868,0,191.999-86.129,191.999-191.997C447.998,250.109,443.223,245.334,437.331,245.334
		z"/>
	<path style="fill:#000003;" d="M299.314,90.918l0.852,0.229c0.925,0.247,1.855,0.367,2.771,0.367c4.709,0,9.017-3.142,10.295-7.907
		c1.527-5.69-1.849-11.54-7.539-13.066l-0.693-0.188c-5.679-1.569-11.555,1.76-13.125,7.441
		C290.306,83.472,293.637,89.347,299.314,90.918z"/>
	<path style="fill:#000003;" d="M212.604,421.057l-0.121-0.033c-0.267-0.07-0.534-0.144-0.798-0.21
		c-5.707-1.438-11.513,2.015-12.958,7.725c-1.445,5.711,2.014,11.513,7.724,12.958l0.625,0.166c0.925,0.247,1.855,0.367,2.771,0.367
		c4.709,0,9.017-3.142,10.295-7.907C221.669,428.433,218.294,422.583,212.604,421.057z"/>
	<path style="fill:#000003;" d="M231.088,316.533c0.688,2.125,1.602,4.18,2.732,6.13c5.651,9.755,16.171,15.816,27.456,15.816
		c5.557-0.002,11.043-1.48,15.855-4.265l43.949-25.377c0.271-0.156,0.533-0.325,0.787-0.502l42.766-24.686
		c4.982-2.79,9.122-6.886,11.976-11.853c4.214-7.332,5.319-15.866,3.115-24.031c-2.206-8.165-7.459-14.982-14.773-19.184
		l-42.531-24.554c-0.457-0.298-0.909-0.575-1.339-0.819l-42.423-24.5c-5.177-3.397-11.184-5.188-17.403-5.188
		c-14.095,0-26.074,9.229-30.208,21.964l-29.05-16.777c-5.177-3.397-11.184-5.188-17.403-5.188
		c-17.507,0-31.753,14.243-31.753,31.753v101.501c0,0.413,0.022,0.818,0.07,1.218c0.196,5.146,1.656,10.195,4.247,14.67
		c5.651,9.755,16.171,15.816,27.456,15.816c5.557-0.002,11.043-1.48,15.855-4.265L231.088,316.533z M184.612,317.143
		c-3.698,0-7.143-1.983-8.993-5.178c-0.929-1.602-1.398-3.344-1.396-5.179c0.001-0.337-0.016-0.671-0.047-1.002V205.272
		c0-5.744,4.673-10.418,10.418-10.418c2.089,0,4.098,0.61,5.814,1.767c0.205,0.14,0.416,0.271,0.63,0.396l42.778,24.702
		c0.163,0.094,0.319,0.192,0.474,0.293c3.275,2.164,7.476,2.354,10.934,0.496c3.458-1.86,5.615-5.469,5.615-9.395v-7.843
		c0-5.744,4.673-10.418,10.418-10.418c2.089,0,4.098,0.61,5.814,1.767c0.205,0.14,0.416,0.271,0.63,0.396l42.778,24.702
		c0.159,0.092,0.307,0.188,0.458,0.288c0.183,0.121,0.37,0.236,0.559,0.346l42.809,24.714c2.392,1.375,4.107,3.598,4.825,6.261
		c0.719,2.665,0.358,5.447-1.014,7.836c-0.94,1.633-2.299,2.979-3.932,3.888c-0.05,0.027-0.098,0.054-0.147,0.081l-43.642,25.189
		c-0.271,0.158-0.536,0.325-0.789,0.505l-43.151,24.917c-1.602,0.929-3.344,1.401-5.178,1.401c-3.698,0-7.143-1.983-8.993-5.178
		c-0.931-1.607-1.403-3.351-1.401-5.179c0.001-0.321-0.014-0.642-0.043-0.958v-6.899c0-3.806-2.028-7.325-5.323-9.232
		c-3.294-1.908-7.355-1.917-10.655-0.018l-1.104,0.634c-0.276,0.158-0.542,0.327-0.799,0.507l-43.167,24.924
		C188.187,316.673,186.445,317.143,184.612,317.143z"/>
</g>
</svg>